{
.appVersion = "3337";
.formatVersion = 3;
customParameters = (
{
name = vendorID;
value = MACR;
},
{
name = panose;
value = (
0,
0,
4,
0,
0,
0,
0,
0,
0,
0
);
},
{
name = unicodeRanges;
value = (
0,
1,
71
);
},
{
name = fsType;
value = (
2
);
},
{
name = glyphOrder;
value = (
.notdef,
.null,
CR,
space,
noName00004,
noName00005,
exclam,
quotedbl,
numbersign,
dollar,
percent,
ampersand,
quotesingle,
parenleft,
parenright,
asterisk,
plus,
comma,
hyphen,
period,
slash,
zero,
one,
two,
three,
four,
five,
six,
seven,
eight,
nine,
colon,
semicolon,
less,
equal,
greater,
question,
at,
A,
B,
C,
D,
E,
F,
G,
H,
I,
J,
K,
L,
M,
N,
O,
P,
Q,
R,
S,
T,
U,
V,
W,
X,
Y,
Z,
bracketleft,
backslash,
bracketright,
asciicircum,
underscore,
grave,
a,
b,
c,
d,
e,
f,
g,
h,
i,
j,
k,
l,
m,
n,
o,
p,
q,
r,
s,
t,
u,
v,
w,
x,
y,
z,
braceleft,
bar,
braceright,
asciitilde,
exclamdown,
cent,
sterling,
currency,
yen,
brokenbar,
section,
dieresis,
copyright,
ordfeminine,
guillemotleft,
logicalnot,
registered,
overscore,
degree,
plusminus,
twosuperior,
threesuperior,
acute,
mu1,
paragraph,
middot,
cedilla,
onesuperior,
ordmasculine,
guillemotright,
onequarter,
onehalf,
threequarters,
questiondown,
Agrave,
Aacute,
Acircumflex,
Atilde,
Adieresis,
Aring,
AE,
Ccedilla,
Egrave,
Eacute,
Ecircumflex,
Edieresis,
Igrave,
Iacute,
Icircumflex,
Idieresis,
Eth,
Ntilde,
Ograve,
Oacute,
Ocircumflex,
Otilde,
Odieresis,
multiply,
Oslash,
Ugrave,
Uacute,
Ucircumflex,
Udieresis,
Yacute,
Thorn,
germandbls,
agrave,
aacute,
acircumflex,
atilde,
adieresis,
aring,
ae,
ccedilla,
egrave,
eacute,
ecircumflex,
edieresis,
igrave,
iacute,
icircumflex,
idieresis,
eth,
ntilde,
ograve,
oacute,
ocircumflex,
otilde,
odieresis,
divide,
oslash,
ugrave,
uacute,
ucircumflex,
udieresis,
yacute,
thorn,
ydieresis,
Amacron,
amacron,
Emacron,
emacron,
Imacron,
imacron,
Omacron,
omacron,
Umacron,
umacron,
U02c0,
U02c1,
U02d2,
U02d3,
quoteleft,
quoteright,
quotedblleft,
quotedblright,
noName00212,
U1e06,
U1e07,
U1e0c,
U1e0d,
U1e0e,
U1e0f,

glyphs = (
{
glyphname = .notdef;
lastChange = "2025-02-10 17:36:15 +0000";
layers = (
{
background = {
shapes = (
{
closed = 1;
nodes = (
(896,1400,l),
(128,1400,l),
(128,0,l),
(896,0,l)
);
},
{
closed = 1;
nodes = (
(768,1272,l),
(768,128,l),
(256,128,l),
(256,1272,l)
);
}
);
};
layerId = m01;
shapes = (
{
closed = 1;
nodes = (
(896,0,l),
(896,1400,l),
(128,1400,l),
(128,0,l)
);
},
{
closed = 1;
nodes = (
(256,1272,l),
(768,1272,l),
(768,128,l),
(256,128,l)
);
}
);
userData = {
assembly = "NPUSHB[ ]	/* 32 values pushed */
1 8 8 64 9 2 7 4 6 1 0 6 5 6 3 2 5 4 8 0 7 6 8 1 2 1 3 0 1 1 0 70
SROUND[ ]	/* SuperRound */
MDAP[1]	/* MoveDirectAbsPt */
SHZ[1]	/* ShiftZoneByLastPoint */
RTG[ ]	/* RoundToGrid */
SVTCA[0]	/* SetFreedomAndProjectionVectorToAxis */
MIAP[1]	/* MoveIndirectAbsPt */
ALIGNRP[ ]	/* AlignRelativePt */
MDAP[1]	/* MoveDirectAbsPt */
ALIGNRP[ ]	/* AlignRelativePt */
SRP0[ ]	/* SetRefPoint0 */
MIRP[11101]	/* MoveIndirectRelPt */
ALIGNRP[ ]	/* AlignRelativePt */
SRP0[ ]	/* SetRefPoint0 */
MIRP[11101]	/* MoveIndirectRelPt */
ALIGNRP[ ]	/* AlignRelativePt */
SVTCA[1]	/* SetFreedomAndProjectionVectorToAxis */
MDAP[1]	/* MoveDirectAbsPt */
ALIGNRP[ ]	/* AlignRelativePt */
MIRP[11101]	/* MoveIndirectRelPt */
ALIGNRP[ ]	/* AlignRelativePt */
MDAP[1]	/* MoveDirectAbsPt */
ALIGNRP[ ]	/* AlignRelativePt */
MIRP[11101]	/* MoveIndirectRelPt */
ALIGNRP[ ]	/* AlignRelativePt */
SVTCA[0]	/* SetFreedomAndProjectionVectorToAxis */
IUP[1]	/* InterpolateUntPts */
IUP[0]	/* InterpolateUntPts */
SVTCA[1]	/* SetFreedomAndProjectionVectorToAxis */
MD[0]	/* MeasureDistance */
ROUND[00]	/* Round */
PUSHW[ ]	/* 2 values pushed */
0 8
MD[0]	/* MeasureDistance */
ROUND[00]	/* Round */
SUB[ ]	/* Subtract */
PUSHB[ ]	/* 1 value pushed */
64
GT[ ]	/* GreaterThan */
IF[ ]	/* If */
SHPIX[ ]	/* ShiftZoneByPixel */
SRP1[ ]	/* SetRefPoint1 */
SHZ[1]	/* ShiftZoneByLastPoint */
PUSHW[ ]	/* 2 values pushed */
8 -64
SHPIX[ ]	/* ShiftZoneByPixel */
EIF[ ]	/* EndIf */";
};
width = 1024;
}
);
note = .notdef;
},
{
glyphname = exclam;
lastChange = "2025-02-10 17:36:15 +0000";
layers = (
{
background = {
shapes = (
{
closed = 1;
nodes = (
(309,1288,o),
(274,1288,qs),
(239,1288,o),
(192,1242,o),
(192,1208,qs),
(192,1210,o),
(194,1173,qs),
(231,495,ls),
(234,437,o),
(274,437,qs),
(313,437,o),
(316,495,qs),
(354,1173,l),
(355,1207,ls),
(356,1242,o)
);
},
{
closed = 1;
nodes = (
(336,181,o),
(293,181,qs),
(254,181,ls),
(210,181,o),
(150,120,o),
(150,76,qs),
(150,33,o),
(211,-27,o),
(254,-27,qs),
(293,-27,ls),
(336,-27,o),
(397,34,o),
(397,77,qs),
(397,120,o)
);
}
);
};
layerId = m01;
shapes = (
{
closed = 1;
nodes = (
(300,437,o),
(314,456,o),
(316,495,cs),
(354,1173,l),
(355,1207,ls),
(356,1254,o),
(321,1288,o),
(274,1288,cs),
(227,1288,o),
(192,1253,o),
(192,1208,cs),
(194,1173,l),
(231,495,ls),
(233,456,o),
(247,437,o),
(274,437,cs)
);
},
{
closed = 1;
nodes = (
(293,-27,ls),
(350,-27,o),
(397,20,o),
(397,77,cs),
(397,134,o),
(350,181,o),
(293,181,cs),
(254,181,ls),
(195,181,o),
(150,135,o),
(150,76,cs),
(150,19,o),
(197,-27,o),
(254,-27,cs)
);
}
);
userData = {
assembly = "NPUSHB[ ]	/* 31 values pushed */
1 29 29 64 30 15 4 15 17 2 22 17 6 2 6 6 0 1 6 9 26 25 7 18 12 19 18 1 1 22 70
SROUND[ ]	/* SuperRound */
MDAP[1]	/* MoveDirectAbsPt */
SHZ[1]	/* ShiftZoneByLastPoint */
RTG[ ]	/* RoundToGrid */
SVTCA[0]	/* SetFreedomAndProjectionVectorToAxis */
MIAP[1]	/* MoveIndirectAbsPt */
ALIGNRP[ ]	/* AlignRelativePt */
MDAP[1]	/* MoveDirectAbsPt */
SRP0[ ]	/* SetRefPoint0 */
MIRP[11101]	/* MoveIndirectRelPt */
ALIGNRP[ ]	/* AlignRelativePt */
SVTCA[1]	/* SetFreedomAndProjectionVectorToAxis */
MDAP[1]	/* MoveDirectAbsPt */
MIRP[11101]	/* MoveIndirectRelPt */
ALIGNRP[ ]	/* AlignRelativePt */
MDAP[1]	/* MoveDirectAbsPt */
MIRP[11101]	/* MoveIndirectRelPt */
SRP0[ ]	/* SetRefPoint0 */
MIRP[11101]	/* MoveIndirectRelPt */
SRP0[ ]	/* SetRefPoint0 */
MIRP[11101]	/* MoveIndirectRelPt */
SVTCA[0]	/* SetFreedomAndProjectionVectorToAxis */
MDAP[0]	/* MoveDirectAbsPt */
IUP[1]	/* InterpolateUntPts */
IUP[0]	/* InterpolateUntPts */
SVTCA[1]	/* SetFreedomAndProjectionVectorToAxis */
MD[0]	/* MeasureDistance */
ROUND[00]	/* Round */
PUSHW[ ]	/* 2 values pushed */
22 29
MD[0]	/* MeasureDistance */
ROUND[00]	/* Round */
SUB[ ]	/* Subtract */
PUSHB[ ]	/* 1 value pushed */
64
GT[ ]	/* GreaterThan */
IF[ ]	/* If */
SHPIX[ ]	/* ShiftZoneByPixel */
SRP1[ ]	/* SetRefPoint1 */
SHZ[1]	/* ShiftZoneByLastPoint */
PUSHW[ ]	/* 2 values pushed */
29 -64
SHPIX[ ]	/* ShiftZoneByPixel */
EIF[ ]	/* EndIf */";
};
width = 549;
}
);
note = exclam;
unicode = 33;
},
{
glyphname = quotedbl;
lastChange = "2025-02-10 17:36:15 +0000";
layers = (
{
background = {
shapes = (
{
closed = 1;
nodes = (
(650,750,ls),
(660,681,o),
(713,681,qs),
(765,681,o),
(775,750,qs),
(845,1236,l),
(579,1236,l)
);
},
{
closed = 1;
nodes = (
(220,750,ls),
(230,681,o),
(283,681,qs),
(336,681,o),
(346,750,qs),
(416,1236,l),
(150,1236,l)
);
}
);
};
layerId = m01;
shapes = (
{
closed = 1;
nodes = (
(748,681,o),
(768,704,o),
(775,750,cs),
(845,1236,l),
(579,1236,l),
(650,750,ls),
(657,704,o),
(678,681,o),
(713,681,cs)
);
},
{
closed = 1;
nodes = (
(318,681,o),
(339,704,o),
(346,750,cs),
(416,1236,l),
(150,1236,l),
(220,750,ls),
(227,704,o),
(248,681,o),
(283,681,cs)
);
}
);
userData = {
assembly = "NPUSHB[ ]	/* 20 values pushed */
1 14 14 64 15 0 13 7 6 0 13 7 6 3 0 10 3 1 13 70
SROUND[ ]	/* SuperRound */
MDAP[1]	/* MoveDirectAbsPt */
SHZ[1]	/* ShiftZoneByLastPoint */
RTG[ ]	/* RoundToGrid */
SVTCA[0]	/* SetFreedomAndProjectionVectorToAxis */
MDAP[1]	/* MoveDirectAbsPt */
ALIGNRP[ ]	/* AlignRelativePt */
MDAP[1]	/* MoveDirectAbsPt */
SLOOP[ ]	/* SetLoopVariable */
ALIGNRP[ ]	/* AlignRelativePt */
SVTCA[1]	/* SetFreedomAndProjectionVectorToAxis */
MDAP[0]	/* MoveDirectAbsPt */
MDAP[0]	/* MoveDirectAbsPt */
MDAP[0]	/* MoveDirectAbsPt */
MDAP[0]	/* MoveDirectAbsPt */
SVTCA[0]	/* SetFreedomAndProjectionVectorToAxis */
IUP[1]	/* InterpolateUntPts */
IUP[0]	/* InterpolateUntPts */
SVTCA[1]	/* SetFreedomAndProjectionVectorToAxis */
MD[0]	/* MeasureDistance */
ROUND[00]	/* Round */
PUSHW[ ]	/* 2 values pushed */
13 14
MD[0]	/* MeasureDistance */
ROUND[00]	/* Round */
SUB[ ]	/* Subtract */
PUSHB[ ]	/* 1 value pushed */
64
GT[ ]	/* GreaterThan */
IF[ ]	/* If */
SHPIX[ ]	/* ShiftZoneByPixel */
SRP1[ ]	/* SetRefPoint1 */
SHZ[1]	/* ShiftZoneByLastPoint */
PUSHW[ ]	/* 2 values pushed */
14 -64
SHPIX[ ]	/* ShiftZoneByPixel */
EIF[ ]	/* EndIf */";
};
width = 996;
}
);
note = quotedbl;
unicode = 34;
},
{
glyphname = numbersign;
lastChange = "2025-02-10 17:36:15 +0000";
layers = (
{
background = {
shapes = (
{
closed = 1;
nodes = (
(485,0,l),
(535,246,l),
(674,246,l),
(626,0,l),
(766,0,l),
(816,246,l),
(998,246,l),
(998,384,l),
(845,384,l),
(882,570,l),
(998,570,l),
(998,709,l),
(911,709,l),
(961,955,l),
(815,955,l),
(766,709,l),
(627,709,l),
(677,955,l),
(536,955,l),
(486,709,l),
(307,709,l),
(307,570,l),
(458,570,l),
(420,384,l),
(307,384,l),
(307,246,l),
(392,246,l),
(342,0,l)
);
},
{
closed = 1;
nodes = (
(702,384,l),
(562,384,l),
(600,570,l),
(739,570,l)
);
}
);
};
layerId = m01;
shapes = (
{
closed = 1;
nodes = (
(485,0,l),
(535,246,l),
(674,246,l),
(626,0,l),
(766,0,l),
(816,246,l),
(998,246,l),
(998,384,l),
(845,384,l),
(882,570,l),
(998,570,l),
(998,709,l),
(911,709,l),
(961,955,l),
(815,955,l),
(766,709,l),
(627,709,l),
(677,955,l),
(536,955,l),
(486,709,l),
(307,709,l),
(307,570,l),
(458,570,l),
(420,384,l),
(307,384,l),
(307,246,l),
(392,246,l),
(342,0,l)
);
},
{
closed = 1;
nodes = (
(600,570,l),
(739,570,l),
(702,384,l),
(562,384,l)
);
}
);
userData = {
assembly = "NPUSHB[ ]	/* 137 values pushed */
1 32 32 64 33 15 31 29 27 24 23 20 19 18 16 15 14 13 10 9 6 5 4 2 1 0 29 29 30 28 31 28 25 24 25 10 10 11 9 8 9 26 10 26 27 7 6 7 4 4 5 3 2 3 0 8 8 9 27 27 8 31 31 28 30 29 30 11 10 11 23 22 23 12 10 12 13 21 20 21 18 18 19 17 16 17 14 22 22 23 13 13 22 30 29 19 18 3 5 2 8 25 24 21 20 1 5 0 31 28 17 16 5 5 4 8 15 14 11 10 7 5 6 13 12 9 3 8 27 26 23 3 22 1 1 1 70
SROUND[ ]	/* SuperRound */
MDAP[1]	/* MoveDirectAbsPt */
SHZ[1]	/* ShiftZoneByLastPoint */
RTG[ ]	/* RoundToGrid */
SVTCA[0]	/* SetFreedomAndProjectionVectorToAxis */
MIAP[1]	/* MoveIndirectAbsPt */
SLOOP[ ]	/* SetLoopVariable */
ALIGNRP[ ]	/* AlignRelativePt */
MDAP[1]	/* MoveDirectAbsPt */
SLOOP[ ]	/* SetLoopVariable */
ALIGNRP[ ]	/* AlignRelativePt */
MDAP[1]	/* MoveDirectAbsPt */
SLOOP[ ]	/* SetLoopVariable */
ALIGNRP[ ]	/* AlignRelativePt */
MIRP[11101]	/* MoveIndirectRelPt */
SLOOP[ ]	/* SetLoopVariable */
ALIGNRP[ ]	/* AlignRelativePt */
MDAP[1]	/* MoveDirectAbsPt */
SLOOP[ ]	/* SetLoopVariable */
ALIGNRP[ ]	/* AlignRelativePt */
MIRP[11101]	/* MoveIndirectRelPt */
SLOOP[ ]	/* SetLoopVariable */
ALIGNRP[ ]	/* AlignRelativePt */
SVTCA[1]	/* SetFreedomAndProjectionVectorToAxis */
SDPVTL[1]	/* SetDualPVectorToLine */
MDAP[0]	/* MoveDirectAbsPt */
SFVTL[0]	/* SetFVectorToLine */
MDRP[00100]	/* MoveDirectRelPt */
SFVTPV[ ]	/* SetFVectorToPVector */
MDRP[00100]	/* MoveDirectRelPt */
SFVTL[0]	/* SetFVectorToLine */
MDRP[00100]	/* MoveDirectRelPt */
SFVTL[0]	/* SetFVectorToLine */
MDRP[00100]	/* MoveDirectRelPt */
SFVTL[0]	/* SetFVectorToLine */
MDRP[00100]	/* MoveDirectRelPt */
SFVTL[0]	/* SetFVectorToLine */
MIRP[11100]	/* MoveIndirectRelPt */
SFVTL[0]	/* SetFVectorToLine */
MDRP[00100]	/* MoveDirectRelPt */
SFVTL[0]	/* SetFVectorToLine */
MDRP[00100]	/* MoveDirectRelPt */
SFVTL[0]	/* SetFVectorToLine */
MDRP[00100]	/* MoveDirectRelPt */
SFVTL[0]	/* SetFVectorToLine */
MDRP[00100]	/* MoveDirectRelPt */
SDPVTL[1]	/* SetDualPVectorToLine */
MDAP[0]	/* MoveDirectAbsPt */
SFVTL[0]	/* SetFVectorToLine */
MDRP[00100]	/* MoveDirectRelPt */
SFVTPV[ ]	/* SetFVectorToPVector */
MDRP[00100]	/* MoveDirectRelPt */
SFVTL[0]	/* SetFVectorToLine */
MDRP[00100]	/* MoveDirectRelPt */
SFVTL[0]	/* SetFVectorToLine */
MDRP[00100]	/* MoveDirectRelPt */
SFVTL[0]	/* SetFVectorToLine */
MDRP[00100]	/* MoveDirectRelPt */
SFVTL[0]	/* SetFVectorToLine */
MIRP[11100]	/* MoveIndirectRelPt */
SFVTL[0]	/* SetFVectorToLine */
MDRP[00100]	/* MoveDirectRelPt */
SFVTL[0]	/* SetFVectorToLine */
MDRP[00100]	/* MoveDirectRelPt */
SFVTL[0]	/* SetFVectorToLine */
MDRP[00100]	/* MoveDirectRelPt */
SFVTL[0]	/* SetFVectorToLine */
MDRP[00100]	/* MoveDirectRelPt */
SFVTL[0]	/* SetFVectorToLine */
MDRP[00100]	/* MoveDirectRelPt */
SVTCA[1]	/* SetFreedomAndProjectionVectorToAxis */
MDAP[0]	/* MoveDirectAbsPt */
MDAP[0]	/* MoveDirectAbsPt */
MDAP[0]	/* MoveDirectAbsPt */
MDAP[0]	/* MoveDirectAbsPt */
MDAP[0]	/* MoveDirectAbsPt */
MDAP[0]	/* MoveDirectAbsPt */
MDAP[0]	/* MoveDirectAbsPt */
MDAP[0]	/* MoveDirectAbsPt */
MDAP[0]	/* MoveDirectAbsPt */
MDAP[0]	/* MoveDirectAbsPt */
MDAP[0]	/* MoveDirectAbsPt */
MDAP[0]	/* MoveDirectAbsPt */
MDAP[0]	/* MoveDirectAbsPt */
MDAP[0]	/* MoveDirectAbsPt */
MDAP[0]	/* MoveDirectAbsPt */
MDAP[0]	/* MoveDirectAbsPt */
MDAP[0]	/* MoveDirectAbsPt */
MDAP[0]	/* MoveDirectAbsPt */
MDAP[0]	/* MoveDirectAbsPt */
MDAP[0]	/* MoveDirectAbsPt */
SVTCA[0]	/* SetFreedomAndProjectionVectorToAxis */
IUP[1]	/* InterpolateUntPts */
IUP[0]	/* InterpolateUntPts */
SVTCA[1]	/* SetFreedomAndProjectionVectorToAxis */
MD[0]	/* MeasureDistance */
ROUND[00]	/* Round */
PUSHW[ ]	/* 2 values pushed */
1 32
MD[0]	/* MeasureDistance */
ROUND[00]	/* Round */
SUB[ ]	/* Subtract */
PUSHB[ ]	/* 1 value pushed */
64
GT[ ]	/* GreaterThan */
IF[ ]	/* If */
SHPIX[ ]	/* ShiftZoneByPixel */
SRP1[ ]	/* SetRefPoint1 */
SHZ[1]	/* ShiftZoneByLastPoint */
PUSHW[ ]	/* 2 values pushed */
32 -64
SHPIX[ ]	/* ShiftZoneByPixel */
EIF[ ]	/* EndIf */";
};
width = 1139;
}
);
note = numbersign;
unicode = 35;
},
{
glyphname = dollar;
lastChange = "2025-02-10 17:36:15 +0000";
layers = (
{
background = {
shapes = (
{
closed = 1;
nodes = (
(435,273,q),
(271,255,l),
(308,9,o),
(535,-18,q),
(535,-133,l),
(626,-133,l),
(626,-15,l),
(745,2,o),
(887,154,o),
(887,273,qs),
(887,392,o),
(813,458,qs),
(755,511,o),
(626,546,q),
(626,792,l),
(687,766,o),
(702,692,q),
(861,712,l),
(827,908,o),
(626,932,q),
(626,994,l),
(535,994,l),
(535,932,l),
(428,921,o),
(296,783,o),
(296,677,qs),
(296,465,o),
(535,397,q),
(535,133,l),
(455,171,o)
);
},
{
closed = 1;
nodes = (
(453,611,o),
(453,685,qs),
(453,767,o),
(535,794,q),
(535,576,l)
);
},
{
closed = 1;
nodes = (
(732,339,o),
(732,250,qs),
(732,144,o),
(626,124,q),
(626,370,l)
);
}
);
};
layerId = m01;
shapes = (
{
closed = 1;
nodes = (
(626,-133,l),
(626,-15,l),
(785,8,o),
(887,114,o),
(887,273,cs),
(887,352,o),
(862,414,o),
(813,458,cs),
(774,493,o),
(712,523,o),
(626,546,c),
(626,792,l),
(667,775,o),
(692,741,o),
(702,692,c),
(861,712,l),
(838,843,o),
(760,916,o),
(626,932,c),
(626,994,l),
(535,994,l),
(535,932,l),
(392,917,o),
(296,818,o),
(296,677,cs),
(296,536,o),
(376,442,o),
(535,397,c),
(535,133,l),
(482,158,o),
(448,205,o),
(435,273,c),
(271,255,l),
(296,91,o),
(384,0,o),
(535,-18,c),
(535,-133,l)
);
},
{
closed = 1;
nodes = (
(626,370,l),
(697,349,o),
(732,309,o),
(732,250,cs),
(732,179,o),
(697,137,o),
(626,124,c)
);
},
{
closed = 1;
nodes = (
(480,599,o),
(453,636,o),
(453,685,cs),
(453,740,o),
(480,776,o),
(535,794,c),
(535,576,l)
);
}
);
userData = {
assembly = "NPUSHB[ ]	/* 48 values pushed */
1 40 40 64 41 19 39 35 34 30 28 14 12 0 27 11 34 30 25 24 7 6 1 7 0 6 39 35 23 22 15 14 9 7 8 32 6 3 37 6 19 8 7 24 23 1 27 70
SROUND[ ]	/* SuperRound */
MDAP[1]	/* MoveDirectAbsPt */
SHZ[1]	/* ShiftZoneByLastPoint */
RTG[ ]	/* RoundToGrid */
SVTCA[0]	/* SetFreedomAndProjectionVectorToAxis */
MDAP[1]	/* MoveDirectAbsPt */
ALIGNRP[ ]	/* AlignRelativePt */
MDAP[1]	/* MoveDirectAbsPt */
ALIGNRP[ ]	/* AlignRelativePt */
SVTCA[1]	/* SetFreedomAndProjectionVectorToAxis */
MDAP[1]	/* MoveDirectAbsPt */
MIRP[11101]	/* MoveIndirectRelPt */
MDAP[1]	/* MoveDirectAbsPt */
MIRP[11101]	/* MoveIndirectRelPt */
MDAP[1]	/* MoveDirectAbsPt */
SLOOP[ ]	/* SetLoopVariable */
ALIGNRP[ ]	/* AlignRelativePt */
MIRP[11101]	/* MoveIndirectRelPt */
SLOOP[ ]	/* SetLoopVariable */
ALIGNRP[ ]	/* AlignRelativePt */
MDAP[0]	/* MoveDirectAbsPt */
MDAP[0]	/* MoveDirectAbsPt */
SVTCA[0]	/* SetFreedomAndProjectionVectorToAxis */
MDAP[0]	/* MoveDirectAbsPt */
MDAP[0]	/* MoveDirectAbsPt */
MDAP[0]	/* MoveDirectAbsPt */
MDAP[0]	/* MoveDirectAbsPt */
MDAP[0]	/* MoveDirectAbsPt */
MDAP[0]	/* MoveDirectAbsPt */
MDAP[0]	/* MoveDirectAbsPt */
MDAP[0]	/* MoveDirectAbsPt */
IUP[1]	/* InterpolateUntPts */
IUP[0]	/* InterpolateUntPts */
SVTCA[1]	/* SetFreedomAndProjectionVectorToAxis */
MD[0]	/* MeasureDistance */
ROUND[00]	/* Round */
PUSHW[ ]	/* 2 values pushed */
27 40
MD[0]	/* MeasureDistance */
ROUND[00]	/* Round */
SUB[ ]	/* Subtract */
PUSHB[ ]	/* 1 value pushed */
64
GT[ ]	/* GreaterThan */
IF[ ]	/* If */
SHPIX[ ]	/* ShiftZoneByPixel */
SRP1[ ]	/* SetRefPoint1 */
SHZ[1]	/* ShiftZoneByLastPoint */
PUSHW[ ]	/* 2 values pushed */
40 -64
SHPIX[ ]	/* ShiftZoneByPixel */
EIF[ ]	/* EndIf */";
};
width = 1030;
}
);
note = dollar;
unicode = 36;
},
{
glyphname = percent;
lastChange = "2025-02-10 17:36:15 +0000";
layers = (
{
background = {
shapes = (
{
closed = 1;
nodes = (
(464,486,qs),
(666,486,o),
(666,730,qs),
(666,973,o),
(461,973,qs),
(259,973,o),
(259,730,qs),
(259,486,o)
);
},
{
closed = 1;
nodes = (
(461,874,qs),
(525,874,o),
(525,731,qs),
(525,587,o),
(461,587,qs),
(396,587,o),
(396,731,qs),
(396,874,o)
);
},
{
closed = 1;
nodes = (
(957,973,l),
(465,-1,l),
(596,-1,l),
(1084,973,l)
);
},
{
closed = 1;
nodes = (
(1087,-3,qs),
(1289,-3,o),
(1289,241,qs),
(1289,485,o),
(1085,485,qs),
(882,485,o),
(882,241,qs),
(882,-3,o)
);
},
{
closed = 1;
nodes = (
(1084,386,qs),
(1148,386,o),
(1148,242,qs),
(1148,98,o),
(1084,98,qs),
(1020,98,o),
(1020,242,qs),
(1020,386,o)
);
}
);
};
layerId = m01;
shapes = (
{
closed = 1;
nodes = (
(596,-1,l),
(1084,973,l),
(957,973,l),
(465,-1,l)
);
},
{
closed = 1;
nodes = (
(599,486,o),
(666,567,o),
(666,730,cs),
(666,892,o),
(598,973,o),
(461,973,cs),
(326,973,o),
(259,892,o),
(259,730,cs),
(259,567,o),
(327,486,o),
(464,486,cs)
);
},
{
closed = 1;
nodes = (
(418,587,o),
(396,635,o),
(396,731,cs),
(396,826,o),
(418,874,o),
(461,874,cs),
(504,874,o),
(525,826,o),
(525,731,cs),
(525,635,o),
(504,587,o),
(461,587,cs)
);
},
{
closed = 1;
nodes = (
(1222,-3,o),
(1289,78,o),
(1289,241,cs),
(1289,404,o),
(1221,485,o),
(1085,485,cs),
(950,485,o),
(882,404,o),
(882,241,cs),
(882,78,o),
(950,-3,o),
(1087,-3,cs)
);
},
{
closed = 1;
nodes = (
(1041,98,o),
(1020,146,o),
(1020,242,cs),
(1020,338,o),
(1041,386,o),
(1084,386,cs),
(1127,386,o),
(1148,338,o),
(1148,242,cs),
(1148,146,o),
(1127,98,o),
(1084,98,cs)
);
}
);
userData = {
assembly = "NPUSHB[ ]	/* 55 values pushed */
1 36 36 64 37 24 19 17 17 16 17 18 10 18 19 16 16 17 19 19 16 8 6 0 4 6 12 20 6 28 32 6 24 6 8 10 14 8 2 30 8 26 22 8 34 19 18 2 26 17 16 1 1 0 70
SROUND[ ]	/* SuperRound */
MDAP[1]	/* MoveDirectAbsPt */
SHZ[1]	/* ShiftZoneByLastPoint */
RTG[ ]	/* RoundToGrid */
SVTCA[0]	/* SetFreedomAndProjectionVectorToAxis */
MIAP[1]	/* MoveIndirectAbsPt */
ALIGNRP[ ]	/* AlignRelativePt */
ALIGNRP[ ]	/* AlignRelativePt */
MDAP[1]	/* MoveDirectAbsPt */
ALIGNRP[ ]	/* AlignRelativePt */
ALIGNRP[ ]	/* AlignRelativePt */
MDAP[1]	/* MoveDirectAbsPt */
MIRP[11101]	/* MoveIndirectRelPt */
SRP0[ ]	/* SetRefPoint0 */
MIRP[11101]	/* MoveIndirectRelPt */
SRP0[ ]	/* SetRefPoint0 */
MIRP[11101]	/* MoveIndirectRelPt */
MDAP[1]	/* MoveDirectAbsPt */
MIRP[11101]	/* MoveIndirectRelPt */
SVTCA[1]	/* SetFreedomAndProjectionVectorToAxis */
MDAP[1]	/* MoveDirectAbsPt */
MIRP[11101]	/* MoveIndirectRelPt */
MDAP[1]	/* MoveDirectAbsPt */
MIRP[11101]	/* MoveIndirectRelPt */
MDAP[1]	/* MoveDirectAbsPt */
MIRP[11101]	/* MoveIndirectRelPt */
MDAP[1]	/* MoveDirectAbsPt */
MIRP[11101]	/* MoveIndirectRelPt */
SDPVTL[1]	/* SetDualPVectorToLine */
MDAP[0]	/* MoveDirectAbsPt */
SFVTL[0]	/* SetFVectorToLine */
MDRP[00100]	/* MoveDirectRelPt */
SFVTL[0]	/* SetFVectorToLine */
MIRP[11100]	/* MoveIndirectRelPt */
SFVTL[0]	/* SetFVectorToLine */
MDRP[00100]	/* MoveDirectRelPt */
SVTCA[1]	/* SetFreedomAndProjectionVectorToAxis */
MDAP[0]	/* MoveDirectAbsPt */
MDAP[0]	/* MoveDirectAbsPt */
SVTCA[0]	/* SetFreedomAndProjectionVectorToAxis */
IUP[1]	/* InterpolateUntPts */
IUP[0]	/* InterpolateUntPts */
SVTCA[1]	/* SetFreedomAndProjectionVectorToAxis */
MD[0]	/* MeasureDistance */
ROUND[00]	/* Round */
PUSHW[ ]	/* 2 values pushed */
0 36
MD[0]	/* MeasureDistance */
ROUND[00]	/* Round */
SUB[ ]	/* Subtract */
PUSHB[ ]	/* 1 value pushed */
64
GT[ ]	/* GreaterThan */
IF[ ]	/* If */
SHPIX[ ]	/* ShiftZoneByPixel */
SRP1[ ]	/* SetRefPoint1 */
SHZ[1]	/* ShiftZoneByLastPoint */
PUSHW[ ]	/* 2 values pushed */
36 -64
SHPIX[ ]	/* ShiftZoneByPixel */
EIF[ ]	/* EndIf */";
};
width = 1412;
}
);
note = percent;
unicode = 37;
},
{
glyphname = ampersand;
lastChange = "2025-02-10 17:36:15 +0000";
layers = (
{
background = {
shapes = (
{
closed = 1;
nodes = (
(867,87,qs),
(875,86,o),
(791,86,q),
(734,172,l),
(796,265,o),
(844,434,q),
(918,434,o),
(918,477,qs),
(918,519,o),
(862,519,qs),
(780,519,l),
(745,368,o),
(684,253,q),
(452,622,ls),
(362,765,o),
(362,830,qs),
(362,896,o),
(467,995,o),
(534,995,qs),
(603,995,o),
(664,940,q),
(694,955,o),
(724,970,q),
(764,994,o),
(764,1018,qs),
(764,1061,o),
(722,1061,qs),
(712,1061,o),
(669,1039,q),
(603,1080,o),
(533,1080,qs),
(430,1080,o),
(278,935,o),
(278,832,qs),
(278,764,o),
(381,598,q),
(275,567,o),
(150,405,o),
(150,296,qs),
(150,166,o),
(235,69,qs),
(324,-31,o),
(452,-31,qs),
(594,-31,o),
(684,101,q),
(748,2,l),
(862,2,ls),
(918,2,o),
(918,44,qs),
(918,81,o)
);
},
{
closed = 1;
nodes = (
(450,53,qs),
(359,53,o),
(295,130,qs),
(234,203,o),
(234,296,qs),
(234,381,o),
(334,504,o),
(417,524,q),
(635,179,l),
(562,53,o)
);
}
);
};
layerId = m01;
shapes = (
{
closed = 1;
nodes = (
(547,-31,o),
(624,13,o),
(684,101,c),
(748,2,l),
(862,2,ls),
(899,2,o),
(918,16,o),
(918,44,cs),
(918,69,o),
(901,83,o),
(867,87,c),
(791,86,l),
(734,172,l),
(775,234,o),
(812,321,o),
(844,434,c),
(893,434,o),
(918,448,o),
(918,477,cs),
(918,505,o),
(899,519,o),
(862,519,cs),
(780,519,l),
(757,418,o),
(725,330,o),
(684,253,c),
(452,622,ls),
(392,717,o),
(362,787,o),
(362,830,cs),
(362,918,o),
(445,995,o),
(534,995,cs),
(580,995,o),
(623,977,o),
(664,940,c),
(724,970,l),
(751,986,o),
(764,1002,o),
(764,1018,cs),
(764,1047,o),
(750,1061,o),
(722,1061,cs),
(715,1061,o),
(698,1054,o),
(669,1039,c),
(625,1066,o),
(580,1080,o),
(533,1080,cs),
(396,1080,o),
(278,969,o),
(278,832,cs),
(278,787,o),
(312,709,o),
(381,598,c),
(240,557,o),
(150,441,o),
(150,296,cs),
(150,209,o),
(178,134,o),
(235,69,cs),
(294,2,o),
(367,-31,o),
(452,-31,cs)
);
},
{
closed = 1;
nodes = (
(389,53,o),
(338,79,o),
(295,130,cs),
(254,179,o),
(234,234,o),
(234,296,cs),
(234,409,o),
(306,497,o),
(417,524,c),
(635,179,l),
(586,95,o),
(525,53,o),
(450,53,cs)
);
}
);
userData = {
assembly = "NPUSHB[ ]	/* 63 values pushed */
1 60 60 64 61 0 51 36 28 22 20 4 50 45 41 24 13 0 45 36 35 46 9 4 3 3 4 45 36 35 46 9 51 50 50 51 54 6 10 33 6 15 39 38 7 2 48 46 8 3 2 58 8 6 30 8 18 18 6 1 1 10 70
SROUND[ ]	/* SuperRound */
MDAP[1]	/* MoveDirectAbsPt */
SHZ[1]	/* ShiftZoneByLastPoint */
RTG[ ]	/* RoundToGrid */
SVTCA[0]	/* SetFreedomAndProjectionVectorToAxis */
MIAP[1]	/* MoveIndirectAbsPt */
MDAP[1]	/* MoveDirectAbsPt */
SRP0[ ]	/* SetRefPoint0 */
MIRP[11101]	/* MoveIndirectRelPt */
SRP0[ ]	/* SetRefPoint0 */
MIRP[11101]	/* MoveIndirectRelPt */
MDAP[1]	/* MoveDirectAbsPt */
ALIGNRP[ ]	/* AlignRelativePt */
MIRP[11101]	/* MoveIndirectRelPt */
ALIGNRP[ ]	/* AlignRelativePt */
SRP0[ ]	/* SetRefPoint0 */
MIRP[11101]	/* MoveIndirectRelPt */
ALIGNRP[ ]	/* AlignRelativePt */
SVTCA[1]	/* SetFreedomAndProjectionVectorToAxis */
MDAP[1]	/* MoveDirectAbsPt */
MIRP[11101]	/* MoveIndirectRelPt */
MDAP[1]	/* MoveDirectAbsPt */
MIRP[11101]	/* MoveIndirectRelPt */
SDPVTL[1]	/* SetDualPVectorToLine */
MDAP[0]	/* MoveDirectAbsPt */
SFVTPV[ ]	/* SetFVectorToPVector */
MDRP[00100]	/* MoveDirectRelPt */
SFVTPV[ ]	/* SetFVectorToPVector */
MIRP[11100]	/* MoveIndirectRelPt */
SFVTPV[ ]	/* SetFVectorToPVector */
MDRP[00100]	/* MoveDirectRelPt */
SFVTPV[ ]	/* SetFVectorToPVector */
MDRP[00100]	/* MoveDirectRelPt */
SFVTPV[ ]	/* SetFVectorToPVector */
MDRP[00100]	/* MoveDirectRelPt */
SDPVTL[1]	/* SetDualPVectorToLine */
MDAP[0]	/* MoveDirectAbsPt */
SFVTPV[ ]	/* SetFVectorToPVector */
MDRP[00100]	/* MoveDirectRelPt */
SFVTPV[ ]	/* SetFVectorToPVector */
MIRP[11100]	/* MoveIndirectRelPt */
SFVTPV[ ]	/* SetFVectorToPVector */
MDRP[00100]	/* MoveDirectRelPt */
SFVTPV[ ]	/* SetFVectorToPVector */
MDRP[00100]	/* MoveDirectRelPt */
SFVTPV[ ]	/* SetFVectorToPVector */
MDRP[00100]	/* MoveDirectRelPt */
SVTCA[1]	/* SetFreedomAndProjectionVectorToAxis */
MDAP[0]	/* MoveDirectAbsPt */
MDAP[0]	/* MoveDirectAbsPt */
MDAP[0]	/* MoveDirectAbsPt */
MDAP[0]	/* MoveDirectAbsPt */
MDAP[0]	/* MoveDirectAbsPt */
MDAP[0]	/* MoveDirectAbsPt */
SVTCA[0]	/* SetFreedomAndProjectionVectorToAxis */
MDAP[0]	/* MoveDirectAbsPt */
MDAP[0]	/* MoveDirectAbsPt */
MDAP[0]	/* MoveDirectAbsPt */
MDAP[0]	/* MoveDirectAbsPt */
MDAP[0]	/* MoveDirectAbsPt */
MDAP[0]	/* MoveDirectAbsPt */
IUP[1]	/* InterpolateUntPts */
IUP[0]	/* InterpolateUntPts */
SVTCA[1]	/* SetFreedomAndProjectionVectorToAxis */
MD[0]	/* MeasureDistance */
ROUND[00]	/* Round */
PUSHW[ ]	/* 2 values pushed */
10 60
MD[0]	/* MeasureDistance */
ROUND[00]	/* Round */
SUB[ ]	/* Subtract */
PUSHB[ ]	/* 1 value pushed */
64
GT[ ]	/* GreaterThan */
IF[ ]	/* If */
SHPIX[ ]	/* ShiftZoneByPixel */
SRP1[ ]	/* SetRefPoint1 */
SHZ[1]	/* ShiftZoneByLastPoint */
PUSHW[ ]	/* 2 values pushed */
60 -64
SHPIX[ ]	/* ShiftZoneByPixel */
EIF[ ]	/* EndIf */";
};
width = 1070;
}
);
note = ampersand;
unicode = 38;
},
{
glyphname = quotesingle;
lastChange = "2025-02-10 17:36:15 +0000";
layers = (
{
background = {
shapes = (
{
closed = 1;
nodes = (
(220,730,ls),
(230,655,o),
(283,655,qs),
(336,655,o),
(346,730,qs),
(416,1255,l),
(150,1255,l)
);
}
);
};
layerId = m01;
shapes = (
{
closed = 1;
nodes = (
(318,655,o),
(339,680,o),
(346,730,cs),
(416,1255,l),
(150,1255,l),
(220,730,ls),
(227,680,o),
(248,655,o),
(283,655,cs)
);
}
);
userData = {
assembly = "NPUSHB[ ]	/* 15 values pushed */
1 7 7 64 8 0 6 0 3 6 0 4 1 6 70
SROUND[ ]	/* SuperRound */
MDAP[1]	/* MoveDirectAbsPt */
SHZ[1]	/* ShiftZoneByLastPoint */
RTG[ ]	/* RoundToGrid */
SVTCA[0]	/* SetFreedomAndProjectionVectorToAxis */
MIAP[1]	/* MoveIndirectAbsPt */
ALIGNRP[ ]	/* AlignRelativePt */
MDAP[1]	/* MoveDirectAbsPt */
SVTCA[1]	/* SetFreedomAndProjectionVectorToAxis */
MDAP[0]	/* MoveDirectAbsPt */
MDAP[0]	/* MoveDirectAbsPt */
SVTCA[0]	/* SetFreedomAndProjectionVectorToAxis */
IUP[1]	/* InterpolateUntPts */
IUP[0]	/* InterpolateUntPts */
SVTCA[1]	/* SetFreedomAndProjectionVectorToAxis */
MD[0]	/* MeasureDistance */
ROUND[00]	/* Round */
PUSHW[ ]	/* 2 values pushed */
6 7
MD[0]	/* MeasureDistance */
ROUND[00]	/* Round */
SUB[ ]	/* Subtract */
PUSHB[ ]	/* 1 value pushed */
64
GT[ ]	/* GreaterThan */
IF[ ]	/* If */
SHPIX[ ]	/* ShiftZoneByPixel */
SRP1[ ]	/* SetRefPoint1 */
SHZ[1]	/* ShiftZoneByLastPoint */
PUSHW[ ]	/* 2 values pushed */
7 -64
SHPIX[ ]	/* ShiftZoneByPixel */
EIF[ ]	/* EndIf */";
};
width = 565;
}
);
note = quotesingle;
unicode = 39;
},
{
glyphname = parenleft;
lastChange = "2025-02-10 17:36:15 +0000";
layers = (
{
background = {
shapes = (
{
closed = 1;
nodes = (
(442,109,qs),
(371,319,o),
(371,527,qs),
(371,801,o),
(522,1135,q),
(401,1135,l),
(201,849,o),
(201,531,qs),
(201,222,o),
(398,-75,q),
(520,-75,l),
(464,45,o)
);
}
);
};
layerId = m01;
shapes = (
{
closed = 1;
nodes = (
(520,-75,l),
(483,5,o),
(457,66,o),
(442,109,cs),
(395,249,o),
(371,388,o),
(371,527,cs),
(371,710,o),
(421,912,o),
(522,1135,c),
(401,1135,l),
(268,944,o),
(201,743,o),
(201,531,cs),
(201,325,o),
(267,123,o),
(398,-75,c)
);
}
);
userData = {
assembly = "NPUSHB[ ]	/* 18 values pushed */
1 12 12 64 13 6 6 0 8 6 3 6 5 1 0 1 3 70
SROUND[ ]	/* SuperRound */
MDAP[1]	/* MoveDirectAbsPt */
SHZ[1]	/* ShiftZoneByLastPoint */
RTG[ ]	/* RoundToGrid */
SVTCA[0]	/* SetFreedomAndProjectionVectorToAxis */
MDAP[1]	/* MoveDirectAbsPt */
ALIGNRP[ ]	/* AlignRelativePt */
MDAP[1]	/* MoveDirectAbsPt */
ALIGNRP[ ]	/* AlignRelativePt */
SVTCA[1]	/* SetFreedomAndProjectionVectorToAxis */
MDAP[1]	/* MoveDirectAbsPt */
MIRP[11101]	/* MoveIndirectRelPt */
MDAP[0]	/* MoveDirectAbsPt */
MDAP[0]	/* MoveDirectAbsPt */
SVTCA[0]	/* SetFreedomAndProjectionVectorToAxis */
IUP[1]	/* InterpolateUntPts */
IUP[0]	/* InterpolateUntPts */
SVTCA[1]	/* SetFreedomAndProjectionVectorToAxis */
MD[0]	/* MeasureDistance */
ROUND[00]	/* Round */
PUSHW[ ]	/* 2 values pushed */
3 12
MD[0]	/* MeasureDistance */
ROUND[00]	/* Round */
SUB[ ]	/* Subtract */
PUSHB[ ]	/* 1 value pushed */
64
GT[ ]	/* GreaterThan */
IF[ ]	/* If */
SHPIX[ ]	/* ShiftZoneByPixel */
SRP1[ ]	/* SetRefPoint1 */
SHZ[1]	/* ShiftZoneByLastPoint */
PUSHW[ ]	/* 2 values pushed */
12 -64
SHPIX[ ]	/* ShiftZoneByPixel */
EIF[ ]	/* EndIf */";
};
width = 682;
}
);
note = parenleft;
unicode = 40;
},
{
glyphname = parenright;
lastChange = "2025-02-10 17:36:15 +0000";
layers = (
{
background = {
shapes = (
{
closed = 1;
nodes = (
(482,224,o),
(482,540,qs),
(482,850,o),
(281,1135,q),
(161,1135,l),
(312,802,o),
(312,527,qs),
(312,388,o),
(276,235,qs),
(245,101,o),
(162,-75,q),
(285,-75,l)
);
}
);
};
layerId = m01;
shapes = (
{
closed = 1;
nodes = (
(285,-75,l),
(416,124,o),
(482,329,o),
(482,540,cs),
(482,747,o),
(415,945,o),
(281,1135,c),
(161,1135,l),
(262,913,o),
(312,710,o),
(312,527,cs),
(312,434,o),
(300,337,o),
(276,235,cs),
(255,146,o),
(217,42,o),
(162,-75,c)
);
}
);
userData = {
assembly = "NPUSHB[ ]	/* 18 values pushed */
1 12 12 64 13 9 6 0 4 5 9 7 6 11 0 1 6 70
SROUND[ ]	/* SuperRound */
MDAP[1]	/* MoveDirectAbsPt */
SHZ[1]	/* ShiftZoneByLastPoint */
RTG[ ]	/* RoundToGrid */
SVTCA[0]	/* SetFreedomAndProjectionVectorToAxis */
MDAP[1]	/* MoveDirectAbsPt */
ALIGNRP[ ]	/* AlignRelativePt */
MDAP[1]	/* MoveDirectAbsPt */
ALIGNRP[ ]	/* AlignRelativePt */
SVTCA[1]	/* SetFreedomAndProjectionVectorToAxis */
MDAP[1]	/* MoveDirectAbsPt */
MIRP[11101]	/* MoveIndirectRelPt */
MDAP[0]	/* MoveDirectAbsPt */
MDAP[0]	/* MoveDirectAbsPt */
SVTCA[0]	/* SetFreedomAndProjectionVectorToAxis */
IUP[1]	/* InterpolateUntPts */
IUP[0]	/* InterpolateUntPts */
SVTCA[1]	/* SetFreedomAndProjectionVectorToAxis */
MD[0]	/* MeasureDistance */
ROUND[00]	/* Round */
PUSHW[ ]	/* 2 values pushed */
6 12
MD[0]	/* MeasureDistance */
ROUND[00]	/* Round */
SUB[ ]	/* Subtract */
PUSHB[ ]	/* 1 value pushed */
64
GT[ ]	/* GreaterThan */
IF[ ]	/* If */
SHPIX[ ]	/* ShiftZoneByPixel */
SRP1[ ]	/* SetRefPoint1 */
SHZ[1]	/* ShiftZoneByLastPoint */
PUSHW[ ]	/* 2 values pushed */
12 -64
SHPIX[ ]	/* ShiftZoneByPixel */
EIF[ ]	/* EndIf */";
};
width = 682;
}
);
note = parenright;
unicode = 41;
},
{
glyphname = asterisk;
lastChange = "2025-02-10 17:36:15 +0000";
layers = (
{
background = {
shapes = (
{
closed = 1;
nodes = (
(771,202,q),
(678,225,l),
(681,249,l),
(678,273,l),
(752,294,ls),
(807,309,o),
(807,352,qs),
(807,411,o),
(752,411,q),
(730,407,o),
(704,381,qs),
(647,325,l),
(630,338,o),
(607,344,q),
(626,404,l),
(637,447,l),
(628,505,o),
(583,505,q),
(549,498,l),
(525,485,o),
(525,447,qs),
(525,436,o),
(547,357,q),
(547,350,o),
(549,345,q),
(530,338,l),
(509,323,l),
(465,369,ls),
(430,405,o),
(403,405,qs),
(351,405,o),
(351,352,qs),
(351,313,o),
(391,301,qs),
(482,271,l),
(480,249,l),
(482,228,l),
(406,208,l),
(351,187,o),
(351,147,q),
(355,123,o),
(363,110,q),
(377,94,o),
(404,94,qs),
(425,94,o),
(439,104,q),
(485,149,l),
(497,166,o),
(509,175,q),
(530,159,o),
(552,154,q),
(533,96,ls),
(525,69,o),
(525,51,qs),
(525,-7,o),
(578,-7,q),
(637,-1,o),
(637,55,q),
(625,96,l),
(613,122,o),
(607,151,q),
(628,161,l),
(649,177,l),
(714,110,l),
(738,94,o),
(754,94,q),
(809,102,o),
(809,149,qs),
(809,189,o)
);
},
{
closed = 1;
nodes = (
(582,288,qs),
(621,288,o),
(621,251,qs),
(621,209,o),
(582,209,qs),
(544,209,o),
(544,247,qs),
(544,288,o)
);
}
);
};
layerId = m01;
shapes = (
{
closed = 1;
nodes = (
(617,-3,o),
(637,18,o),
(637,55,c),
(625,96,l),
(617,113,o),
(611,132,o),
(607,151,c),
(628,161,l),
(649,177,l),
(714,110,l),
(730,99,o),
(743,94,o),
(754,94,c),
(791,99,o),
(809,118,o),
(809,149,cs),
(809,176,o),
(796,193,o),
(771,202,c),
(678,225,l),
(681,249,l),
(678,273,l),
(752,294,ls),
(789,304,o),
(807,323,o),
(807,352,cs),
(807,391,o),
(789,411,o),
(752,411,c),
(737,408,o),
(721,398,o),
(704,381,cs),
(647,325,l),
(636,334,o),
(622,340,o),
(607,344,c),
(626,404,l),
(637,447,l),
(631,486,o),
(613,505,o),
(583,505,c),
(549,498,l),
(533,489,o),
(525,472,o),
(525,447,cs),
(525,440,o),
(532,410,o),
(547,357,c),
(547,352,o),
(548,348,o),
(549,345,c),
(530,338,l),
(509,323,l),
(465,369,ls),
(442,393,o),
(421,405,o),
(403,405,cs),
(368,405,o),
(351,387,o),
(351,352,cs),
(351,326,o),
(364,309,o),
(391,301,cs),
(482,271,l),
(480,249,l),
(482,228,l),
(406,208,l),
(369,194,o),
(351,174,o),
(351,147,c),
(354,131,o),
(358,119,o),
(363,110,c),
(372,99,o),
(386,94,o),
(404,94,cs),
(418,94,o),
(430,97,o),
(439,104,c),
(485,149,l),
(493,160,o),
(501,169,o),
(509,175,c),
(523,164,o),
(537,157,o),
(552,154,c),
(533,96,ls),
(528,78,o),
(525,63,o),
(525,51,cs),
(525,12,o),
(543,-7,o),
(578,-7,c)
);
},
{
closed = 1;
nodes = (
(557,209,o),
(544,222,o),
(544,247,cs),
(544,274,o),
(557,288,o),
(582,288,cs),
(608,288,o),
(621,276,o),
(621,251,cs),
(621,223,o),
(608,209,o),
(582,209,cs)
);
}
);
userData = {
assembly = "NPUSHB[ ]	/* 58 values pushed */
1 77 77 64 78 0 75 56 41 19 5 73 66 65 64 54 52 47 43 17 14 10 7 5 4 5 6 11 42 41 41 42 61 0 5 36 28 69 6 33 31 32 59 7 2 24 2 7 38 71 7 12 50 12 1 1 28 70
SROUND[ ]	/* SuperRound */
MDAP[1]	/* MoveDirectAbsPt */
SHZ[1]	/* ShiftZoneByLastPoint */
RTG[ ]	/* RoundToGrid */
SVTCA[0]	/* SetFreedomAndProjectionVectorToAxis */
MIAP[1]	/* MoveIndirectAbsPt */
MDAP[1]	/* MoveDirectAbsPt */
SRP0[ ]	/* SetRefPoint0 */
MIRP[11101]	/* MoveIndirectRelPt */
MDAP[1]	/* MoveDirectAbsPt */
MIRP[11101]	/* MoveIndirectRelPt */
ALIGNRP[ ]	/* AlignRelativePt */
SRP0[ ]	/* SetRefPoint0 */
MIRP[11101]	/* MoveIndirectRelPt */
SVTCA[1]	/* SetFreedomAndProjectionVectorToAxis */
MDAP[1]	/* MoveDirectAbsPt */
ALIGNRP[ ]	/* AlignRelativePt */
ALIGNRP[ ]	/* AlignRelativePt */
MIRP[11101]	/* MoveIndirectRelPt */
MDAP[1]	/* MoveDirectAbsPt */
ALIGNRP[ ]	/* AlignRelativePt */
MIRP[11101]	/* MoveIndirectRelPt */
ALIGNRP[ ]	/* AlignRelativePt */
SDPVTL[1]	/* SetDualPVectorToLine */
MDAP[0]	/* MoveDirectAbsPt */
SFVTPV[ ]	/* SetFVectorToPVector */
MDRP[00100]	/* MoveDirectRelPt */
SFVTPV[ ]	/* SetFVectorToPVector */
MIRP[11100]	/* MoveIndirectRelPt */
SFVTL[0]	/* SetFVectorToLine */
MDRP[00100]	/* MoveDirectRelPt */
SVTCA[1]	/* SetFreedomAndProjectionVectorToAxis */
MDAP[0]	/* MoveDirectAbsPt */
MDAP[0]	/* MoveDirectAbsPt */
MDAP[0]	/* MoveDirectAbsPt */
MDAP[0]	/* MoveDirectAbsPt */
MDAP[0]	/* MoveDirectAbsPt */
MDAP[0]	/* MoveDirectAbsPt */
MDAP[0]	/* MoveDirectAbsPt */
MDAP[0]	/* MoveDirectAbsPt */
MDAP[0]	/* MoveDirectAbsPt */
MDAP[0]	/* MoveDirectAbsPt */
MDAP[0]	/* MoveDirectAbsPt */
MDAP[0]	/* MoveDirectAbsPt */
SVTCA[0]	/* SetFreedomAndProjectionVectorToAxis */
MDAP[0]	/* MoveDirectAbsPt */
MDAP[0]	/* MoveDirectAbsPt */
MDAP[0]	/* MoveDirectAbsPt */
MDAP[0]	/* MoveDirectAbsPt */
MDAP[0]	/* MoveDirectAbsPt */
IUP[1]	/* InterpolateUntPts */
IUP[0]	/* InterpolateUntPts */
SVTCA[1]	/* SetFreedomAndProjectionVectorToAxis */
MD[0]	/* MeasureDistance */
ROUND[00]	/* Round */
PUSHW[ ]	/* 2 values pushed */
28 77
MD[0]	/* MeasureDistance */
ROUND[00]	/* Round */
SUB[ ]	/* Subtract */
PUSHB[ ]	/* 1 value pushed */
64
GT[ ]	/* GreaterThan */
IF[ ]	/* If */
SHPIX[ ]	/* ShiftZoneByPixel */
SRP1[ ]	/* SetRefPoint1 */
SHZ[1]	/* ShiftZoneByLastPoint */
PUSHW[ ]	/* 2 values pushed */
77 -64
SHPIX[ ]	/* ShiftZoneByPixel */
EIF[ ]	/* EndIf */";
};
width = 1002;
}
);
note = asterisk;
unicode = 42;
},
{
glyphname = plus;
lastChange = "2025-02-10 17:36:15 +0000";
layers = (
{
background = {
shapes = (
{
closed = 1;
nodes = (
(547,469,l),
(547,710,l),
(402,710,l),
(402,469,l),
(150,469,l),
(150,320,l),
(402,320,l),
(402,72,l),
(547,72,l),
(547,320,l),
(789,320,l),
(789,469,l)
);
}
);
};
layerId = m01;
shapes = (
{
closed = 1;
nodes = (
(547,72,l),
(547,320,l),
(789,320,l),
(789,469,l),
(547,469,l),
(547,710,l),
(402,710,l),
(402,469,l),
(150,469,l),
(150,320,l),
(402,320,l),
(402,72,l)
);
}
);
userData = {
assembly = "NPUSHB[ ]	/* 43 values pushed */
1 12 12 64 13 0 11 0 25 1 6 5 25 3 8 7 4 3 3 6 10 9 2 3 1 5 4 1 3 0 8 11 10 7 3 6 9 8 3 2 1 5 70
SROUND[ ]	/* SuperRound */
MDAP[1]	/* MoveDirectAbsPt */
SHZ[1]	/* ShiftZoneByLastPoint */
RTG[ ]	/* RoundToGrid */
SVTCA[0]	/* SetFreedomAndProjectionVectorToAxis */
MDAP[1]	/* MoveDirectAbsPt */
ALIGNRP[ ]	/* AlignRelativePt */
MDAP[1]	/* MoveDirectAbsPt */
ALIGNRP[ ]	/* AlignRelativePt */
MDAP[1]	/* MoveDirectAbsPt */
SLOOP[ ]	/* SetLoopVariable */
ALIGNRP[ ]	/* AlignRelativePt */
MIRP[11101]	/* MoveIndirectRelPt */
SLOOP[ ]	/* SetLoopVariable */
ALIGNRP[ ]	/* AlignRelativePt */
SVTCA[1]	/* SetFreedomAndProjectionVectorToAxis */
MDAP[1]	/* MoveDirectAbsPt */
SLOOP[ ]	/* SetLoopVariable */
ALIGNRP[ ]	/* AlignRelativePt */
MIRP[11101]	/* MoveIndirectRelPt */
SLOOP[ ]	/* SetLoopVariable */
ALIGNRP[ ]	/* AlignRelativePt */
SRP0[ ]	/* SetRefPoint0 */
MIRP[11101]	/* MoveIndirectRelPt */
ALIGNRP[ ]	/* AlignRelativePt */
SRP0[ ]	/* SetRefPoint0 */
MIRP[11101]	/* MoveIndirectRelPt */
ALIGNRP[ ]	/* AlignRelativePt */
SVTCA[0]	/* SetFreedomAndProjectionVectorToAxis */
IUP[1]	/* InterpolateUntPts */
IUP[0]	/* InterpolateUntPts */
SVTCA[1]	/* SetFreedomAndProjectionVectorToAxis */
MD[0]	/* MeasureDistance */
ROUND[00]	/* Round */
PUSHW[ ]	/* 2 values pushed */
5 12
MD[0]	/* MeasureDistance */
ROUND[00]	/* Round */
SUB[ ]	/* Subtract */
PUSHB[ ]	/* 1 value pushed */
64
GT[ ]	/* GreaterThan */
IF[ ]	/* If */
SHPIX[ ]	/* ShiftZoneByPixel */
SRP1[ ]	/* SetRefPoint1 */
SHZ[1]	/* ShiftZoneByLastPoint */
PUSHW[ ]	/* 2 values pushed */
12 -64
SHPIX[ ]	/* ShiftZoneByPixel */
EIF[ ]	/* EndIf */";
};
width = 911;
}
);
note = plus;
unicode = 43;
},
{
glyphname = comma;
lastChange = "2025-02-10 17:36:15 +0000";
layers = (
{
background = {
shapes = (
{
closed = 1;
nodes = (
(344,168,qs),
(315,208,o),
(263,208,qs),
(219,208,o),
(160,146,o),
(160,102,qs),
(160,15,o),
(238,-5,q),
(238,-79,o),
(149,-121,q),
(177,-140,o),
(177,-263,q),
(371,-113,o),
(371,80,qs),
(371,133,o)
);
}
);
};
layerId = m01;
shapes = (
{
closed = 1;
nodes = (
(306,-163,o),
(371,-49,o),
(371,80,cs),
(371,115,o),
(362,145,o),
(344,168,cs),
(325,195,o),
(298,208,o),
(263,208,cs),
(204,208,o),
(160,161,o),
(160,102,cs),
(160,44,o),
(186,8,o),
(238,-5,c),
(238,-54,o),
(208,-93,o),
(149,-121,c),
(168,-134,o),
(177,-181,o),
(177,-263,c)
);
}
);
userData = {
assembly = "NPUSHB[ ]	/* 16 values pushed */
1 15 15 64 16 0 6 4 8 5 0 11 2 1 4 70
SROUND[ ]	/* SuperRound */
MDAP[1]	/* MoveDirectAbsPt */
SHZ[1]	/* ShiftZoneByLastPoint */
RTG[ ]	/* RoundToGrid */
SVTCA[0]	/* SetFreedomAndProjectionVectorToAxis */
MDAP[1]	/* MoveDirectAbsPt */
MDAP[1]	/* MoveDirectAbsPt */
SVTCA[1]	/* SetFreedomAndProjectionVectorToAxis */
MDAP[1]	/* MoveDirectAbsPt */
MIRP[11101]	/* MoveIndirectRelPt */
MDAP[0]	/* MoveDirectAbsPt */
MDAP[0]	/* MoveDirectAbsPt */
SVTCA[0]	/* SetFreedomAndProjectionVectorToAxis */
IUP[1]	/* InterpolateUntPts */
IUP[0]	/* InterpolateUntPts */
SVTCA[1]	/* SetFreedomAndProjectionVectorToAxis */
MD[0]	/* MeasureDistance */
ROUND[00]	/* Round */
PUSHW[ ]	/* 2 values pushed */
4 15
MD[0]	/* MeasureDistance */
ROUND[00]	/* Round */
SUB[ ]	/* Subtract */
PUSHB[ ]	/* 1 value pushed */
64
GT[ ]	/* GreaterThan */
IF[ ]	/* If */
SHPIX[ ]	/* ShiftZoneByPixel */
SRP1[ ]	/* SetRefPoint1 */
SHZ[1]	/* ShiftZoneByLastPoint */
PUSHW[ ]	/* 2 values pushed */
15 -64
SHPIX[ ]	/* ShiftZoneByPixel */
EIF[ ]	/* EndIf */";
};
width = 515;
}
);
note = comma;
unicode = 44;
},
{
glyphname = hyphen;
lastChange = "2025-02-10 17:36:15 +0000";
layers = (
{
background = {
shapes = (
{
closed = 1;
nodes = (
(223,469,l),
(223,322,l),
(705,322,l),
(705,469,l)
);
}
);
};
layerId = m01;
shapes = (
{
closed = 1;
nodes = (
(705,322,l),
(705,469,l),
(223,469,l),
(223,322,l)
);
}
);
userData = {
assembly = "NPUSHB[ ]	/* 18 values pushed */
1 4 4 64 5 0 2 1 5 3 0 3 2 1 0 1 1 70
SROUND[ ]	/* SuperRound */
MDAP[1]	/* MoveDirectAbsPt */
SHZ[1]	/* ShiftZoneByLastPoint */
RTG[ ]	/* RoundToGrid */
SVTCA[0]	/* SetFreedomAndProjectionVectorToAxis */
MDAP[1]	/* MoveDirectAbsPt */
ALIGNRP[ ]	/* AlignRelativePt */
MDAP[1]	/* MoveDirectAbsPt */
ALIGNRP[ ]	/* AlignRelativePt */
SVTCA[1]	/* SetFreedomAndProjectionVectorToAxis */
MDAP[1]	/* MoveDirectAbsPt */
ALIGNRP[ ]	/* AlignRelativePt */
MIRP[11101]	/* MoveIndirectRelPt */
ALIGNRP[ ]	/* AlignRelativePt */
SVTCA[0]	/* SetFreedomAndProjectionVectorToAxis */
IUP[1]	/* InterpolateUntPts */
IUP[0]	/* InterpolateUntPts */
SVTCA[1]	/* SetFreedomAndProjectionVectorToAxis */
MD[0]	/* MeasureDistance */
ROUND[00]	/* Round */
PUSHW[ ]	/* 2 values pushed */
1 4
MD[0]	/* MeasureDistance */
ROUND[00]	/* Round */
SUB[ ]	/* Subtract */
PUSHB[ ]	/* 1 value pushed */
64
GT[ ]	/* GreaterThan */
IF[ ]	/* If */
SHPIX[ ]	/* ShiftZoneByPixel */
SRP1[ ]	/* SetRefPoint1 */
SHZ[1]	/* ShiftZoneByLastPoint */
PUSHW[ ]	/* 2 values pushed */
4 -64
SHPIX[ ]	/* ShiftZoneByPixel */
EIF[ ]	/* EndIf */";
};
width = 884;
}
);
note = hyphen;
unicode = 8208;
},
{
glyphname = period;
lastChange = "2025-02-10 17:36:15 +0000";
layers = (
{
background = {
shapes = (
{
closed = 1;
nodes = (
(307,208,o),
(264,208,qs),
(221,208,o),
(160,147,o),
(160,104,qs),
(160,61,o),
(221,0,o),
(264,0,qs),
(307,0,o),
(368,61,o),
(368,104,qs),
(368,147,o)
);
}
);
};
layerId = m01;
shapes = (
{
closed = 1;
nodes = (
(321,0,o),
(368,47,o),
(368,104,cs),
(368,161,o),
(321,208,o),
(264,208,cs),
(207,208,o),
(160,161,o),
(160,104,cs),
(160,47,o),
(207,0,o),
(264,0,cs)
);
}
);
userData = {
assembly = "NPUSHB[ ]	/* 15 values pushed */
1 12 12 64 13 0 6 5 0 9 3 1 1 6 70
SROUND[ ]	/* SuperRound */
MDAP[1]	/* MoveDirectAbsPt */
SHZ[1]	/* ShiftZoneByLastPoint */
RTG[ ]	/* RoundToGrid */
SVTCA[0]	/* SetFreedomAndProjectionVectorToAxis */
MIAP[1]	/* MoveIndirectAbsPt */
MDAP[1]	/* MoveDirectAbsPt */
SVTCA[1]	/* SetFreedomAndProjectionVectorToAxis */
MDAP[1]	/* MoveDirectAbsPt */
MIRP[11101]	/* MoveIndirectRelPt */
SVTCA[0]	/* SetFreedomAndProjectionVectorToAxis */
IUP[1]	/* InterpolateUntPts */
IUP[0]	/* InterpolateUntPts */
SVTCA[1]	/* SetFreedomAndProjectionVectorToAxis */
MD[0]	/* MeasureDistance */
ROUND[00]	/* Round */
PUSHW[ ]	/* 2 values pushed */
6 12
MD[0]	/* MeasureDistance */
ROUND[00]	/* Round */
SUB[ ]	/* Subtract */
PUSHB[ ]	/* 1 value pushed */
64
GT[ ]	/* GreaterThan */
IF[ ]	/* If */
SHPIX[ ]	/* ShiftZoneByPixel */
SRP1[ ]	/* SetRefPoint1 */
SHZ[1]	/* ShiftZoneByLastPoint */
PUSHW[ ]	/* 2 values pushed */
12 -64
SHPIX[ ]	/* ShiftZoneByPixel */
EIF[ ]	/* EndIf */";
};
width = 515;
}
);
note = period;
unicode = 46;
},
{
glyphname = slash;
lastChange = "2025-02-10 17:36:15 +0000";
layers = (
{
background = {
shapes = (
{
closed = 1;
nodes = (
(520,960,l),
(387,960,l),
(158,5,l),
(288,5,l)
);
}
);
};
layerId = m01;
shapes = (
{
closed = 1;
nodes = (
(288,5,l),
(520,960,l),
(387,960,l),
(158,5,l)
);
}
);
userData = {
assembly = "NPUSHB[ ]	/* 28 values pushed */
1 4 4 64 5 2 2 0 2 1 2 3 10 3 0 1 1 2 0 0 1 2 1 3 0 1 0 70
SROUND[ ]	/* SuperRound */
MDAP[1]	/* MoveDirectAbsPt */
SHZ[1]	/* ShiftZoneByLastPoint */
RTG[ ]	/* RoundToGrid */
SVTCA[0]	/* SetFreedomAndProjectionVectorToAxis */
MDAP[1]	/* MoveDirectAbsPt */
ALIGNRP[ ]	/* AlignRelativePt */
MDAP[1]	/* MoveDirectAbsPt */
ALIGNRP[ ]	/* AlignRelativePt */
SVTCA[1]	/* SetFreedomAndProjectionVectorToAxis */
SDPVTL[1]	/* SetDualPVectorToLine */
MDAP[0]	/* MoveDirectAbsPt */
SFVTL[0]	/* SetFVectorToLine */
MDRP[00100]	/* MoveDirectRelPt */
SFVTL[0]	/* SetFVectorToLine */
MIRP[11100]	/* MoveIndirectRelPt */
SFVTL[0]	/* SetFVectorToLine */
MDRP[00100]	/* MoveDirectRelPt */
SVTCA[1]	/* SetFreedomAndProjectionVectorToAxis */
MDAP[0]	/* MoveDirectAbsPt */
MDAP[0]	/* MoveDirectAbsPt */
SVTCA[0]	/* SetFreedomAndProjectionVectorToAxis */
IUP[1]	/* InterpolateUntPts */
IUP[0]	/* InterpolateUntPts */
SVTCA[1]	/* SetFreedomAndProjectionVectorToAxis */
MD[0]	/* MeasureDistance */
ROUND[00]	/* Round */
PUSHW[ ]	/* 2 values pushed */
0 4
MD[0]	/* MeasureDistance */
ROUND[00]	/* Round */
SUB[ ]	/* Subtract */
PUSHB[ ]	/* 1 value pushed */
64
GT[ ]	/* GreaterThan */
IF[ ]	/* If */
SHPIX[ ]	/* ShiftZoneByPixel */
SRP1[ ]	/* SetRefPoint1 */
SHZ[1]	/* ShiftZoneByLastPoint */
PUSHW[ ]	/* 2 values pushed */
4 -64
SHPIX[ ]	/* ShiftZoneByPixel */
EIF[ ]	/* EndIf */";
};
width = 633;
}
);
note = slash;
unicode = 47;
},
{
glyphname = zero;
lastChange = "2025-02-10 17:36:15 +0000";
layers = (
{
background = {
shapes = (
{
closed = 1;
nodes = (
(151,474,qs),
(151,1,o),
(451,1,qs),
(751,1,o),
(751,472,qs),
(751,944,o),
(451,944,qs),
(151,944,o)
);
},
{
closed = 1;
nodes = (
(508,776,qs),
(566,729,o),
(566,472,qs),
(566,310,o),
(548,241,qs),
(523,147,o),
(451,147,qs),
(419,147,o),
(394,168,qs),
(337,214,o),
(337,472,qs),
(337,634,o),
(355,703,qs),
(380,797,o),
(451,797,qs),
(483,797,o)
);
}
);
};
layerId = m01;
shapes = (
{
closed = 1;
nodes = (
(651,1,o),
(751,158,o),
(751,472,cs),
(751,787,o),
(651,944,o),
(451,944,cs),
(251,944,o),
(151,787,o),
(151,474,cs),
(151,159,o),
(251,1,o),
(451,1,cs)
);
},
{
closed = 1;
nodes = (
(430,147,o),
(411,154,o),
(394,168,cs),
(356,199,o),
(337,300,o),
(337,472,cs),
(337,580,o),
(343,657,o),
(355,703,cs),
(372,766,o),
(404,797,o),
(451,797,cs),
(472,797,o),
(491,790,o),
(508,776,cs),
(547,745,o),
(566,643,o),
(566,472,cs),
(566,364,o),
(560,287,o),
(548,241,cs),
(531,178,o),
(499,147,o),
(451,147,cs)
);
}
);
userData = {
assembly = "NPUSHB[ ]	/* 23 values pushed */
1 24 24 64 25 2 12 5 6 20 5 2 16 8 4 8 8 0 0 4 1 6 70
SROUND[ ]	/* SuperRound */
MDAP[1]	/* MoveDirectAbsPt */
SHZ[1]	/* ShiftZoneByLastPoint */
RTG[ ]	/* RoundToGrid */
SVTCA[0]	/* SetFreedomAndProjectionVectorToAxis */
MDAP[1]	/* MoveDirectAbsPt */
MDAP[1]	/* MoveDirectAbsPt */
SRP0[ ]	/* SetRefPoint0 */
MIRP[11101]	/* MoveIndirectRelPt */
SRP0[ ]	/* SetRefPoint0 */
MIRP[11101]	/* MoveIndirectRelPt */
SVTCA[1]	/* SetFreedomAndProjectionVectorToAxis */
MDAP[1]	/* MoveDirectAbsPt */
MIRP[11101]	/* MoveIndirectRelPt */
MDAP[1]	/* MoveDirectAbsPt */
MIRP[11101]	/* MoveIndirectRelPt */
SVTCA[0]	/* SetFreedomAndProjectionVectorToAxis */
IUP[1]	/* InterpolateUntPts */
IUP[0]	/* InterpolateUntPts */
SVTCA[1]	/* SetFreedomAndProjectionVectorToAxis */
MD[0]	/* MeasureDistance */
ROUND[00]	/* Round */
PUSHW[ ]	/* 2 values pushed */
6 24
MD[0]	/* MeasureDistance */
ROUND[00]	/* Round */
SUB[ ]	/* Subtract */
PUSHB[ ]	/* 1 value pushed */
64
GT[ ]	/* GreaterThan */
IF[ ]	/* If */
SHPIX[ ]	/* ShiftZoneByPixel */
SRP1[ ]	/* SetRefPoint1 */
SHZ[1]	/* ShiftZoneByLastPoint */
PUSHW[ ]	/* 2 values pushed */
24 -64
SHPIX[ ]	/* ShiftZoneByPixel */
EIF[ ]	/* EndIf */";
};
width = 919;
}
);
note = zero;
unicode = 48;
},
{
glyphname = one;
lastChange = "2025-02-10 17:36:15 +0000";
layers = (
{
background = {
shapes = (
{
closed = 1;
nodes = (
(415,928,l),
(388,852,o),
(309,784,qs),
(236,721,o),
(153,694,q),
(153,534,l),
(285,577,o),
(382,668,q),
(382,1,l),
(559,1,l),
(559,928,l)
);
}
);
};
layerId = m01;
shapes = (
{
closed = 1;
nodes = (
(559,1,l),
(559,928,l),
(415,928,l),
(397,877,o),
(362,829,o),
(309,784,cs),
(260,742,o),
(208,712,o),
(153,694,c),
(153,534,l),
(241,563,o),
(317,607,o),
(382,668,c),
(382,1,l)
);
}
);
userData = {
assembly = "NPUSHB[ ]	/* 24 values pushed */
1 11 11 64 12 0 4 2 5 4 5 0 2 1 5 10 0 10 9 1 0 1 4 70
SROUND[ ]	/* SuperRound */
MDAP[1]	/* MoveDirectAbsPt */
SHZ[1]	/* ShiftZoneByLastPoint */
RTG[ ]	/* RoundToGrid */
SVTCA[0]	/* SetFreedomAndProjectionVectorToAxis */
MDAP[1]	/* MoveDirectAbsPt */
ALIGNRP[ ]	/* AlignRelativePt */
MDAP[1]	/* MoveDirectAbsPt */
ALIGNRP[ ]	/* AlignRelativePt */
SVTCA[1]	/* SetFreedomAndProjectionVectorToAxis */
MDAP[1]	/* MoveDirectAbsPt */
ALIGNRP[ ]	/* AlignRelativePt */
MIRP[11101]	/* MoveIndirectRelPt */
ALIGNRP[ ]	/* AlignRelativePt */
SRP0[ ]	/* SetRefPoint0 */
MIRP[11101]	/* MoveIndirectRelPt */
ALIGNRP[ ]	/* AlignRelativePt */
SVTCA[0]	/* SetFreedomAndProjectionVectorToAxis */
MDAP[0]	/* MoveDirectAbsPt */
MDAP[0]	/* MoveDirectAbsPt */
IUP[1]	/* InterpolateUntPts */
IUP[0]	/* InterpolateUntPts */
SVTCA[1]	/* SetFreedomAndProjectionVectorToAxis */
MD[0]	/* MeasureDistance */
ROUND[00]	/* Round */
PUSHW[ ]	/* 2 values pushed */
4 11
MD[0]	/* MeasureDistance */
ROUND[00]	/* Round */
SUB[ ]	/* Subtract */
PUSHB[ ]	/* 1 value pushed */
64
GT[ ]	/* GreaterThan */
IF[ ]	/* If */
SHPIX[ ]	/* ShiftZoneByPixel */
SRP1[ ]	/* SetRefPoint1 */
SHZ[1]	/* ShiftZoneByLastPoint */
PUSHW[ ]	/* 2 values pushed */
11 -64
SHPIX[ ]	/* ShiftZoneByPixel */
EIF[ ]	/* EndIf */";
};
width = 776;
}
);
note = one;
unicode = 49;
},
{
glyphname = two;
lastChange = "2025-02-10 17:36:15 +0000";
layers = (
{
background = {
shapes = (
{
closed = 1;
nodes = (
(431,188,o),
(453,213,qs),
(483,247,o),
(566,322,qs),
(640,389,o),
(676,433,qs),
(769,552,o),
(769,670,qs),
(769,792,o),
(681,862,qs),
(600,927,o),
(476,927,qs),
(198,927,o),
(169,654,q),
(345,636,l),
(355,780,o),
(471,780,qs),
(591,780,o),
(591,658,qs),
(591,603,o),
(555,549,qs),
(528,510,o),
(289,287,o),
(240,221,qs),
(161,115,o),
(148,0,q),
(769,0,l),
(769,164,l),
(417,164,l)
);
}
);
};
layerId = m01;
shapes = (
{
closed = 1;
nodes = (
(769,0,l),
(769,164,l),
(417,164,l),
(426,180,o),
(438,196,o),
(453,213,cs),
(473,236,o),
(511,272,o),
(566,322,cs),
(615,367,o),
(652,404,o),
(676,433,cs),
(738,512,o),
(769,591,o),
(769,670,cs),
(769,751,o),
(740,815,o),
(681,862,cs),
(627,905,o),
(559,927,o),
(476,927,cs),
(291,927,o),
(188,836,o),
(169,654,c),
(345,636,l),
(352,732,o),
(394,780,o),
(471,780,cs),
(551,780,o),
(591,739,o),
(591,658,cs),
(591,621,o),
(579,585,o),
(555,549,cs),
(537,523,o),
(488,473,o),
(409,399,cs),
(329,324,o),
(273,265,o),
(240,221,cs),
(187,150,o),
(157,77,o),
(148,0,c)
);
}
);
userData = {
assembly = "NPUSHB[ ]	/* 29 values pushed */
1 29 29 64 30 0 13 28 14 2 9 5 20 1 0 28 0 8 1 11 8 16 16 2 1 1 1 2 70
SROUND[ ]	/* SuperRound */
MDAP[1]	/* MoveDirectAbsPt */
SHZ[1]	/* ShiftZoneByLastPoint */
RTG[ ]	/* RoundToGrid */
SVTCA[0]	/* SetFreedomAndProjectionVectorToAxis */
MIAP[1]	/* MoveIndirectAbsPt */
ALIGNRP[ ]	/* AlignRelativePt */
MDAP[1]	/* MoveDirectAbsPt */
SRP0[ ]	/* SetRefPoint0 */
MIRP[11101]	/* MoveIndirectRelPt */
SRP0[ ]	/* SetRefPoint0 */
MIRP[11101]	/* MoveIndirectRelPt */
ALIGNRP[ ]	/* AlignRelativePt */
SVTCA[1]	/* SetFreedomAndProjectionVectorToAxis */
MDAP[1]	/* MoveDirectAbsPt */
ALIGNRP[ ]	/* AlignRelativePt */
ALIGNRP[ ]	/* AlignRelativePt */
MIRP[11101]	/* MoveIndirectRelPt */
MDAP[0]	/* MoveDirectAbsPt */
MDAP[0]	/* MoveDirectAbsPt */
MDAP[0]	/* MoveDirectAbsPt */
SVTCA[0]	/* SetFreedomAndProjectionVectorToAxis */
MDAP[0]	/* MoveDirectAbsPt */
IUP[1]	/* InterpolateUntPts */
IUP[0]	/* InterpolateUntPts */
SVTCA[1]	/* SetFreedomAndProjectionVectorToAxis */
MD[0]	/* MeasureDistance */
ROUND[00]	/* Round */
PUSHW[ ]	/* 2 values pushed */
2 29
MD[0]	/* MeasureDistance */
ROUND[00]	/* Round */
SUB[ ]	/* Subtract */
PUSHB[ ]	/* 1 value pushed */
64
GT[ ]	/* GreaterThan */
IF[ ]	/* If */
SHPIX[ ]	/* ShiftZoneByPixel */
SRP1[ ]	/* SetRefPoint1 */
SHZ[1]	/* ShiftZoneByLastPoint */
PUSHW[ ]	/* 2 values pushed */
29 -64
SHPIX[ ]	/* ShiftZoneByPixel */
EIF[ ]	/* EndIf */";
};
width = 933;
}
);
note = two;
unicode = 50;
},
{
glyphname = three;
lastChange = "2025-02-10 17:36:15 +0000";
layers = (
{
background = {
shapes = (
{
closed = 1;
nodes = (
(264,75,qs),
(346,6,o),
(469,6,qs),
(597,6,o),
(686,88,qs),
(779,172,o),
(779,299,qs),
(779,382,o),
(685,501,o),
(604,518,q),
(737,591,o),
(737,712,qs),
(737,798,o),
(672,866,qs),
(593,949,o),
(463,949,qs),
(387,949,o),
(325,920,qs),
(211,867,o),
(178,708,q),
(341,680,l),
(356,803,o),
(458,803,qs),
(559,803,o),
(559,701,qs),
(559,578,o),
(412,582,q),
(392,438,l),
(440,451,o),
(474,451,qs),
(532,451,o),
(566,407,qs),
(597,366,o),
(597,306,qs),
(597,243,o),
(565,200,qs),
(529,153,o),
(467,153,qs),
(353,153,o),
(336,288,q),
(165,267,l),
(179,146,o)
);
}
);
};
layerId = m01;
shapes = (
{
closed = 1;
nodes = (
(554,6,o),
(627,33,o),
(686,88,cs),
(748,144,o),
(779,214,o),
(779,299,cs),
(779,410,o),
(712,495,o),
(604,518,c),
(693,567,o),
(737,631,o),
(737,712,cs),
(737,769,o),
(715,821,o),
(672,866,cs),
(619,921,o),
(550,949,o),
(463,949,cs),
(412,949,o),
(366,939,o),
(325,920,cs),
(249,885,o),
(200,814,o),
(178,708,c),
(341,680,l),
(351,762,o),
(390,803,o),
(458,803,cs),
(525,803,o),
(559,769,o),
(559,701,cs),
(559,619,o),
(510,579,o),
(412,582,c),
(392,438,l),
(424,447,o),
(451,451,o),
(474,451,cs),
(513,451,o),
(543,436,o),
(566,407,cs),
(587,380,o),
(597,346,o),
(597,306,cs),
(597,264,o),
(586,229,o),
(565,200,cs),
(541,169,o),
(508,153,o),
(467,153,cs),
(391,153,o),
(347,198,o),
(336,288,c),
(165,267,l),
(174,186,o),
(207,122,o),
(264,75,cs),
(319,29,o),
(387,6,o),
(469,6,cs)
);
}
);
userData = {
assembly = "NPUSHB[ ]	/* 36 values pushed */
1 42 42 64 43 34 20 13 1 31 21 13 0 7 5 34 16 5 29 11 7 25 14 7 38 18 8 25 3 8 38 25 38 1 0 70
SROUND[ ]	/* SuperRound */
MDAP[1]	/* MoveDirectAbsPt */
SHZ[1]	/* ShiftZoneByLastPoint */
RTG[ ]	/* RoundToGrid */
SVTCA[0]	/* SetFreedomAndProjectionVectorToAxis */
MDAP[1]	/* MoveDirectAbsPt */
MDAP[1]	/* MoveDirectAbsPt */
SRP0[ ]	/* SetRefPoint0 */
MIRP[11101]	/* MoveIndirectRelPt */
SRP0[ ]	/* SetRefPoint0 */
MIRP[11101]	/* MoveIndirectRelPt */
SRP0[ ]	/* SetRefPoint0 */
MIRP[11101]	/* MoveIndirectRelPt */
SRP0[ ]	/* SetRefPoint0 */
MIRP[11101]	/* MoveIndirectRelPt */
SVTCA[1]	/* SetFreedomAndProjectionVectorToAxis */
MDAP[1]	/* MoveDirectAbsPt */
MIRP[11101]	/* MoveIndirectRelPt */
MDAP[1]	/* MoveDirectAbsPt */
MIRP[11101]	/* MoveIndirectRelPt */
MDAP[0]	/* MoveDirectAbsPt */
MDAP[0]	/* MoveDirectAbsPt */
MDAP[0]	/* MoveDirectAbsPt */
MDAP[0]	/* MoveDirectAbsPt */
SVTCA[0]	/* SetFreedomAndProjectionVectorToAxis */
MDAP[0]	/* MoveDirectAbsPt */
MDAP[0]	/* MoveDirectAbsPt */
MDAP[0]	/* MoveDirectAbsPt */
IUP[1]	/* InterpolateUntPts */
IUP[0]	/* InterpolateUntPts */
SVTCA[1]	/* SetFreedomAndProjectionVectorToAxis */
MD[0]	/* MeasureDistance */
ROUND[00]	/* Round */
PUSHW[ ]	/* 2 values pushed */
0 42
MD[0]	/* MeasureDistance */
ROUND[00]	/* Round */
SUB[ ]	/* Subtract */
PUSHB[ ]	/* 1 value pushed */
64
GT[ ]	/* GreaterThan */
IF[ ]	/* If */
SHPIX[ ]	/* ShiftZoneByPixel */
SRP1[ ]	/* SetRefPoint1 */
SHZ[1]	/* ShiftZoneByLastPoint */
PUSHW[ ]	/* 2 values pushed */
42 -64
SHPIX[ ]	/* ShiftZoneByPixel */
EIF[ ]	/* EndIf */";
};
width = 938;
}
);
note = three;
unicode = 51;
},
{
glyphname = four;
lastChange = "2025-02-10 17:36:15 +0000";
layers = (
{
background = {
shapes = (
{
closed = 1;
nodes = (
(702,186,l),
(816,186,l),
(816,341,l),
(702,341,l),
(702,927,l),
(553,927,l),
(152,341,l),
(152,186,l),
(530,186,l),
(530,0,l),
(702,0,l)
);
},
{
closed = 1;
nodes = (
(530,657,l),
(530,341,l),
(318,341,l)
);
}
);
};
layerId = m01;
shapes = (
{
closed = 1;
nodes = (
(702,0,l),
(702,186,l),
(816,186,l),
(816,341,l),
(702,341,l),
(702,927,l),
(553,927,l),
(152,341,l),
(152,186,l),
(530,186,l),
(530,0,l)
);
},
{
closed = 1;
nodes = (
(530,657,l),
(530,341,l),
(318,341,l)
);
}
);
userData = {
assembly = "NPUSHB[ ]	/* 57 values pushed */
1 14 14 64 15 7 13 12 13 12 11 12 13 10 13 11 4 4 5 3 3 4 8 7 5 3 2 12 11 1 3 0 5 10 9 6 3 5 11 7 6 3 3 8 9 8 2 3 1 5 4 10 0 1 1 2 70
SROUND[ ]	/* SuperRound */
MDAP[1]	/* MoveDirectAbsPt */
SHZ[1]	/* ShiftZoneByLastPoint */
RTG[ ]	/* RoundToGrid */
SVTCA[0]	/* SetFreedomAndProjectionVectorToAxis */
MIAP[1]	/* MoveIndirectAbsPt */
ALIGNRP[ ]	/* AlignRelativePt */
MDAP[1]	/* MoveDirectAbsPt */
ALIGNRP[ ]	/* AlignRelativePt */
MDAP[1]	/* MoveDirectAbsPt */
SLOOP[ ]	/* SetLoopVariable */
ALIGNRP[ ]	/* AlignRelativePt */
MIRP[11101]	/* MoveIndirectRelPt */
SLOOP[ ]	/* SetLoopVariable */
ALIGNRP[ ]	/* AlignRelativePt */
SVTCA[1]	/* SetFreedomAndProjectionVectorToAxis */
MDAP[1]	/* MoveDirectAbsPt */
SLOOP[ ]	/* SetLoopVariable */
ALIGNRP[ ]	/* AlignRelativePt */
MIRP[11101]	/* MoveIndirectRelPt */
SLOOP[ ]	/* SetLoopVariable */
ALIGNRP[ ]	/* AlignRelativePt */
MDAP[1]	/* MoveDirectAbsPt */
ALIGNRP[ ]	/* AlignRelativePt */
MIRP[11101]	/* MoveIndirectRelPt */
ALIGNRP[ ]	/* AlignRelativePt */
SDPVTL[1]	/* SetDualPVectorToLine */
MDAP[0]	/* MoveDirectAbsPt */
SFVTL[0]	/* SetFVectorToLine */
MDRP[00100]	/* MoveDirectRelPt */
SFVTL[0]	/* SetFVectorToLine */
MIRP[11100]	/* MoveIndirectRelPt */
SFVTL[0]	/* SetFVectorToLine */
MDRP[00100]	/* MoveDirectRelPt */
SVTCA[1]	/* SetFreedomAndProjectionVectorToAxis */
MDAP[0]	/* MoveDirectAbsPt */
SVTCA[0]	/* SetFreedomAndProjectionVectorToAxis */
MDAP[0]	/* MoveDirectAbsPt */
MDAP[0]	/* MoveDirectAbsPt */
IUP[1]	/* InterpolateUntPts */
IUP[0]	/* InterpolateUntPts */
SVTCA[1]	/* SetFreedomAndProjectionVectorToAxis */
MD[0]	/* MeasureDistance */
ROUND[00]	/* Round */
PUSHW[ ]	/* 2 values pushed */
2 14
MD[0]	/* MeasureDistance */
ROUND[00]	/* Round */
SUB[ ]	/* Subtract */
PUSHB[ ]	/* 1 value pushed */
64
GT[ ]	/* GreaterThan */
IF[ ]	/* If */
SHPIX[ ]	/* ShiftZoneByPixel */
SRP1[ ]	/* SetRefPoint1 */
SHZ[1]	/* ShiftZoneByLastPoint */
PUSHW[ ]	/* 2 values pushed */
14 -64
SHPIX[ ]	/* ShiftZoneByPixel */
EIF[ ]	/* EndIf */";
};
width = 937;
}
);
note = four;
unicode = 52;
},
{
glyphname = five;
lastChange = "2025-02-10 17:36:15 +0000";
layers = (
{
background = {
shapes = (
{
closed = 1;
nodes = (
(258,58,qs),
(339,-7,o),
(463,-7,qs),
(623,-7,o),
(713,116,qs),
(779,205,o),
(779,319,qs),
(779,447,o),
(703,535,qs),
(624,627,o),
(497,627,qs),
(436,627,o),
(376,597,q),
(404,754,l),
(738,754,l),
(738,920,l),
(270,920,l),
(179,439,l),
(323,419,l),
(383,486,o),
(460,486,qs),
(597,486,o),
(597,316,qs),
(597,135,o),
(465,135,qs),
(411,135,o),
(375,174,qs),
(341,210,o),
(334,265,q),
(158,247,l),
(174,126,o)
);
}
);
};
layerId = m01;
shapes = (
{
closed = 1;
nodes = (
(570,-7,o),
(653,34,o),
(713,116,cs),
(757,175,o),
(779,243,o),
(779,319,cs),
(779,404,o),
(754,476,o),
(703,535,cs),
(650,596,o),
(582,627,o),
(497,627,cs),
(456,627,o),
(416,617,o),
(376,597,c),
(404,754,l),
(738,754,l),
(738,920,l),
(270,920,l),
(179,439,l),
(323,419,l),
(363,464,o),
(409,486,o),
(460,486,cs),
(551,486,o),
(597,429,o),
(597,316,cs),
(597,195,o),
(553,135,o),
(465,135,cs),
(429,135,o),
(399,148,o),
(375,174,cs),
(352,198,o),
(339,228,o),
(334,265,c),
(158,247,l),
(169,166,o),
(202,103,o),
(258,58,cs),
(312,15,o),
(380,-7,o),
(463,-7,cs)
);
}
);
userData = {
assembly = "NPUSHB[ ]	/* 45 values pushed */
1 31 31 64 32 23 17 11 1 17 15 14 12 0 16 15 16 17 11 13 13 14 12 12 13 7 5 23 16 15 8 13 9 8 19 5 8 27 14 13 27 1 1 0 70
SROUND[ ]	/* SuperRound */
MDAP[1]	/* MoveDirectAbsPt */
SHZ[1]	/* ShiftZoneByLastPoint */
RTG[ ]	/* RoundToGrid */
SVTCA[0]	/* SetFreedomAndProjectionVectorToAxis */
MIAP[1]	/* MoveIndirectAbsPt */
MDAP[1]	/* MoveDirectAbsPt */
ALIGNRP[ ]	/* AlignRelativePt */
SRP0[ ]	/* SetRefPoint0 */
MIRP[11101]	/* MoveIndirectRelPt */
MDAP[1]	/* MoveDirectAbsPt */
MIRP[11101]	/* MoveIndirectRelPt */
SRP0[ ]	/* SetRefPoint0 */
MIRP[11101]	/* MoveIndirectRelPt */
ALIGNRP[ ]	/* AlignRelativePt */
SVTCA[1]	/* SetFreedomAndProjectionVectorToAxis */
MDAP[1]	/* MoveDirectAbsPt */
MIRP[11101]	/* MoveIndirectRelPt */
SDPVTL[1]	/* SetDualPVectorToLine */
MDAP[0]	/* MoveDirectAbsPt */
SFVTL[0]	/* SetFVectorToLine */
MDRP[00100]	/* MoveDirectRelPt */
SFVTPV[ ]	/* SetFVectorToPVector */
MIRP[11100]	/* MoveIndirectRelPt */
SFVTL[0]	/* SetFVectorToLine */
MDRP[00100]	/* MoveDirectRelPt */
SVTCA[1]	/* SetFreedomAndProjectionVectorToAxis */
MDAP[0]	/* MoveDirectAbsPt */
MDAP[0]	/* MoveDirectAbsPt */
MDAP[0]	/* MoveDirectAbsPt */
MDAP[0]	/* MoveDirectAbsPt */
MDAP[0]	/* MoveDirectAbsPt */
SVTCA[0]	/* SetFreedomAndProjectionVectorToAxis */
MDAP[0]	/* MoveDirectAbsPt */
MDAP[0]	/* MoveDirectAbsPt */
MDAP[0]	/* MoveDirectAbsPt */
IUP[1]	/* InterpolateUntPts */
IUP[0]	/* InterpolateUntPts */
SVTCA[1]	/* SetFreedomAndProjectionVectorToAxis */
MD[0]	/* MeasureDistance */
ROUND[00]	/* Round */
PUSHW[ ]	/* 2 values pushed */
0 31
MD[0]	/* MeasureDistance */
ROUND[00]	/* Round */
SUB[ ]	/* Subtract */
PUSHB[ ]	/* 1 value pushed */
64
GT[ ]	/* GreaterThan */
IF[ ]	/* If */
SHPIX[ ]	/* ShiftZoneByPixel */
SRP1[ ]	/* SetRefPoint1 */
SHZ[1]	/* ShiftZoneByLastPoint */
PUSHW[ ]	/* 2 values pushed */
31 -64
SHPIX[ ]	/* ShiftZoneByPixel */
EIF[ ]	/* EndIf */";
};
width = 935;
}
);
note = five;
unicode = 53;
},
{
glyphname = six;
lastChange = "2025-02-10 17:36:15 +0000";
layers = (
{
background = {
shapes = (
{
closed = 1;
nodes = (
(493,943,qs),
(155,943,o),
(155,465,qs),
(155,0,o),
(475,0,qs),
(611,0,o),
(693,89,qs),
(772,176,o),
(772,313,qs),
(772,436,o),
(700,523,qs),
(624,615,o),
(503,615,qs),
(405,615,o),
(339,537,q),
(355,797,o),
(482,797,qs),
(571,797,o),
(584,694,q),
(755,713,l),
(716,943,o)
);
},
{
closed = 1;
nodes = (
(475,485,qs),
(599,485,o),
(599,311,qs),
(599,147,o),
(484,147,qs),
(420,147,o),
(384,208,qs),
(354,258,o),
(354,327,qs),
(354,485,o)
);
}
);
};
layerId = m01;
shapes = (
{
closed = 1;
nodes = (
(566,0,o),
(638,30,o),
(693,89,cs),
(746,147,o),
(772,222,o),
(772,313,cs),
(772,395,o),
(748,465,o),
(700,523,cs),
(649,584,o),
(584,615,o),
(503,615,cs),
(438,615,o),
(383,589,o),
(339,537,c),
(350,710,o),
(397,797,o),
(482,797,cs),
(541,797,o),
(575,763,o),
(584,694,c),
(755,713,l),
(729,866,o),
(642,943,o),
(493,943,cs),
(268,943,o),
(155,784,o),
(155,465,cs),
(155,155,o),
(262,0,o),
(475,0,cs)
);
},
{
closed = 1;
nodes = (
(441,147,o),
(408,167,o),
(384,208,cs),
(364,241,o),
(354,281,o),
(354,327,cs),
(354,432,o),
(394,485,o),
(475,485,cs),
(558,485,o),
(599,427,o),
(599,311,cs),
(599,202,o),
(561,147,o),
(484,147,cs)
);
}
);
userData = {
assembly = "NPUSHB[ ]	/* 31 values pushed */
1 31 31 64 32 11 5 1 5 0 27 5 11 21 5 17 3 8 19 25 8 15 29 8 7 19 15 1 1 17 70
SROUND[ ]	/* SuperRound */
MDAP[1]	/* MoveDirectAbsPt */
SHZ[1]	/* ShiftZoneByLastPoint */
RTG[ ]	/* RoundToGrid */
SVTCA[0]	/* SetFreedomAndProjectionVectorToAxis */
MIAP[1]	/* MoveIndirectAbsPt */
MDAP[1]	/* MoveDirectAbsPt */
MDAP[1]	/* MoveDirectAbsPt */
MIRP[11101]	/* MoveIndirectRelPt */
SRP0[ ]	/* SetRefPoint0 */
MIRP[11101]	/* MoveIndirectRelPt */
SRP0[ ]	/* SetRefPoint0 */
MIRP[11101]	/* MoveIndirectRelPt */
SVTCA[1]	/* SetFreedomAndProjectionVectorToAxis */
MDAP[1]	/* MoveDirectAbsPt */
MIRP[11101]	/* MoveIndirectRelPt */
MDAP[1]	/* MoveDirectAbsPt */
MIRP[11101]	/* MoveIndirectRelPt */
MDAP[0]	/* MoveDirectAbsPt */
MDAP[0]	/* MoveDirectAbsPt */
SVTCA[0]	/* SetFreedomAndProjectionVectorToAxis */
MDAP[0]	/* MoveDirectAbsPt */
MDAP[0]	/* MoveDirectAbsPt */
IUP[1]	/* InterpolateUntPts */
IUP[0]	/* InterpolateUntPts */
SVTCA[1]	/* SetFreedomAndProjectionVectorToAxis */
MD[0]	/* MeasureDistance */
ROUND[00]	/* Round */
PUSHW[ ]	/* 2 values pushed */
17 31
MD[0]	/* MeasureDistance */
ROUND[00]	/* Round */
SUB[ ]	/* Subtract */
PUSHB[ ]	/* 1 value pushed */
64
GT[ ]	/* GreaterThan */
IF[ ]	/* If */
SHPIX[ ]	/* ShiftZoneByPixel */
SRP1[ ]	/* SetRefPoint1 */
SHZ[1]	/* ShiftZoneByLastPoint */
PUSHW[ ]	/* 2 values pushed */
31 -64
SHPIX[ ]	/* ShiftZoneByPixel */
EIF[ ]	/* EndIf */";
};
width = 893;
}
);
note = six;
unicode = 54;
},
{
glyphname = seven;
lastChange = "2025-02-10 17:36:15 +0000";
layers = (
{
background = {
shapes = (
{
closed = 1;
nodes = (
(434,595,o),
(360,400,qs),
(284,199,o),
(280,5,q),
(450,5,l),
(450,127,o),
(490,282,qs),
(575,604,o),
(761,787,q),
(761,916,l),
(156,916,l),
(156,751,l),
(558,751,l)
);
}
);
};
layerId = m01;
shapes = (
{
closed = 1;
nodes = (
(450,5,l),
(450,86,o),
(463,179,o),
(490,282,cs),
(547,497,o),
(637,665,o),
(761,787,c),
(761,916,l),
(156,916,l),
(156,751,l),
(558,751,l),
(475,647,o),
(409,530,o),
(360,400,cs),
(309,266,o),
(283,134,o),
(280,5,c)
);
}
);
userData = {
assembly = "NPUSHB[ ]	/* 24 values pushed */
1 13 13 64 14 2 12 8 3 2 5 1 0 12 0 8 1 2 1 8 7 1 0 70
SROUND[ ]	/* SuperRound */
MDAP[1]	/* MoveDirectAbsPt */
SHZ[1]	/* ShiftZoneByLastPoint */
RTG[ ]	/* RoundToGrid */
SVTCA[0]	/* SetFreedomAndProjectionVectorToAxis */
MDAP[1]	/* MoveDirectAbsPt */
ALIGNRP[ ]	/* AlignRelativePt */
MDAP[1]	/* MoveDirectAbsPt */
ALIGNRP[ ]	/* AlignRelativePt */
SRP0[ ]	/* SetRefPoint0 */
MIRP[11101]	/* MoveIndirectRelPt */
ALIGNRP[ ]	/* AlignRelativePt */
SVTCA[1]	/* SetFreedomAndProjectionVectorToAxis */
MDAP[1]	/* MoveDirectAbsPt */
ALIGNRP[ ]	/* AlignRelativePt */
MIRP[11101]	/* MoveIndirectRelPt */
ALIGNRP[ ]	/* AlignRelativePt */
MDAP[0]	/* MoveDirectAbsPt */
MDAP[0]	/* MoveDirectAbsPt */
SVTCA[0]	/* SetFreedomAndProjectionVectorToAxis */
IUP[1]	/* InterpolateUntPts */
IUP[0]	/* InterpolateUntPts */
SVTCA[1]	/* SetFreedomAndProjectionVectorToAxis */
MD[0]	/* MeasureDistance */
ROUND[00]	/* Round */
PUSHW[ ]	/* 2 values pushed */
0 13
MD[0]	/* MeasureDistance */
ROUND[00]	/* Round */
SUB[ ]	/* Subtract */
PUSHB[ ]	/* 1 value pushed */
64
GT[ ]	/* GreaterThan */
IF[ ]	/* If */
SHPIX[ ]	/* ShiftZoneByPixel */
SRP1[ ]	/* SetRefPoint1 */
SHZ[1]	/* ShiftZoneByLastPoint */
PUSHW[ ]	/* 2 values pushed */
13 -64
SHPIX[ ]	/* ShiftZoneByPixel */
EIF[ ]	/* EndIf */";
};
width = 893;
}
);
note = seven;
unicode = 55;
},
{
glyphname = eight;
lastChange = "2025-02-10 17:36:15 +0000";
layers = (
{
background = {
shapes = (
{
closed = 1;
nodes = (
(148,282,qs),
(148,151,o),
(239,74,qs),
(324,1,o),
(457,1,qs),
(589,1,o),
(755,157,o),
(755,289,qs),
(755,453,o),
(598,516,q),
(726,572,o),
(726,707,qs),
(726,822,o),
(643,886,qs),
(567,945,o),
(449,945,qs),
(329,945,o),
(254,887,qs),
(171,823,o),
(171,707,qs),
(171,571,o),
(302,516,q),
(148,450,o)
);
},
{
closed = 1;
nodes = (
(450,805,qs),
(559,805,o),
(559,695,qs),
(559,582,o),
(449,582,qs),
(339,582,o),
(339,694,qs),
(339,805,o)
);
},
{
closed = 1;
nodes = (
(392,440,o),
(451,440,qs),
(511,440,o),
(547,398,qs),
(580,358,o),
(580,297,qs),
(580,144,o),
(454,144,qs),
(390,144,o),
(355,191,qs),
(323,233,o),
(323,299,qs),
(323,359,o)
);
}
);
};
layerId = m01;
shapes = (
{
closed = 1;
nodes = (
(633,1,o),
(755,113,o),
(755,289,cs),
(755,398,o),
(703,474,o),
(598,516,c),
(683,553,o),
(726,617,o),
(726,707,cs),
(726,784,o),
(698,843,o),
(643,886,cs),
(592,925,o),
(528,945,o),
(449,945,cs),
(369,945,o),
(304,926,o),
(254,887,cs),
(199,844,o),
(171,784,o),
(171,707,cs),
(171,616,o),
(215,553,o),
(302,516,c),
(199,472,o),
(148,394,o),
(148,282,cs),
(148,195,o),
(178,125,o),
(239,74,cs),
(296,25,o),
(368,1,o),
(457,1,cs)
);
},
{
closed = 1;
nodes = (
(411,144,o),
(378,160,o),
(355,191,cs),
(334,219,o),
(323,255,o),
(323,299,cs),
(323,379,o),
(372,440,o),
(451,440,cs),
(491,440,o),
(523,426,o),
(547,398,cs),
(569,371,o),
(580,338,o),
(580,297,cs),
(580,195,o),
(538,144,o),
(454,144,cs)
);
},
{
closed = 1;
nodes = (
(376,582,o),
(339,619,o),
(339,694,cs),
(339,768,o),
(376,805,o),
(450,805,cs),
(523,805,o),
(559,768,o),
(559,695,cs),
(559,620,o),
(522,582,o),
(449,582,cs)
);
}
);
userData = {
assembly = "NPUSHB[ ]	/* 34 values pushed */
1 44 44 64 45 14 12 0 31 5 21 37 5 14 23 6 2 27 6 10 35 8 17 29 8 6 41 8 25 6 17 1 21 70
SROUND[ ]	/* SuperRound */
MDAP[1]	/* MoveDirectAbsPt */
SHZ[1]	/* ShiftZoneByLastPoint */
RTG[ ]	/* RoundToGrid */
SVTCA[0]	/* SetFreedomAndProjectionVectorToAxis */
MDAP[1]	/* MoveDirectAbsPt */
MDAP[1]	/* MoveDirectAbsPt */
MDAP[1]	/* MoveDirectAbsPt */
MIRP[11101]	/* MoveIndirectRelPt */
SRP0[ ]	/* SetRefPoint0 */
MIRP[11101]	/* MoveIndirectRelPt */
SRP0[ ]	/* SetRefPoint0 */
MIRP[11101]	/* MoveIndirectRelPt */
SVTCA[1]	/* SetFreedomAndProjectionVectorToAxis */
MDAP[1]	/* MoveDirectAbsPt */
MIRP[11101]	/* MoveIndirectRelPt */
MDAP[1]	/* MoveDirectAbsPt */
MIRP[11101]	/* MoveIndirectRelPt */
MDAP[1]	/* MoveDirectAbsPt */
MIRP[11101]	/* MoveIndirectRelPt */
MDAP[1]	/* MoveDirectAbsPt */
MIRP[11101]	/* MoveIndirectRelPt */
MDAP[0]	/* MoveDirectAbsPt */
MDAP[0]	/* MoveDirectAbsPt */
SVTCA[0]	/* SetFreedomAndProjectionVectorToAxis */
IUP[1]	/* InterpolateUntPts */
IUP[0]	/* InterpolateUntPts */
SVTCA[1]	/* SetFreedomAndProjectionVectorToAxis */
MD[0]	/* MeasureDistance */
ROUND[00]	/* Round */
PUSHW[ ]	/* 2 values pushed */
21 44
MD[0]	/* MeasureDistance */
ROUND[00]	/* Round */
SUB[ ]	/* Subtract */
PUSHB[ ]	/* 1 value pushed */
64
GT[ ]	/* GreaterThan */
IF[ ]	/* If */
SHPIX[ ]	/* ShiftZoneByPixel */
SRP1[ ]	/* SetRefPoint1 */
SHZ[1]	/* ShiftZoneByLastPoint */
PUSHW[ ]	/* 2 values pushed */
44 -64
SHPIX[ ]	/* ShiftZoneByPixel */
EIF[ ]	/* EndIf */";
};
width = 864;
}
);
note = eight;
unicode = 56;
},
{
glyphname = nine;
lastChange = "2025-02-10 17:36:15 +0000";
layers = (
{
background = {
shapes = (
{
closed = 1;
nodes = (
(435,2,qs),
(774,2,o),
(774,480,qs),
(774,946,o),
(453,946,qs),
(319,946,o),
(236,856,qs),
(157,769,o),
(157,633,qs),
(157,510,o),
(228,424,qs),
(304,330,o),
(424,330,qs),
(524,330,o),
(591,408,q),
(574,148,o),
(449,148,qs),
(358,148,o),
(346,251,q),
(175,232,l),
(213,2,o)
);
},
{
closed = 1;
nodes = (
(454,460,qs),
(331,460,o),
(331,633,qs),
(331,799,o),
(445,799,qs),
(509,799,o),
(545,738,qs),
(575,688,o),
(575,619,qs),
(575,460,o)
);
}
);
};
layerId = m01;
shapes = (
{
closed = 1;
nodes = (
(661,2,o),
(774,161,o),
(774,480,cs),
(774,791,o),
(667,946,o),
(453,946,cs),
(364,946,o),
(291,916,o),
(236,856,cs),
(183,798,o),
(157,724,o),
(157,633,cs),
(157,551,o),
(181,481,o),
(228,424,cs),
(279,361,o),
(344,330,o),
(424,330,cs),
(491,330,o),
(546,356,o),
(591,408,c),
(580,235,o),
(532,148,o),
(449,148,cs),
(388,148,o),
(354,182,o),
(346,251,c),
(175,232,l),
(200,79,o),
(287,2,o),
(435,2,cs)
);
},
{
closed = 1;
nodes = (
(372,460,o),
(331,518,o),
(331,633,cs),
(331,744,o),
(369,799,o),
(445,799,cs),
(488,799,o),
(521,779,o),
(545,738,cs),
(565,705,o),
(575,665,o),
(575,619,cs),
(575,513,o),
(535,460,o),
(454,460,cs)
);
}
);
userData = {
assembly = "NPUSHB[ ]	/* 30 values pushed */
1 31 31 64 32 17 5 1 5 0 27 5 11 21 5 17 29 8 7 3 8 19 25 8 15 15 19 1 11 70
SROUND[ ]	/* SuperRound */
MDAP[1]	/* MoveDirectAbsPt */
SHZ[1]	/* ShiftZoneByLastPoint */
RTG[ ]	/* RoundToGrid */
SVTCA[0]	/* SetFreedomAndProjectionVectorToAxis */
MDAP[1]	/* MoveDirectAbsPt */
MDAP[1]	/* MoveDirectAbsPt */
SRP0[ ]	/* SetRefPoint0 */
MIRP[11101]	/* MoveIndirectRelPt */
SRP0[ ]	/* SetRefPoint0 */
MIRP[11101]	/* MoveIndirectRelPt */
MDAP[1]	/* MoveDirectAbsPt */
MIRP[11101]	/* MoveIndirectRelPt */
SVTCA[1]	/* SetFreedomAndProjectionVectorToAxis */
MDAP[1]	/* MoveDirectAbsPt */
MIRP[11101]	/* MoveIndirectRelPt */
MDAP[1]	/* MoveDirectAbsPt */
MIRP[11101]	/* MoveIndirectRelPt */
MDAP[0]	/* MoveDirectAbsPt */
MDAP[0]	/* MoveDirectAbsPt */
SVTCA[0]	/* SetFreedomAndProjectionVectorToAxis */
MDAP[0]	/* MoveDirectAbsPt */
MDAP[0]	/* MoveDirectAbsPt */
IUP[1]	/* InterpolateUntPts */
IUP[0]	/* InterpolateUntPts */
SVTCA[1]	/* SetFreedomAndProjectionVectorToAxis */
MD[0]	/* MeasureDistance */
ROUND[00]	/* Round */
PUSHW[ ]	/* 2 values pushed */
11 31
MD[0]	/* MeasureDistance */
ROUND[00]	/* Round */
SUB[ ]	/* Subtract */
PUSHB[ ]	/* 1 value pushed */
64
GT[ ]	/* GreaterThan */
IF[ ]	/* If */
SHPIX[ ]	/* ShiftZoneByPixel */
SRP1[ ]	/* SetRefPoint1 */
SHZ[1]	/* ShiftZoneByLastPoint */
PUSHW[ ]	/* 2 values pushed */
31 -64
SHPIX[ ]	/* ShiftZoneByPixel */
EIF[ ]	/* EndIf */";
};
width = 908;
}
);
note = nine;
unicode = 57;
},
{
glyphname = colon;
lastChange = "2025-02-10 17:36:15 +0000";
layers = (
{
background = {
shapes = (
{
closed = 1;
nodes = (
(307,575,o),
(264,575,qs),
(221,575,o),
(160,514,o),
(160,471,qs),
(160,428,o),
(221,367,o),
(264,367,qs),
(307,367,o),
(368,428,o),
(368,471,qs),
(368,514,o)
);
},
{
closed = 1;
nodes = (
(307,208,o),
(264,208,qs),
(221,208,o),
(160,147,o),
(160,104,qs),
(160,61,o),
(221,0,o),
(264,0,qs),
(307,0,o),
(368,61,o),
(368,104,qs),
(368,147,o)
);
}
);
};
layerId = m01;
shapes = (
{
closed = 1;
nodes = (
(321,367,o),
(368,414,o),
(368,471,cs),
(368,528,o),
(321,575,o),
(264,575,cs),
(207,575,o),
(160,528,o),
(160,471,cs),
(160,414,o),
(207,367,o),
(264,367,cs)
);
},
{
closed = 1;
nodes = (
(321,0,o),
(368,47,o),
(368,104,cs),
(368,161,o),
(321,208,o),
(264,208,cs),
(207,208,o),
(160,161,o),
(160,104,cs),
(160,47,o),
(207,0,o),
(264,0,cs)
);
}
);
userData = {
assembly = "NPUSHB[ ]	/* 23 values pushed */
1 24 24 64 25 0 18 6 5 12 0 3 7 9 21 7 15 9 15 1 1 6 70
SROUND[ ]	/* SuperRound */
MDAP[1]	/* MoveDirectAbsPt */
SHZ[1]	/* ShiftZoneByLastPoint */
RTG[ ]	/* RoundToGrid */
SVTCA[0]	/* SetFreedomAndProjectionVectorToAxis */
MIAP[1]	/* MoveIndirectAbsPt */
MDAP[1]	/* MoveDirectAbsPt */
SRP0[ ]	/* SetRefPoint0 */
MIRP[11101]	/* MoveIndirectRelPt */
SRP0[ ]	/* SetRefPoint0 */
MIRP[11101]	/* MoveIndirectRelPt */
SVTCA[1]	/* SetFreedomAndProjectionVectorToAxis */
MDAP[1]	/* MoveDirectAbsPt */
ALIGNRP[ ]	/* AlignRelativePt */
MIRP[11101]	/* MoveIndirectRelPt */
ALIGNRP[ ]	/* AlignRelativePt */
SVTCA[0]	/* SetFreedomAndProjectionVectorToAxis */
IUP[1]	/* InterpolateUntPts */
IUP[0]	/* InterpolateUntPts */
SVTCA[1]	/* SetFreedomAndProjectionVectorToAxis */
MD[0]	/* MeasureDistance */
ROUND[00]	/* Round */
PUSHW[ ]	/* 2 values pushed */
6 24
MD[0]	/* MeasureDistance */
ROUND[00]	/* Round */
SUB[ ]	/* Subtract */
PUSHB[ ]	/* 1 value pushed */
64
GT[ ]	/* GreaterThan */
IF[ ]	/* If */
SHPIX[ ]	/* ShiftZoneByPixel */
SRP1[ ]	/* SetRefPoint1 */
SHZ[1]	/* ShiftZoneByLastPoint */
PUSHW[ ]	/* 2 values pushed */
24 -64
SHPIX[ ]	/* ShiftZoneByPixel */
EIF[ ]	/* EndIf */";
};
width = 515;
}
);
note = colon;
unicode = 58;
},
{
glyphname = semicolon;
lastChange = "2025-02-10 17:36:15 +0000";
layers = (
{
background = {
shapes = (
{
closed = 1;
nodes = (
(160,428,o),
(221,367,o),
(264,367,qs),
(307,367,o),
(368,428,o),
(368,471,q),
(160,471,l)
);
},
{
closed = 1;
nodes = (
(344,168,qs),
(315,208,o),
(263,208,qs),
(219,208,o),
(160,146,o),
(160,102,qs),
(160,15,o),
(238,-5,q),
(238,-79,o),
(149,-121,q),
(177,-140,o),
(177,-263,q),
(371,-113,o),
(371,80,qs),
(371,133,o)
);
},
{
closed = 1;
nodes = (
(313,584,o),
(268,584,qs),
(223,584,o),
(160,521,o),
(160,476,qs),
(160,431,o),
(223,368,o),
(268,368,qs),
(313,368,o),
(376,431,o),
(376,476,qs),
(376,521,o)
);
}
);
};
layerId = m01;
shapes = (
{
closed = 1;
nodes = (
(306,-163,o),
(371,-49,o),
(371,80,cs),
(371,115,o),
(362,145,o),
(344,168,cs),
(325,195,o),
(298,208,o),
(263,208,cs),
(204,208,o),
(160,161,o),
(160,102,cs),
(160,44,o),
(186,8,o),
(238,-5,c),
(238,-54,o),
(208,-93,o),
(149,-121,c),
(168,-134,o),
(177,-181,o),
(177,-263,c)
);
},
{
closed = 1;
nodes = (
(321,367,o),
(368,414,o),
(368,471,c),
(160,471,l),
(160,414,o),
(207,367,o),
(264,367,cs)
);
},
{
closed = 1;
nodes = (
(328,368,o),
(376,416,o),
(376,476,cs),
(376,536,o),
(328,584,o),
(268,584,cs),
(208,584,o),
(160,536,o),
(160,476,cs),
(160,416,o),
(208,368,o),
(268,368,cs)
);
}
);
userData = {
assembly = "NPUSHB[ ]	/* 31 values pushed */
1 34 34 64 35 22 18 6 0 13 11 22 5 6 7 5 6 28 15 6 5 0 25 3 7 31 31 9 1 11 70
SROUND[ ]	/* SuperRound */
MDAP[1]	/* MoveDirectAbsPt */
SHZ[1]	/* ShiftZoneByLastPoint */
RTG[ ]	/* RoundToGrid */
SVTCA[0]	/* SetFreedomAndProjectionVectorToAxis */
MDAP[1]	/* MoveDirectAbsPt */
MDAP[1]	/* MoveDirectAbsPt */
SRP0[ ]	/* SetRefPoint0 */
MIRP[11101]	/* MoveIndirectRelPt */
ALIGNRP[ ]	/* AlignRelativePt */
SVTCA[1]	/* SetFreedomAndProjectionVectorToAxis */
MDAP[1]	/* MoveDirectAbsPt */
MIRP[11101]	/* MoveIndirectRelPt */
ALIGNRP[ ]	/* AlignRelativePt */
ALIGNRP[ ]	/* AlignRelativePt */
SRP0[ ]	/* SetRefPoint0 */
MIRP[11101]	/* MoveIndirectRelPt */
SRP0[ ]	/* SetRefPoint0 */
MIRP[11101]	/* MoveIndirectRelPt */
MDAP[0]	/* MoveDirectAbsPt */
MDAP[0]	/* MoveDirectAbsPt */
SVTCA[0]	/* SetFreedomAndProjectionVectorToAxis */
MDAP[0]	/* MoveDirectAbsPt */
MDAP[0]	/* MoveDirectAbsPt */
MDAP[0]	/* MoveDirectAbsPt */
IUP[1]	/* InterpolateUntPts */
IUP[0]	/* InterpolateUntPts */
SVTCA[1]	/* SetFreedomAndProjectionVectorToAxis */
MD[0]	/* MeasureDistance */
ROUND[00]	/* Round */
PUSHW[ ]	/* 2 values pushed */
11 34
MD[0]	/* MeasureDistance */
ROUND[00]	/* Round */
SUB[ ]	/* Subtract */
PUSHB[ ]	/* 1 value pushed */
64
GT[ ]	/* GreaterThan */
IF[ ]	/* If */
SHPIX[ ]	/* ShiftZoneByPixel */
SRP1[ ]	/* SetRefPoint1 */
SHZ[1]	/* ShiftZoneByLastPoint */
PUSHW[ ]	/* 2 values pushed */
34 -64
SHPIX[ ]	/* ShiftZoneByPixel */
EIF[ ]	/* EndIf */";
};
width = 515;
}
);
note = semicolon;
unicode = 59;
},
{
glyphname = less;
lastChange = "2025-02-10 17:36:15 +0000";
layers = (
{
background = {
shapes = (
{
closed = 1;
nodes = (
(349,326,l),
(790,495,l),
(790,675,l),
(157,401,l),
(157,248,l),
(790,-27,l),
(790,151,l)
);
}
);
};
layerId = m01;
shapes = (
{
closed = 1;
nodes = (
(790,151,l),
(349,326,l),
(790,495,l),
(790,675,l),
(157,401,l),
(157,248,l),
(790,-27,l)
);
}
);
userData = {
assembly = "NPUSHB[ ]	/* 19 values pushed */
1 7 7 64 8 0 6 5 4 3 2 1 0 3 0 1 1 1 70
SROUND[ ]	/* SuperRound */
MDAP[1]	/* MoveDirectAbsPt */
SHZ[1]	/* ShiftZoneByLastPoint */
RTG[ ]	/* RoundToGrid */
SVTCA[0]	/* SetFreedomAndProjectionVectorToAxis */
MIAP[1]	/* MoveIndirectAbsPt */
MDAP[1]	/* MoveDirectAbsPt */
SVTCA[1]	/* SetFreedomAndProjectionVectorToAxis */
MDAP[0]	/* MoveDirectAbsPt */
MDAP[0]	/* MoveDirectAbsPt */
MDAP[0]	/* MoveDirectAbsPt */
MDAP[0]	/* MoveDirectAbsPt */
MDAP[0]	/* MoveDirectAbsPt */
MDAP[0]	/* MoveDirectAbsPt */
MDAP[0]	/* MoveDirectAbsPt */
SVTCA[0]	/* SetFreedomAndProjectionVectorToAxis */
IUP[1]	/* InterpolateUntPts */
IUP[0]	/* InterpolateUntPts */
SVTCA[1]	/* SetFreedomAndProjectionVectorToAxis */
MD[0]	/* MeasureDistance */
ROUND[00]	/* Round */
PUSHW[ ]	/* 2 values pushed */
1 7
MD[0]	/* MeasureDistance */
ROUND[00]	/* Round */
SUB[ ]	/* Subtract */
PUSHB[ ]	/* 1 value pushed */
64
GT[ ]	/* GreaterThan */
IF[ ]	/* If */
SHPIX[ ]	/* ShiftZoneByPixel */
SRP1[ ]	/* SetRefPoint1 */
SHZ[1]	/* ShiftZoneByLastPoint */
PUSHW[ ]	/* 2 values pushed */
7 -64
SHPIX[ ]	/* ShiftZoneByPixel */
EIF[ ]	/* EndIf */";
};
width = 936;
}
);
note = less;
unicode = 60;
},
{
glyphname = equal;
lastChange = "2025-02-10 17:36:15 +0000";
layers = (
{
background = {
shapes = (
{
closed = 1;
nodes = (
(800,565,l),
(154,565,l),
(154,403,l),
(800,403,l)
);
},
{
closed = 1;
nodes = (
(800,286,l),
(154,286,l),
(154,123,l),
(800,123,l)
);
}
);
};
layerId = m01;
shapes = (
{
closed = 1;
nodes = (
(800,123,l),
(800,286,l),
(154,286,l),
(154,123,l)
);
},
{
closed = 1;
nodes = (
(800,403,l),
(800,565,l),
(154,565,l),
(154,403,l)
);
}
);
userData = {
assembly = "NPUSHB[ ]	/* 32 values pushed */
1 8 8 64 9 2 5 4 1 3 0 5 7 6 3 3 2 3 0 8 1 6 5 8 4 2 1 7 4 1 0 70
SROUND[ ]	/* SuperRound */
MDAP[1]	/* MoveDirectAbsPt */
SHZ[1]	/* ShiftZoneByLastPoint */
RTG[ ]	/* RoundToGrid */
SVTCA[0]	/* SetFreedomAndProjectionVectorToAxis */
MDAP[1]	/* MoveDirectAbsPt */
ALIGNRP[ ]	/* AlignRelativePt */
MDAP[1]	/* MoveDirectAbsPt */
ALIGNRP[ ]	/* AlignRelativePt */
SRP0[ ]	/* SetRefPoint0 */
MIRP[11101]	/* MoveIndirectRelPt */
ALIGNRP[ ]	/* AlignRelativePt */
SRP0[ ]	/* SetRefPoint0 */
MIRP[11101]	/* MoveIndirectRelPt */
ALIGNRP[ ]	/* AlignRelativePt */
SVTCA[1]	/* SetFreedomAndProjectionVectorToAxis */
MDAP[1]	/* MoveDirectAbsPt */
SLOOP[ ]	/* SetLoopVariable */
ALIGNRP[ ]	/* AlignRelativePt */
MIRP[11101]	/* MoveIndirectRelPt */
SLOOP[ ]	/* SetLoopVariable */
ALIGNRP[ ]	/* AlignRelativePt */
SVTCA[0]	/* SetFreedomAndProjectionVectorToAxis */
IUP[1]	/* InterpolateUntPts */
IUP[0]	/* InterpolateUntPts */
SVTCA[1]	/* SetFreedomAndProjectionVectorToAxis */
MD[0]	/* MeasureDistance */
ROUND[00]	/* Round */
PUSHW[ ]	/* 2 values pushed */
0 8
MD[0]	/* MeasureDistance */
ROUND[00]	/* Round */
SUB[ ]	/* Subtract */
PUSHB[ ]	/* 1 value pushed */
64
GT[ ]	/* GreaterThan */
IF[ ]	/* If */
SHPIX[ ]	/* ShiftZoneByPixel */
SRP1[ ]	/* SetRefPoint1 */
SHZ[1]	/* ShiftZoneByLastPoint */
PUSHW[ ]	/* 2 values pushed */
8 -64
SHPIX[ ]	/* ShiftZoneByPixel */
EIF[ ]	/* EndIf */";
};
width = 979;
}
);
note = equal;
unicode = 61;
},
{
glyphname = greater;
lastChange = "2025-02-10 17:36:15 +0000";
layers = (
{
background = {
shapes = (
{
closed = 1;
nodes = (
(785,434,l),
(151,708,l),
(151,531,l),
(593,359,l),
(151,185,l),
(151,7,l),
(785,283,l)
);
}
);
};
layerId = m01;
shapes = (
{
closed = 1;
nodes = (
(785,283,l),
(785,434,l),
(151,708,l),
(151,531,l),
(593,359,l),
(151,185,l),
(151,7,l)
);
}
);
userData = {
assembly = "NPUSHB[ ]	/* 18 values pushed */
1 7 7 64 8 5 6 5 4 3 2 1 0 4 0 1 0 70
SROUND[ ]	/* SuperRound */
MDAP[1]	/* MoveDirectAbsPt */
SHZ[1]	/* ShiftZoneByLastPoint */
RTG[ ]	/* RoundToGrid */
SVTCA[0]	/* SetFreedomAndProjectionVectorToAxis */
MDAP[1]	/* MoveDirectAbsPt */
MDAP[1]	/* MoveDirectAbsPt */
SVTCA[1]	/* SetFreedomAndProjectionVectorToAxis */
MDAP[0]	/* MoveDirectAbsPt */
MDAP[0]	/* MoveDirectAbsPt */
MDAP[0]	/* MoveDirectAbsPt */
MDAP[0]	/* MoveDirectAbsPt */
MDAP[0]	/* MoveDirectAbsPt */
MDAP[0]	/* MoveDirectAbsPt */
MDAP[0]	/* MoveDirectAbsPt */
SVTCA[0]	/* SetFreedomAndProjectionVectorToAxis */
IUP[1]	/* InterpolateUntPts */
IUP[0]	/* InterpolateUntPts */
SVTCA[1]	/* SetFreedomAndProjectionVectorToAxis */
MD[0]	/* MeasureDistance */
ROUND[00]	/* Round */
PUSHW[ ]	/* 2 values pushed */
0 7
MD[0]	/* MeasureDistance */
ROUND[00]	/* Round */
SUB[ ]	/* Subtract */
PUSHB[ ]	/* 1 value pushed */
64
GT[ ]	/* GreaterThan */
IF[ ]	/* If */
SHPIX[ ]	/* ShiftZoneByPixel */
SRP1[ ]	/* SetRefPoint1 */
SHZ[1]	/* ShiftZoneByLastPoint */
PUSHW[ ]	/* 2 values pushed */
7 -64
SHPIX[ ]	/* ShiftZoneByPixel */
EIF[ ]	/* EndIf */";
};
width = 950;
}
);
note = greater;
unicode = 62;
},
{
glyphname = question;
lastChange = "2025-02-10 17:36:15 +0000";
layers = (
{
background = {
shapes = (
{
closed = 1;
nodes = (
(258,857,o),
(352,857,qs),
(467,857,o),
(616,719,o),
(616,605,qs),
(616,515,o),
(534,452,qs),
(489,417,o),
(372,367,q),
(375,267,o),
(342,267,qs),
(311,267,o),
(311,307,qs),
(311,407,l),
(557,498,o),
(557,604,qs),
(557,689,o),
(434,797,o),
(347,797,qs),
(261,797,o),
(157,746,q),
(159,691,o),
(158,686,qs),
(154,645,o),
(127,645,qs),
(97,645,o),
(97,685,qs),
(97,786,l)
);
},
{
closed = 1;
nodes = (
(279,128,o),
(310,128,qs),
(370,128,ls),
(401,128,o),
(445,84,o),
(445,54,qs),
(445,23,o),
(401,-21,o),
(370,-21,qs),
(310,-21,ls),
(280,-21,o),
(236,23,o),
(236,53,qs),
(236,84,o)
);
}
);
};
layerId = m01;
shapes = (
{
closed = 1;
nodes = (
(364,267,o),
(374,300,o),
(372,367,c),
(450,400,o),
(504,429,o),
(534,452,cs),
(589,494,o),
(616,545,o),
(616,605,cs),
(616,757,o),
(505,857,o),
(352,857,cs),
(289,857,o),
(204,833,o),
(97,786,c),
(97,685,ls),
(97,658,o),
(107,645,o),
(127,645,cs),
(145,645,o),
(155,659,o),
(158,686,c),
(157,746,l),
(226,780,o),
(290,797,o),
(347,797,cs),
(463,797,o),
(557,717,o),
(557,604,cs),
(557,533,o),
(475,468,o),
(311,407,c),
(311,307,ls),
(311,280,o),
(321,267,o),
(342,267,cs)
);
},
{
closed = 1;
nodes = (
(370,-21,ls),
(411,-21,o),
(445,13,o),
(445,54,cs),
(445,94,o),
(411,128,o),
(370,128,cs),
(310,128,ls),
(269,128,o),
(236,94,o),
(236,53,cs),
(236,13,o),
(270,-21,o),
(310,-21,cs)
);
}
);
userData = {
assembly = "NPUSHB[ ]	/* 29 values pushed */
1 42 42 64 43 22 2 35 28 27 22 14 13 11 6 4 0 16 8 39 38 25 32 31 8 2 1 0 70
SROUND[ ]	/* SuperRound */
MDAP[1]	/* MoveDirectAbsPt */
SHZ[1]	/* ShiftZoneByLastPoint */
RTG[ ]	/* RoundToGrid */
SVTCA[0]	/* SetFreedomAndProjectionVectorToAxis */
MIAP[1]	/* MoveIndirectAbsPt */
MDAP[1]	/* MoveDirectAbsPt */
ALIGNRP[ ]	/* AlignRelativePt */
MDAP[1]	/* MoveDirectAbsPt */
MDAP[1]	/* MoveDirectAbsPt */
ALIGNRP[ ]	/* AlignRelativePt */
MIRP[11101]	/* MoveIndirectRelPt */
SVTCA[1]	/* SetFreedomAndProjectionVectorToAxis */
MDAP[0]	/* MoveDirectAbsPt */
MDAP[0]	/* MoveDirectAbsPt */
MDAP[0]	/* MoveDirectAbsPt */
MDAP[0]	/* MoveDirectAbsPt */
MDAP[0]	/* MoveDirectAbsPt */
MDAP[0]	/* MoveDirectAbsPt */
MDAP[0]	/* MoveDirectAbsPt */
MDAP[0]	/* MoveDirectAbsPt */
MDAP[0]	/* MoveDirectAbsPt */
MDAP[0]	/* MoveDirectAbsPt */
SVTCA[0]	/* SetFreedomAndProjectionVectorToAxis */
MDAP[0]	/* MoveDirectAbsPt */
IUP[1]	/* InterpolateUntPts */
IUP[0]	/* InterpolateUntPts */
SVTCA[1]	/* SetFreedomAndProjectionVectorToAxis */
MD[0]	/* MeasureDistance */
ROUND[00]	/* Round */
PUSHW[ ]	/* 2 values pushed */
0 42
MD[0]	/* MeasureDistance */
ROUND[00]	/* Round */
SUB[ ]	/* Subtract */
PUSHB[ ]	/* 1 value pushed */
64
GT[ ]	/* GreaterThan */
IF[ ]	/* If */
SHPIX[ ]	/* ShiftZoneByPixel */
SRP1[ ]	/* SetRefPoint1 */
SHZ[1]	/* ShiftZoneByLastPoint */
PUSHW[ ]	/* 2 values pushed */
42 -64
SHPIX[ ]	/* ShiftZoneByPixel */
EIF[ ]	/* EndIf */";
};
width = 693;
}
);
note = question;
unicode = 63;
},
{
glyphname = at;
lastChange = "2025-02-10 17:36:15 +0000";
layers = (
{
background = {
shapes = (
{
closed = 1;
nodes = (
(1106,469,qs),
(1035,469,l),
(1036,962,ls),
(1036,1074,o),
(758,1297,o),
(617,1297,qs),
(419,1297,o),
(278,1110,qs),
(150,940,o),
(150,744,qs),
(150,408,ls),
(150,211,o),
(277,48,qs),
(417,-130,o),
(618,-130,qs),
(855,-130,o),
(949,-69,qs),
(1009,-30,o),
(1009,1,qs),
(1009,41,o),
(968,41,qs),
(954,41,o),
(935,25,qs),
(850,-46,o),
(630,-46,qs),
(460,-46,o),
(342,105,qs),
(234,243,o),
(234,408,qs),
(234,739,ls),
(234,901,o),
(340,1048,qs),
(457,1212,o),
(621,1212,qs),
(737,1212,o),
(844,1139,qs),
(959,1062,o),
(959,962,qs),
(959,839,l),
(821,867,o),
(713,867,qs),
(561,867,o),
(452,807,qs),
(316,733,o),
(316,593,qs),
(316,478,o),
(407,413,qs),
(487,355,o),
(606,355,qs),
(794,355,o),
(959,494,q),
(959,384,l),
(1106,384,ls),
(1162,384,o),
(1162,426,qs),
(1162,469,o)
);
},
{
closed = 1;
nodes = (
(603,430,qs),
(516,430,o),
(459,467,qs),
(392,511,o),
(392,593,qs),
(392,696,o),
(512,750,qs),
(604,791,o),
(721,791,qs),
(856,791,o),
(959,762,q),
(959,595,l),
(788,430,o)
);
}
);
};
layerId = m01;
shapes = (
{
closed = 1;
nodes = (
(776,-130,o),
(886,-110,o),
(949,-69,cs),
(989,-43,o),
(1009,-20,o),
(1009,1,cs),
(1009,28,o),
(995,41,o),
(968,41,cs),
(959,41,o),
(948,36,o),
(935,25,cs),
(878,-22,o),
(777,-46,o),
(630,-46,cs),
(517,-46,o),
(421,4,o),
(342,105,cs),
(270,197,o),
(234,298,o),
(234,408,cs),
(234,739,ls),
(234,847,o),
(269,950,o),
(340,1048,cs),
(418,1157,o),
(512,1212,o),
(621,1212,cs),
(698,1212,o),
(773,1188,o),
(844,1139,cs),
(921,1088,o),
(959,1029,o),
(959,962,cs),
(959,839,l),
(867,858,o),
(785,867,o),
(713,867,cs),
(612,867,o),
(525,847,o),
(452,807,cs),
(361,758,o),
(316,686,o),
(316,593,cs),
(316,516,o),
(346,456,o),
(407,413,cs),
(460,374,o),
(527,355,o),
(606,355,cs),
(731,355,o),
(849,401,o),
(959,494,c),
(959,384,l),
(1106,384,ls),
(1143,384,o),
(1162,398,o),
(1162,426,cs),
(1162,455,o),
(1143,469,o),
(1106,469,cs),
(1035,469,l),
(1036,962,ls),
(1036,1111,o),
(805,1297,o),
(617,1297,cs),
(485,1297,o),
(372,1235,o),
(278,1110,cs),
(193,997,o),
(150,875,o),
(150,744,cs),
(150,408,ls),
(150,277,o),
(192,157,o),
(277,48,cs),
(370,-71,o),
(484,-130,o),
(618,-130,cs)
);
},
{
closed = 1;
nodes = (
(545,430,o),
(497,442,o),
(459,467,cs),
(414,496,o),
(392,538,o),
(392,593,cs),
(392,662,o),
(432,714,o),
(512,750,cs),
(573,777,o),
(643,791,o),
(721,791,cs),
(811,791,o),
(890,781,o),
(959,762,c),
(959,595,l),
(845,485,o),
(726,430,o),
(603,430,cs)
);
}
);
userData = {
assembly = "NPUSHB[ ]	/* 53 values pushed */
1 69 69 64 70 0 34 16 4 36 0 5 3 57 56 17 16 4 5 3 6 52 53 63 6 10 26 25 6 45 44 54 53 8 3 2 67 8 6 21 8 49 30 8 40 59 8 14 49 40 1 44 70
SROUND[ ]	/* SuperRound */
MDAP[1]	/* MoveDirectAbsPt */
SHZ[1]	/* ShiftZoneByLastPoint */
RTG[ ]	/* RoundToGrid */
SVTCA[0]	/* SetFreedomAndProjectionVectorToAxis */
MDAP[1]	/* MoveDirectAbsPt */
MDAP[1]	/* MoveDirectAbsPt */
MDAP[1]	/* MoveDirectAbsPt */
MIRP[11101]	/* MoveIndirectRelPt */
SRP0[ ]	/* SetRefPoint0 */
MIRP[11101]	/* MoveIndirectRelPt */
SRP0[ ]	/* SetRefPoint0 */
MIRP[11101]	/* MoveIndirectRelPt */
MDAP[1]	/* MoveDirectAbsPt */
MIRP[11101]	/* MoveIndirectRelPt */
MDAP[1]	/* MoveDirectAbsPt */
ALIGNRP[ ]	/* AlignRelativePt */
MIRP[11101]	/* MoveIndirectRelPt */
ALIGNRP[ ]	/* AlignRelativePt */
SVTCA[1]	/* SetFreedomAndProjectionVectorToAxis */
MDAP[1]	/* MoveDirectAbsPt */
ALIGNRP[ ]	/* AlignRelativePt */
MIRP[11101]	/* MoveIndirectRelPt */
ALIGNRP[ ]	/* AlignRelativePt */
MDAP[1]	/* MoveDirectAbsPt */
MIRP[11101]	/* MoveIndirectRelPt */
MDAP[1]	/* MoveDirectAbsPt */
ALIGNRP[ ]	/* AlignRelativePt */
MIRP[11101]	/* MoveIndirectRelPt */
SLOOP[ ]	/* SetLoopVariable */
ALIGNRP[ ]	/* AlignRelativePt */
SRP0[ ]	/* SetRefPoint0 */
MIRP[11101]	/* MoveIndirectRelPt */
MDAP[0]	/* MoveDirectAbsPt */
SVTCA[0]	/* SetFreedomAndProjectionVectorToAxis */
MDAP[0]	/* MoveDirectAbsPt */
MDAP[0]	/* MoveDirectAbsPt */
MDAP[0]	/* MoveDirectAbsPt */
IUP[1]	/* InterpolateUntPts */
IUP[0]	/* InterpolateUntPts */
SVTCA[1]	/* SetFreedomAndProjectionVectorToAxis */
MD[0]	/* MeasureDistance */
ROUND[00]	/* Round */
PUSHW[ ]	/* 2 values pushed */
44 69
MD[0]	/* MeasureDistance */
ROUND[00]	/* Round */
SUB[ ]	/* Subtract */
PUSHB[ ]	/* 1 value pushed */
64
GT[ ]	/* GreaterThan */
IF[ ]	/* If */
SHPIX[ ]	/* ShiftZoneByPixel */
SRP1[ ]	/* SetRefPoint1 */
SHZ[1]	/* ShiftZoneByLastPoint */
PUSHW[ ]	/* 2 values pushed */
69 -64
SHPIX[ ]	/* ShiftZoneByPixel */
EIF[ ]	/* EndIf */";
};
width = 1307;
}
);
note = at;
unicode = 64;
},
{
glyphname = A;
lastChange = "2025-02-10 17:36:15 +0000";
layers = (
{
background = {
shapes = (
{
closed = 1;
nodes = (
(1230,84,qs),
(1159,84,l),
(753,1170,l),
(613,1171,l),
(207,84,l),
(136,84,ls),
(80,84,o),
(80,41,qs),
(80,-1,o),
(136,-1,qs),
(362,-1,ls),
(418,-1,o),
(418,41,qs),
(418,84,o),
(362,84,qs),
(301,84,l),
(408,391,l),
(960,391,l),
(1075,84,l),
(1004,84,ls),
(948,84,o),
(948,41,qs),
(948,-1,o),
(1004,-1,qs),
(1230,-1,ls),
(1286,-1,o),
(1286,41,qs),
(1286,84,o)
);
},
{
closed = 1;
nodes = (
(665,1086,l),
(696,1086,l),
(928,475,l),
(440,475,l)
);
}
);
};
layerId = m01;
shapes = (
{
closed = 1;
nodes = (
(362,-1,ls),
(399,-1,o),
(418,13,o),
(418,41,cs),
(418,70,o),
(399,84,o),
(362,84,cs),
(301,84,l),
(408,391,l),
(960,391,l),
(1075,84,l),
(1004,84,ls),
(967,84,o),
(948,70,o),
(948,41,cs),
(948,13,o),
(967,-1,o),
(1004,-1,cs),
(1230,-1,ls),
(1267,-1,o),
(1286,13,o),
(1286,41,cs),
(1286,70,o),
(1267,84,o),
(1230,84,cs),
(1159,84,l),
(753,1170,l),
(613,1171,l),
(207,84,l),
(136,84,ls),
(99,84,o),
(80,70,o),
(80,41,cs),
(80,13,o),
(99,-1,o),
(136,-1,cs)
);
},
{
closed = 1;
nodes = (
(665,1086,l),
(696,1086,l),
(928,475,l),
(440,475,l)
);
}
);
userData = {
assembly = "NPUSHB[ ]	/* 80 values pushed */
1 32 32 64 33 0 31 28 11 8 31 31 28 10 9 10 30 11 9 23 23 24 22 22 23 8 9 9 9 10 25 24 24 25 28 31 28 29 9 25 24 24 25 5 5 0 14 5 19 26 25 22 21 12 11 8 7 7 8 2 31 28 8 10 9 30 29 8 24 23 3 17 16 3 3 2 1 1 19 70
SROUND[ ]	/* SuperRound */
MDAP[1]	/* MoveDirectAbsPt */
SHZ[1]	/* ShiftZoneByLastPoint */
RTG[ ]	/* RoundToGrid */
SVTCA[0]	/* SetFreedomAndProjectionVectorToAxis */
MIAP[1]	/* MoveIndirectAbsPt */
SLOOP[ ]	/* SetLoopVariable */
ALIGNRP[ ]	/* AlignRelativePt */
MIAP[1]	/* MoveIndirectAbsPt */
MDAP[1]	/* MoveDirectAbsPt */
MIRP[11101]	/* MoveIndirectRelPt */
ALIGNRP[ ]	/* AlignRelativePt */
MDAP[1]	/* MoveDirectAbsPt */
ALIGNRP[ ]	/* AlignRelativePt */
MIRP[11101]	/* MoveIndirectRelPt */
ALIGNRP[ ]	/* AlignRelativePt */
SRP0[ ]	/* SetRefPoint0 */
MIRP[11101]	/* MoveIndirectRelPt */
SLOOP[ ]	/* SetLoopVariable */
ALIGNRP[ ]	/* AlignRelativePt */
SVTCA[1]	/* SetFreedomAndProjectionVectorToAxis */
MDAP[1]	/* MoveDirectAbsPt */
MIRP[11101]	/* MoveIndirectRelPt */
MDAP[1]	/* MoveDirectAbsPt */
MIRP[11101]	/* MoveIndirectRelPt */
SDPVTL[1]	/* SetDualPVectorToLine */
MDAP[0]	/* MoveDirectAbsPt */
SFVTPV[ ]	/* SetFVectorToPVector */
MDRP[00100]	/* MoveDirectRelPt */
SFVTPV[ ]	/* SetFVectorToPVector */
MIRP[11100]	/* MoveIndirectRelPt */
SFVTL[0]	/* SetFVectorToLine */
MDRP[00100]	/* MoveDirectRelPt */
SDPVTL[1]	/* SetDualPVectorToLine */
MDAP[0]	/* MoveDirectAbsPt */
SFVTPV[ ]	/* SetFVectorToPVector */
MDRP[00100]	/* MoveDirectRelPt */
SFVTL[0]	/* SetFVectorToLine */
MIRP[11100]	/* MoveIndirectRelPt */
SFVTPV[ ]	/* SetFVectorToPVector */
MDRP[00100]	/* MoveDirectRelPt */
SDPVTL[1]	/* SetDualPVectorToLine */
MDAP[0]	/* MoveDirectAbsPt */
SFVTL[0]	/* SetFVectorToLine */
MDRP[00100]	/* MoveDirectRelPt */
SFVTPV[ ]	/* SetFVectorToPVector */
MIRP[11100]	/* MoveIndirectRelPt */
SFVTPV[ ]	/* SetFVectorToPVector */
MDRP[00100]	/* MoveDirectRelPt */
SFVTL[0]	/* SetFVectorToLine */
MDRP[00100]	/* MoveDirectRelPt */
SFVTL[0]	/* SetFVectorToLine */
MDRP[00100]	/* MoveDirectRelPt */
SVTCA[1]	/* SetFreedomAndProjectionVectorToAxis */
MDAP[0]	/* MoveDirectAbsPt */
MDAP[0]	/* MoveDirectAbsPt */
MDAP[0]	/* MoveDirectAbsPt */
MDAP[0]	/* MoveDirectAbsPt */
SVTCA[0]	/* SetFreedomAndProjectionVectorToAxis */
IUP[1]	/* InterpolateUntPts */
IUP[0]	/* InterpolateUntPts */
SVTCA[1]	/* SetFreedomAndProjectionVectorToAxis */
MD[0]	/* MeasureDistance */
ROUND[00]	/* Round */
PUSHW[ ]	/* 2 values pushed */
19 32
MD[0]	/* MeasureDistance */
ROUND[00]	/* Round */
SUB[ ]	/* Subtract */
PUSHB[ ]	/* 1 value pushed */
64
GT[ ]	/* GreaterThan */
IF[ ]	/* If */
SHPIX[ ]	/* ShiftZoneByPixel */
SRP1[ ]	/* SetRefPoint1 */
SHZ[1]	/* ShiftZoneByLastPoint */
PUSHW[ ]	/* 2 values pushed */
32 -64
SHPIX[ ]	/* ShiftZoneByPixel */
EIF[ ]	/* EndIf */";
};
width = 1356;
}
);
note = A;
unicode = 65;
},
{
glyphname = B;
lastChange = "2025-02-10 17:36:15 +0000";
layers = (
{
background = {
shapes = (
{
closed = 1;
nodes = (
(881,618,q),
(1046,713,o),
(1046,867,qs),
(1046,1004,o),
(935,1090,qs),
(833,1170,o),
(692,1170,qs),
(206,1171,ls),
(150,1171,o),
(150,1129,qs),
(150,1086,o),
(206,1086,qs),
(277,1086,l),
(277,84,l),
(206,84,ls),
(150,84,o),
(150,41,qs),
(150,-1,o),
(206,-1,qs),
(792,0,ls),
(930,0,o),
(1030,91,qs),
(1134,185,o),
(1134,321,qs),
(1134,527,o)
);
},
{
closed = 1;
nodes = (
(860,702,qs),
(776,650,o),
(658,650,qs),
(361,650,l),
(361,1086,l),
(694,1086,ls),
(794,1086,o),
(872,1031,qs),
(961,970,o),
(961,874,qs),
(961,763,o)
);
},
{
closed = 1;
nodes = (
(967,149,qs),
(890,84,o),
(786,84,qs),
(361,84,l),
(361,565,l),
(663,565,ls),
(914,565,o),
(1005,443,qs),
(1049,383,o),
(1049,319,qs),
(1049,217,o)
);
}
);
};
layerId = m01;
shapes = (
{
closed = 1;
nodes = (
(792,0,ls),
(884,0,o),
(963,30,o),
(1030,91,cs),
(1099,154,o),
(1134,230,o),
(1134,321,cs),
(1134,458,o),
(1050,557,o),
(881,618,c),
(991,681,o),
(1046,764,o),
(1046,867,cs),
(1046,958,o),
(1009,1033,o),
(935,1090,cs),
(867,1143,o),
(786,1170,o),
(692,1170,cs),
(206,1171,ls),
(169,1171,o),
(150,1157,o),
(150,1129,cs),
(150,1100,o),
(169,1086,o),
(206,1086,cs),
(277,1086,l),
(277,84,l),
(206,84,ls),
(169,84,o),
(150,70,o),
(150,41,cs),
(150,13,o),
(169,-1,o),
(206,-1,cs)
);
},
{
closed = 1;
nodes = (
(361,565,l),
(663,565,ls),
(830,565,o),
(944,524,o),
(1005,443,cs),
(1034,403,o),
(1049,362,o),
(1049,319,cs),
(1049,251,o),
(1022,194,o),
(967,149,cs),
(916,106,o),
(855,84,o),
(786,84,cs),
(361,84,l)
);
},
{
closed = 1;
nodes = (
(361,1086,l),
(694,1086,ls),
(761,1086,o),
(820,1068,o),
(872,1031,cs),
(931,990,o),
(961,938,o),
(961,874,cs),
(961,800,o),
(927,743,o),
(860,702,cs),
(804,667,o),
(737,650,o),
(658,650,cs),
(361,650,l)
);
}
);
userData = {
assembly = "NPUSHB[ ]	/* 49 values pushed */
1 47 47 64 48 0 23 14 7 42 41 31 3 30 6 11 10 25 6 21 36 6 0 43 42 10 3 9 8 4 30 29 12 3 11 8 17 41 40 8 32 31 16 3 5 1 1 7 70
SROUND[ ]	/* SuperRound */
MDAP[1]	/* MoveDirectAbsPt */
SHZ[1]	/* ShiftZoneByLastPoint */
RTG[ ]	/* RoundToGrid */
SVTCA[0]	/* SetFreedomAndProjectionVectorToAxis */
MIAP[1]	/* MoveIndirectAbsPt */
MIAP[1]	/* MoveIndirectAbsPt */
MDAP[1]	/* MoveDirectAbsPt */
ALIGNRP[ ]	/* AlignRelativePt */
MIRP[11101]	/* MoveIndirectRelPt */
ALIGNRP[ ]	/* AlignRelativePt */
MDAP[1]	/* MoveDirectAbsPt */
MIRP[11101]	/* MoveIndirectRelPt */
SLOOP[ ]	/* SetLoopVariable */
ALIGNRP[ ]	/* AlignRelativePt */
MDAP[1]	/* MoveDirectAbsPt */
MIRP[11101]	/* MoveIndirectRelPt */
SLOOP[ ]	/* SetLoopVariable */
ALIGNRP[ ]	/* AlignRelativePt */
SVTCA[1]	/* SetFreedomAndProjectionVectorToAxis */
MDAP[1]	/* MoveDirectAbsPt */
MIRP[11101]	/* MoveIndirectRelPt */
MDAP[1]	/* MoveDirectAbsPt */
MIRP[11101]	/* MoveIndirectRelPt */
MDAP[1]	/* MoveDirectAbsPt */
ALIGNRP[ ]	/* AlignRelativePt */
MIRP[11101]	/* MoveIndirectRelPt */
SLOOP[ ]	/* SetLoopVariable */
ALIGNRP[ ]	/* AlignRelativePt */
MDAP[0]	/* MoveDirectAbsPt */
MDAP[0]	/* MoveDirectAbsPt */
MDAP[0]	/* MoveDirectAbsPt */
SVTCA[0]	/* SetFreedomAndProjectionVectorToAxis */
IUP[1]	/* InterpolateUntPts */
IUP[0]	/* InterpolateUntPts */
SVTCA[1]	/* SetFreedomAndProjectionVectorToAxis */
MD[0]	/* MeasureDistance */
ROUND[00]	/* Round */
PUSHW[ ]	/* 2 values pushed */
7 47
MD[0]	/* MeasureDistance */
ROUND[00]	/* Round */
SUB[ ]	/* Subtract */
PUSHB[ ]	/* 1 value pushed */
64
GT[ ]	/* GreaterThan */
IF[ ]	/* If */
SHPIX[ ]	/* ShiftZoneByPixel */
SRP1[ ]	/* SetRefPoint1 */
SHZ[1]	/* ShiftZoneByLastPoint */
PUSHW[ ]	/* 2 values pushed */
47 -64
SHPIX[ ]	/* ShiftZoneByPixel */
EIF[ ]	/* EndIf */";
};
width = 1284;
}
);
note = B;
unicode = 66;
},
{
glyphname = C;
lastChange = "2025-02-10 17:36:15 +0000";
layers = (
{
background = {
shapes = (
{
closed = 1;
nodes = (
(1060,261,qs),
(1047,261,o),
(992,207,qs),
(924,139,o),
(865,105,qs),
(771,51,o),
(663,51,qs),
(478,51,o),
(344,192,qs),
(211,330,o),
(211,516,qs),
(211,663,ls),
(211,843,o),
(329,976,qs),
(451,1113,o),
(629,1113,qs),
(777,1113,o),
(893,1024,qs),
(961,972,o),
(978,907,qs),
(996,837,o),
(998,836,q),
(1009,824,o),
(1026,824,qs),
(1068,824,o),
(1068,881,qs),
(1068,1114,ls),
(1068,1170,o),
(1026,1170,qs),
(991,1170,o),
(984,1126,qs),
(984,1124,o),
(984,1055,q),
(834,1197,o),
(626,1197,qs),
(417,1197,o),
(127,886,o),
(127,675,qs),
(127,504,ls),
(127,335,o),
(246,187,qs),
(421,-33,o),
(665,-33,qs),
(892,-33,o),
(1057,152,qs),
(1100,200,o),
(1100,222,qs),
(1100,261,o)
);
}
);
};
layerId = m01;
shapes = (
{
closed = 1;
nodes = (
(816,-33,o),
(947,29,o),
(1057,152,cs),
(1086,184,o),
(1100,207,o),
(1100,222,cs),
(1100,248,o),
(1087,261,o),
(1060,261,cs),
(1051,261,o),
(1029,243,o),
(992,207,cs),
(947,162,o),
(904,128,o),
(865,105,cs),
(802,69,o),
(735,51,o),
(663,51,cs),
(540,51,o),
(433,98,o),
(344,192,cs),
(255,284,o),
(211,392,o),
(211,516,cs),
(211,663,ls),
(211,783,o),
(250,887,o),
(329,976,cs),
(410,1067,o),
(510,1113,o),
(629,1113,cs),
(728,1113,o),
(816,1083,o),
(893,1024,cs),
(938,989,o),
(967,950,o),
(978,907,cs),
(990,860,o),
(997,837,o),
(998,836,cs),
(1005,828,o),
(1015,824,o),
(1026,824,cs),
(1054,824,o),
(1068,843,o),
(1068,881,cs),
(1068,1114,ls),
(1068,1151,o),
(1054,1170,o),
(1026,1170,cs),
(1003,1170,o),
(989,1155,o),
(984,1126,c),
(984,1055,l),
(884,1150,o),
(765,1197,o),
(626,1197,cs),
(347,1197,o),
(127,956,o),
(127,675,cs),
(127,504,ls),
(127,391,o),
(167,286,o),
(246,187,cs),
(363,40,o),
(502,-33,o),
(665,-33,cs)
);
}
);
userData = {
assembly = "NPUSHB[ ]	/* 36 values pushed */
1 48 48 64 49 0 46 14 21 20 16 14 0 36 35 6 9 8 23 7 18 40 8 4 31 8 12 18 3 12 3 4 1 1 8 70
SROUND[ ]	/* SuperRound */
MDAP[1]	/* MoveDirectAbsPt */
SHZ[1]	/* ShiftZoneByLastPoint */
RTG[ ]	/* RoundToGrid */
SVTCA[0]	/* SetFreedomAndProjectionVectorToAxis */
MIAP[1]	/* MoveIndirectAbsPt */
MIAP[1]	/* MoveIndirectAbsPt */
MIAP[1]	/* MoveIndirectAbsPt */
SRP0[ ]	/* SetRefPoint0 */
MIRP[11101]	/* MoveIndirectRelPt */
SRP0[ ]	/* SetRefPoint0 */
MIRP[11101]	/* MoveIndirectRelPt */
SRP0[ ]	/* SetRefPoint0 */
MIRP[11101]	/* MoveIndirectRelPt */
SVTCA[1]	/* SetFreedomAndProjectionVectorToAxis */
MDAP[1]	/* MoveDirectAbsPt */
ALIGNRP[ ]	/* AlignRelativePt */
MIRP[11101]	/* MoveIndirectRelPt */
ALIGNRP[ ]	/* AlignRelativePt */
MDAP[0]	/* MoveDirectAbsPt */
MDAP[0]	/* MoveDirectAbsPt */
MDAP[0]	/* MoveDirectAbsPt */
MDAP[0]	/* MoveDirectAbsPt */
MDAP[0]	/* MoveDirectAbsPt */
SVTCA[0]	/* SetFreedomAndProjectionVectorToAxis */
MDAP[0]	/* MoveDirectAbsPt */
MDAP[0]	/* MoveDirectAbsPt */
IUP[1]	/* InterpolateUntPts */
IUP[0]	/* InterpolateUntPts */
SVTCA[1]	/* SetFreedomAndProjectionVectorToAxis */
MD[0]	/* MeasureDistance */
ROUND[00]	/* Round */
PUSHW[ ]	/* 2 values pushed */
8 48
MD[0]	/* MeasureDistance */
ROUND[00]	/* Round */
SUB[ ]	/* Subtract */
PUSHB[ ]	/* 1 value pushed */
64
GT[ ]	/* GreaterThan */
IF[ ]	/* If */
SHPIX[ ]	/* ShiftZoneByPixel */
SRP1[ ]	/* SetRefPoint1 */
SHZ[1]	/* ShiftZoneByLastPoint */
PUSHW[ ]	/* 2 values pushed */
48 -64
SHPIX[ ]	/* ShiftZoneByPixel */
EIF[ ]	/* EndIf */";
};
width = 1229;
}
);
note = C;
unicode = 67;
},
{
glyphname = D;
lastChange = "2025-02-10 17:36:15 +0000";
layers = (
{
background = {
shapes = (
{
closed = 1;
nodes = (
(1105,825,qs),
(974,1170,o),
(658,1170,qs),
(206,1169,ls),
(150,1169,o),
(150,1127,qs),
(150,1084,o),
(206,1084,qs),
(277,1084,l),
(277,84,l),
(206,84,ls),
(150,84,o),
(150,41,qs),
(150,23,o),
(163,11,q),
(189,1,o),
(206,-1,q),
(658,0,ls),
(862,0,o),
(1001,164,qs),
(1134,320,o),
(1134,527,qs),
(1134,749,o)
);
},
{
closed = 1;
nodes = (
(938,220,qs),
(821,84,o),
(666,84,qs),
(361,84,l),
(361,1086,l),
(666,1086,ls),
(823,1086,o),
(939,950,qs),
(1050,820,o),
(1050,661,qs),
(1050,509,ls),
(1050,351,o)
);
}
);
};
layerId = m01;
shapes = (
{
closed = 1;
nodes = (
(658,0,ls),
(794,0,o),
(908,55,o),
(1001,164,cs),
(1090,268,o),
(1134,389,o),
(1134,527,cs),
(1134,675,o),
(1124,774,o),
(1105,825,cs),
(1018,1055,o),
(869,1170,o),
(658,1170,cs),
(206,1169,ls),
(169,1169,o),
(150,1155,o),
(150,1127,cs),
(150,1098,o),
(169,1084,o),
(206,1084,cs),
(277,1084,l),
(277,84,l),
(206,84,ls),
(169,84,o),
(150,70,o),
(150,41,cs),
(150,29,o),
(154,19,o),
(163,11,c),
(180,4,o),
(195,0,o),
(206,-1,c)
);
},
{
closed = 1;
nodes = (
(361,1086,l),
(666,1086,ls),
(771,1086,o),
(862,1041,o),
(939,950,cs),
(1013,863,o),
(1050,767,o),
(1050,661,cs),
(1050,509,ls),
(1050,404,o),
(1013,307,o),
(938,220,cs),
(860,129,o),
(769,84,o),
(666,84,cs),
(361,84,l)
);
}
);
userData = {
assembly = "NPUSHB[ ]	/* 38 values pushed */
1 35 35 64 36 0 16 9 30 29 6 13 12 24 23 6 0 31 30 12 3 11 8 4 29 14 13 3 28 8 19 19 3 5 1 1 9 70
SROUND[ ]	/* SuperRound */
MDAP[1]	/* MoveDirectAbsPt */
SHZ[1]	/* ShiftZoneByLastPoint */
RTG[ ]	/* RoundToGrid */
SVTCA[0]	/* SetFreedomAndProjectionVectorToAxis */
MIAP[1]	/* MoveIndirectAbsPt */
MIAP[1]	/* MoveIndirectAbsPt */
SRP0[ ]	/* SetRefPoint0 */
MIRP[11101]	/* MoveIndirectRelPt */
SLOOP[ ]	/* SetLoopVariable */
ALIGNRP[ ]	/* AlignRelativePt */
MDAP[1]	/* MoveDirectAbsPt */
MIRP[11101]	/* MoveIndirectRelPt */
SLOOP[ ]	/* SetLoopVariable */
ALIGNRP[ ]	/* AlignRelativePt */
SVTCA[1]	/* SetFreedomAndProjectionVectorToAxis */
MDAP[1]	/* MoveDirectAbsPt */
MIRP[11101]	/* MoveIndirectRelPt */
ALIGNRP[ ]	/* AlignRelativePt */
MDAP[1]	/* MoveDirectAbsPt */
ALIGNRP[ ]	/* AlignRelativePt */
MIRP[11101]	/* MoveIndirectRelPt */
ALIGNRP[ ]	/* AlignRelativePt */
MDAP[0]	/* MoveDirectAbsPt */
MDAP[0]	/* MoveDirectAbsPt */
SVTCA[0]	/* SetFreedomAndProjectionVectorToAxis */
IUP[1]	/* InterpolateUntPts */
IUP[0]	/* InterpolateUntPts */
SVTCA[1]	/* SetFreedomAndProjectionVectorToAxis */
MD[0]	/* MeasureDistance */
ROUND[00]	/* Round */
PUSHW[ ]	/* 2 values pushed */
9 35
MD[0]	/* MeasureDistance */
ROUND[00]	/* Round */
SUB[ ]	/* Subtract */
PUSHB[ ]	/* 1 value pushed */
64
GT[ ]	/* GreaterThan */
IF[ ]	/* If */
SHPIX[ ]	/* ShiftZoneByPixel */
SRP1[ ]	/* SetRefPoint1 */
SHZ[1]	/* ShiftZoneByLastPoint */
PUSHW[ ]	/* 2 values pushed */
35 -64
SHPIX[ ]	/* ShiftZoneByPixel */
EIF[ ]	/* EndIf */";
};
width = 1283;
}
);
note = D;
unicode = 68;
},
{
glyphname = E;
lastChange = "2025-02-10 17:36:15 +0000";
layers = (
{
background = {
shapes = (
{
closed = 1;
nodes = (
(1091,211,o),
(1049,211,qs),
(1005,211,o),
(1006,155,qs),
(1007,84,l),
(361,84,l),
(361,565,l),
(662,565,l),
(662,494,ls),
(662,438,o),
(705,438,qs),
(747,438,o),
(747,494,qs),
(747,720,ls),
(747,776,o),
(705,776,qs),
(662,776,o),
(662,720,qs),
(662,649,l),
(361,649,l),
(361,1086,l),
(963,1086,l),
(962,1015,ls),
(961,959,o),
(1005,959,qs),
(1047,959,o),
(1047,1015,qs),
(1047,1170,l),
(206,1171,ls),
(150,1171,o),
(150,1129,qs),
(150,1086,o),
(206,1086,qs),
(277,1086,l),
(277,84,l),
(206,84,ls),
(150,84,o),
(150,41,qs),
(150,23,o),
(163,11,q),
(189,1,o),
(206,-1,q),
(1091,0,l),
(1091,155,ls)
);
}
);
};
layerId = m01;
shapes = (
{
closed = 1;
nodes = (
(1091,0,l),
(1091,155,ls),
(1091,192,o),
(1077,211,o),
(1049,211,cs),
(1020,211,o),
(1005,192,o),
(1006,155,cs),
(1007,84,l),
(361,84,l),
(361,565,l),
(662,565,l),
(662,494,ls),
(662,457,o),
(676,438,o),
(705,438,cs),
(733,438,o),
(747,457,o),
(747,494,cs),
(747,720,ls),
(747,757,o),
(733,776,o),
(705,776,cs),
(676,776,o),
(662,757,o),
(662,720,cs),
(662,649,l),
(361,649,l),
(361,1086,l),
(963,1086,l),
(962,1015,ls),
(961,978,o),
(976,959,o),
(1005,959,cs),
(1033,959,o),
(1047,978,o),
(1047,1015,cs),
(1047,1170,l),
(206,1171,ls),
(169,1171,o),
(150,1157,o),
(150,1129,cs),
(150,1100,o),
(169,1086,o),
(206,1086,cs),
(277,1086,l),
(277,84,l),
(206,84,ls),
(169,84,o),
(150,70,o),
(150,41,cs),
(150,29,o),
(154,19,o),
(163,11,c),
(180,4,o),
(195,0,o),
(206,-1,c)
);
}
);
userData = {
assembly = "NPUSHB[ ]	/* 71 values pushed */
1 44 44 64 45 0 12 5 37 36 23 3 22 6 9 8 21 20 6 16 15 35 34 25 3 24 6 30 29 39 38 6 43 0 32 28 35 41 7 0 18 7 15 38 37 8 3 7 8 0 22 21 10 3 9 8 15 36 35 8 24 23 27 2 14 3 1 1 1 5 70
SROUND[ ]	/* SuperRound */
MDAP[1]	/* MoveDirectAbsPt */
SHZ[1]	/* ShiftZoneByLastPoint */
RTG[ ]	/* RoundToGrid */
SVTCA[0]	/* SetFreedomAndProjectionVectorToAxis */
MIAP[1]	/* MoveIndirectAbsPt */
MIAP[1]	/* MoveIndirectAbsPt */
MIAP[1]	/* MoveIndirectAbsPt */
MDAP[1]	/* MoveDirectAbsPt */
ALIGNRP[ ]	/* AlignRelativePt */
MIRP[11101]	/* MoveIndirectRelPt */
ALIGNRP[ ]	/* AlignRelativePt */
MDAP[1]	/* MoveDirectAbsPt */
MIRP[11101]	/* MoveIndirectRelPt */
SLOOP[ ]	/* SetLoopVariable */
ALIGNRP[ ]	/* AlignRelativePt */
MDAP[1]	/* MoveDirectAbsPt */
MIRP[11101]	/* MoveIndirectRelPt */
SLOOP[ ]	/* SetLoopVariable */
ALIGNRP[ ]	/* AlignRelativePt */
SRP0[ ]	/* SetRefPoint0 */
MIRP[11101]	/* MoveIndirectRelPt */
SRP0[ ]	/* SetRefPoint0 */
MIRP[11101]	/* MoveIndirectRelPt */
SRP0[ ]	/* SetRefPoint0 */
MIRP[11101]	/* MoveIndirectRelPt */
SVTCA[1]	/* SetFreedomAndProjectionVectorToAxis */
MDAP[1]	/* MoveDirectAbsPt */
ALIGNRP[ ]	/* AlignRelativePt */
MIRP[11101]	/* MoveIndirectRelPt */
ALIGNRP[ ]	/* AlignRelativePt */
MDAP[1]	/* MoveDirectAbsPt */
ALIGNRP[ ]	/* AlignRelativePt */
MIRP[11101]	/* MoveIndirectRelPt */
SLOOP[ ]	/* SetLoopVariable */
ALIGNRP[ ]	/* AlignRelativePt */
MDAP[1]	/* MoveDirectAbsPt */
ALIGNRP[ ]	/* AlignRelativePt */
MIRP[11101]	/* MoveIndirectRelPt */
ALIGNRP[ ]	/* AlignRelativePt */
MDAP[1]	/* MoveDirectAbsPt */
ALIGNRP[ ]	/* AlignRelativePt */
MIRP[11101]	/* MoveIndirectRelPt */
SLOOP[ ]	/* SetLoopVariable */
ALIGNRP[ ]	/* AlignRelativePt */
MDAP[0]	/* MoveDirectAbsPt */
MDAP[0]	/* MoveDirectAbsPt */
SVTCA[0]	/* SetFreedomAndProjectionVectorToAxis */
IUP[1]	/* InterpolateUntPts */
IUP[0]	/* InterpolateUntPts */
SVTCA[1]	/* SetFreedomAndProjectionVectorToAxis */
MD[0]	/* MeasureDistance */
ROUND[00]	/* Round */
PUSHW[ ]	/* 2 values pushed */
5 44
MD[0]	/* MeasureDistance */
ROUND[00]	/* Round */
SUB[ ]	/* Subtract */
PUSHB[ ]	/* 1 value pushed */
64
GT[ ]	/* GreaterThan */
IF[ ]	/* If */
SHPIX[ ]	/* ShiftZoneByPixel */
SRP1[ ]	/* SetRefPoint1 */
SHZ[1]	/* ShiftZoneByLastPoint */
PUSHW[ ]	/* 2 values pushed */
44 -64
SHPIX[ ]	/* ShiftZoneByPixel */
EIF[ ]	/* EndIf */";
};
width = 1241;
}
);
note = E;
unicode = 69;
},
{
glyphname = F;
lastChange = "2025-02-10 17:36:15 +0000";
layers = (
{
background = {
shapes = (
{
closed = 1;
nodes = (
(206,1171,ls),
(150,1171,o),
(150,1129,qs),
(150,1086,o),
(206,1086,qs),
(277,1086,l),
(277,84,l),
(206,84,ls),
(150,84,o),
(150,41,qs),
(150,-1,o),
(206,-1,qs),
(432,-1,ls),
(488,-1,o),
(488,41,qs),
(488,84,o),
(432,84,qs),
(361,84,l),
(361,565,l),
(662,565,l),
(662,494,ls),
(662,438,o),
(705,438,qs),
(747,438,o),
(747,494,qs),
(747,720,ls),
(747,776,o),
(705,776,qs),
(662,776,o),
(662,720,qs),
(662,649,l),
(361,649,l),
(361,1086,l),
(1005,1086,l),
(1004,1015,ls),
(1003,959,o),
(1047,959,qs),
(1089,959,o),
(1089,1015,qs),
(1089,1170,l)
);
}
);
};
layerId = m01;
shapes = (
{
closed = 1;
nodes = (
(432,-1,ls),
(469,-1,o),
(488,13,o),
(488,41,cs),
(488,70,o),
(469,84,o),
(432,84,cs),
(361,84,l),
(361,565,l),
(662,565,l),
(662,494,ls),
(662,457,o),
(676,438,o),
(705,438,cs),
(733,438,o),
(747,457,o),
(747,494,cs),
(747,720,ls),
(747,757,o),
(733,776,o),
(705,776,cs),
(676,776,o),
(662,757,o),
(662,720,cs),
(662,649,l),
(361,649,l),
(361,1086,l),
(1005,1086,l),
(1004,1015,ls),
(1003,978,o),
(1018,959,o),
(1047,959,cs),
(1075,959,o),
(1089,978,o),
(1089,1015,cs),
(1089,1170,l),
(206,1171,ls),
(169,1171,o),
(150,1157,o),
(150,1129,cs),
(150,1100,o),
(169,1086,o),
(206,1086,cs),
(277,1086,l),
(277,84,l),
(206,84,ls),
(169,84,o),
(150,70,o),
(150,41,cs),
(150,13,o),
(169,-1,o),
(206,-1,cs)
);
}
);
userData = {
assembly = "NPUSHB[ ]	/* 69 values pushed */
1 40 40 64 41 0 24 17 6 36 29 17 32 5 4 6 39 0 19 18 9 3 8 6 14 13 21 20 7 3 6 6 33 32 16 28 19 2 7 39 34 33 6 3 5 8 39 20 19 8 8 7 32 31 22 3 21 8 26 38 3 27 26 1 11 2 1 29 70
SROUND[ ]	/* SuperRound */
MDAP[1]	/* MoveDirectAbsPt */
SHZ[1]	/* ShiftZoneByLastPoint */
RTG[ ]	/* RoundToGrid */
SVTCA[0]	/* SetFreedomAndProjectionVectorToAxis */
MIAP[1]	/* MoveIndirectAbsPt */
MIAP[1]	/* MoveIndirectAbsPt */
ALIGNRP[ ]	/* AlignRelativePt */
MIAP[1]	/* MoveIndirectAbsPt */
SRP0[ ]	/* SetRefPoint0 */
MIRP[11101]	/* MoveIndirectRelPt */
SLOOP[ ]	/* SetLoopVariable */
ALIGNRP[ ]	/* AlignRelativePt */
MDAP[1]	/* MoveDirectAbsPt */
ALIGNRP[ ]	/* AlignRelativePt */
MIRP[11101]	/* MoveIndirectRelPt */
ALIGNRP[ ]	/* AlignRelativePt */
MDAP[1]	/* MoveDirectAbsPt */
MIRP[11101]	/* MoveIndirectRelPt */
SLOOP[ ]	/* SetLoopVariable */
ALIGNRP[ ]	/* AlignRelativePt */
SRP0[ ]	/* SetRefPoint0 */
MIRP[11101]	/* MoveIndirectRelPt */
SRP0[ ]	/* SetRefPoint0 */
MIRP[11101]	/* MoveIndirectRelPt */
SVTCA[1]	/* SetFreedomAndProjectionVectorToAxis */
MDAP[1]	/* MoveDirectAbsPt */
ALIGNRP[ ]	/* AlignRelativePt */
MIRP[11101]	/* MoveIndirectRelPt */
SLOOP[ ]	/* SetLoopVariable */
ALIGNRP[ ]	/* AlignRelativePt */
MDAP[1]	/* MoveDirectAbsPt */
ALIGNRP[ ]	/* AlignRelativePt */
MIRP[11101]	/* MoveIndirectRelPt */
SLOOP[ ]	/* SetLoopVariable */
ALIGNRP[ ]	/* AlignRelativePt */
MDAP[1]	/* MoveDirectAbsPt */
ALIGNRP[ ]	/* AlignRelativePt */
MIRP[11101]	/* MoveIndirectRelPt */
ALIGNRP[ ]	/* AlignRelativePt */
SRP0[ ]	/* SetRefPoint0 */
MIRP[11101]	/* MoveIndirectRelPt */
ALIGNRP[ ]	/* AlignRelativePt */
SRP0[ ]	/* SetRefPoint0 */
MIRP[11101]	/* MoveIndirectRelPt */
SVTCA[0]	/* SetFreedomAndProjectionVectorToAxis */
IUP[1]	/* InterpolateUntPts */
IUP[0]	/* InterpolateUntPts */
SVTCA[1]	/* SetFreedomAndProjectionVectorToAxis */
MD[0]	/* MeasureDistance */
ROUND[00]	/* Round */
PUSHW[ ]	/* 2 values pushed */
29 40
MD[0]	/* MeasureDistance */
ROUND[00]	/* Round */
SUB[ ]	/* Subtract */
PUSHB[ ]	/* 1 value pushed */
64
GT[ ]	/* GreaterThan */
IF[ ]	/* If */
SHPIX[ ]	/* ShiftZoneByPixel */
SRP1[ ]	/* SetRefPoint1 */
SHZ[1]	/* ShiftZoneByLastPoint */
PUSHW[ ]	/* 2 values pushed */
40 -64
SHPIX[ ]	/* ShiftZoneByPixel */
EIF[ ]	/* EndIf */";
};
width = 1241;
}
);
note = F;
unicode = 70;
},
{
glyphname = G;
lastChange = "2025-02-10 17:36:15 +0000";
layers = (
{
background = {
shapes = (
{
closed = 1;
nodes = (
(1123,517,qs),
(719,518,ls),
(663,518,o),
(663,475,qs),
(663,433,o),
(719,433,qs),
(1008,433,l),
(1008,122,l),
(851,50,o),
(715,50,qs),
(496,50,o),
(368,167,qs),
(234,289,o),
(234,505,qs),
(234,658,ls),
(234,775,o),
(288,869,qs),
(427,1112,o),
(672,1112,qs),
(796,1112,o),
(900,1058,qs),
(964,1024,o),
(991,974,qs),
(998,961,o),
(1016,899,qs),
(1025,867,o),
(1051,867,qs),
(1093,867,o),
(1093,923,qs),
(1093,1113,ls),
(1093,1169,o),
(1051,1169,qs),
(1019,1169,o),
(1011,1140,qs),
(1008,1129,o),
(1008,1085,q),
(868,1196,o),
(665,1196,qs),
(444,1196,o),
(150,881,o),
(150,659,qs),
(150,505,ls),
(150,257,o),
(307,110,qs),
(460,-34,o),
(711,-34,qs),
(899,-34,o),
(1093,73,q),
(1093,433,l),
(1179,433,o),
(1179,475,qs),
(1179,517,o)
);
}
);
};
layerId = m01;
shapes = (
{
closed = 1;
nodes = (
(836,-34,o),
(964,2,o),
(1093,73,c),
(1093,433,l),
(1150,433,o),
(1179,447,o),
(1179,475,cs),
(1179,503,o),
(1160,517,o),
(1123,517,cs),
(719,518,ls),
(682,518,o),
(663,504,o),
(663,475,cs),
(663,447,o),
(682,433,o),
(719,433,cs),
(1008,433,l),
(1008,122,l),
(903,74,o),
(806,50,o),
(715,50,cs),
(569,50,o),
(453,89,o),
(368,167,cs),
(279,248,o),
(234,361,o),
(234,505,cs),
(234,658,ls),
(234,736,o),
(252,806,o),
(288,869,cs),
(381,1031,o),
(509,1112,o),
(672,1112,cs),
(755,1112,o),
(831,1094,o),
(900,1058,cs),
(943,1035,o),
(973,1007,o),
(991,974,cs),
(996,965,o),
(1004,940,o),
(1016,899,cs),
(1022,878,o),
(1034,867,o),
(1051,867,cs),
(1079,867,o),
(1093,886,o),
(1093,923,cs),
(1093,1113,ls),
(1093,1150,o),
(1079,1169,o),
(1051,1169,cs),
(1030,1169,o),
(1016,1159,o),
(1011,1140,cs),
(1009,1133,o),
(1008,1114,o),
(1008,1085,c),
(915,1159,o),
(800,1196,o),
(665,1196,cs),
(370,1196,o),
(150,955,o),
(150,659,cs),
(150,505,ls),
(150,340,o),
(202,208,o),
(307,110,cs),
(409,14,o),
(544,-34,o),
(711,-34,cs)
);
}
);
userData = {
assembly = "NPUSHB[ ]	/* 46 values pushed */
1 52 52 64 53 0 45 15 47 0 37 36 6 10 9 44 43 6 22 21 3 3 2 24 7 19 41 8 5 32 8 13 49 50 8 44 2 19 3 13 3 5 1 1 9 70
SROUND[ ]	/* SuperRound */
MDAP[1]	/* MoveDirectAbsPt */
SHZ[1]	/* ShiftZoneByLastPoint */
RTG[ ]	/* RoundToGrid */
SVTCA[0]	/* SetFreedomAndProjectionVectorToAxis */
MIAP[1]	/* MoveIndirectAbsPt */
MIAP[1]	/* MoveIndirectAbsPt */
MIAP[1]	/* MoveIndirectAbsPt */
MDAP[1]	/* MoveDirectAbsPt */
ALIGNRP[ ]	/* AlignRelativePt */
MIRP[11101]	/* MoveIndirectRelPt */
ALIGNRP[ ]	/* AlignRelativePt */
SRP0[ ]	/* SetRefPoint0 */
MIRP[11101]	/* MoveIndirectRelPt */
SRP0[ ]	/* SetRefPoint0 */
MIRP[11101]	/* MoveIndirectRelPt */
SRP0[ ]	/* SetRefPoint0 */
MIRP[11101]	/* MoveIndirectRelPt */
SVTCA[1]	/* SetFreedomAndProjectionVectorToAxis */
MDAP[1]	/* MoveDirectAbsPt */
SLOOP[ ]	/* SetLoopVariable */
ALIGNRP[ ]	/* AlignRelativePt */
MIRP[11101]	/* MoveIndirectRelPt */
ALIGNRP[ ]	/* AlignRelativePt */
MDAP[1]	/* MoveDirectAbsPt */
ALIGNRP[ ]	/* AlignRelativePt */
MIRP[11101]	/* MoveIndirectRelPt */
ALIGNRP[ ]	/* AlignRelativePt */
MDAP[0]	/* MoveDirectAbsPt */
MDAP[0]	/* MoveDirectAbsPt */
SVTCA[0]	/* SetFreedomAndProjectionVectorToAxis */
MDAP[0]	/* MoveDirectAbsPt */
MDAP[0]	/* MoveDirectAbsPt */
IUP[1]	/* InterpolateUntPts */
IUP[0]	/* InterpolateUntPts */
SVTCA[1]	/* SetFreedomAndProjectionVectorToAxis */
MD[0]	/* MeasureDistance */
ROUND[00]	/* Round */
PUSHW[ ]	/* 2 values pushed */
9 52
MD[0]	/* MeasureDistance */
ROUND[00]	/* Round */
SUB[ ]	/* Subtract */
PUSHB[ ]	/* 1 value pushed */
64
GT[ ]	/* GreaterThan */
IF[ ]	/* If */
SHPIX[ ]	/* ShiftZoneByPixel */
SRP1[ ]	/* SetRefPoint1 */
SHZ[1]	/* ShiftZoneByLastPoint */
PUSHW[ ]	/* 2 values pushed */
52 -64
SHPIX[ ]	/* ShiftZoneByPixel */
EIF[ ]	/* EndIf */";
};
width = 1327;
}
);
note = G;
unicode = 71;
},
{
glyphname = H;
lastChange = "2025-02-10 17:36:15 +0000";
layers = (
{
background = {
shapes = (
{
closed = 1;
nodes = (
(1074,84,qs),
(1003,84,l),
(1003,1086,l),
(1074,1086,ls),
(1130,1086,o),
(1130,1129,qs),
(1130,1171,o),
(1074,1171,qs),
(848,1171,ls),
(792,1171,o),
(792,1129,qs),
(792,1086,o),
(848,1086,qs),
(919,1086,l),
(918,650,l),
(361,650,l),
(361,1086,l),
(432,1086,ls),
(488,1086,o),
(488,1129,qs),
(488,1171,o),
(432,1171,qs),
(206,1171,ls),
(150,1171,o),
(150,1129,qs),
(150,1086,o),
(206,1086,qs),
(277,1086,l),
(277,84,l),
(206,84,ls),
(150,84,o),
(150,41,qs),
(150,-1,o),
(206,-1,qs),
(432,-1,ls),
(488,-1,o),
(488,41,qs),
(488,84,o),
(432,84,qs),
(361,84,l),
(361,566,l),
(918,566,l),
(918,84,l),
(848,84,ls),
(792,84,o),
(792,41,qs),
(792,-1,o),
(848,-1,qs),
(1074,-1,ls),
(1130,-1,o),
(1130,41,qs),
(1130,84,o)
);
}
);
};
layerId = m01;
shapes = (
{
closed = 1;
nodes = (
(432,-1,ls),
(469,-1,o),
(488,13,o),
(488,41,cs),
(488,70,o),
(469,84,o),
(432,84,cs),
(361,84,l),
(361,566,l),
(918,566,l),
(918,84,l),
(848,84,ls),
(811,84,o),
(792,70,o),
(792,41,cs),
(792,13,o),
(811,-1,o),
(848,-1,cs),
(1074,-1,ls),
(1111,-1,o),
(1130,13,o),
(1130,41,cs),
(1130,70,o),
(1111,84,o),
(1074,84,cs),
(1003,84,l),
(1003,1086,l),
(1074,1086,ls),
(1111,1086,o),
(1130,1100,o),
(1130,1129,cs),
(1130,1157,o),
(1111,1171,o),
(1074,1171,cs),
(848,1171,ls),
(811,1171,o),
(792,1157,o),
(792,1129,cs),
(792,1100,o),
(811,1086,o),
(848,1086,cs),
(919,1086,l),
(918,650,l),
(361,650,l),
(361,1086,l),
(432,1086,ls),
(469,1086,o),
(488,1100,o),
(488,1129,cs),
(488,1157,o),
(469,1171,o),
(432,1171,cs),
(206,1171,ls),
(169,1171,o),
(150,1157,o),
(150,1129,cs),
(150,1100,o),
(169,1086,o),
(206,1086,cs),
(277,1086,l),
(277,84,l),
(206,84,ls),
(169,84,o),
(150,70,o),
(150,41,cs),
(150,13,o),
(169,-1,o),
(206,-1,cs)
);
}
);
userData = {
assembly = "NPUSHB[ ]	/* 80 values pushed */
1 52 52 64 53 0 31 14 17 10 26 19 17 22 45 0 17 48 40 5 17 8 37 36 9 3 8 6 49 48 35 34 11 3 10 6 23 22 50 49 22 21 12 11 8 7 7 8 2 10 9 8 36 35 48 47 38 37 34 33 24 7 23 8 28 43 42 29 3 28 3 17 16 3 3 2 1 1 19 70
SROUND[ ]	/* SuperRound */
MDAP[1]	/* MoveDirectAbsPt */
SHZ[1]	/* ShiftZoneByLastPoint */
RTG[ ]	/* RoundToGrid */
SVTCA[0]	/* SetFreedomAndProjectionVectorToAxis */
MIAP[1]	/* MoveIndirectAbsPt */
SLOOP[ ]	/* SetLoopVariable */
ALIGNRP[ ]	/* AlignRelativePt */
MIAP[1]	/* MoveIndirectAbsPt */
SLOOP[ ]	/* SetLoopVariable */
ALIGNRP[ ]	/* AlignRelativePt */
SRP0[ ]	/* SetRefPoint0 */
MIRP[11101]	/* MoveIndirectRelPt */
SLOOP[ ]	/* SetLoopVariable */
ALIGNRP[ ]	/* AlignRelativePt */
MDAP[1]	/* MoveDirectAbsPt */
ALIGNRP[ ]	/* AlignRelativePt */
MIRP[11101]	/* MoveIndirectRelPt */
ALIGNRP[ ]	/* AlignRelativePt */
SRP0[ ]	/* SetRefPoint0 */
MIRP[11101]	/* MoveIndirectRelPt */
SLOOP[ ]	/* SetLoopVariable */
ALIGNRP[ ]	/* AlignRelativePt */
SVTCA[1]	/* SetFreedomAndProjectionVectorToAxis */
MDAP[1]	/* MoveDirectAbsPt */
ALIGNRP[ ]	/* AlignRelativePt */
MIRP[11101]	/* MoveIndirectRelPt */
SLOOP[ ]	/* SetLoopVariable */
ALIGNRP[ ]	/* AlignRelativePt */
MDAP[1]	/* MoveDirectAbsPt */
ALIGNRP[ ]	/* AlignRelativePt */
MIRP[11101]	/* MoveIndirectRelPt */
SLOOP[ ]	/* SetLoopVariable */
ALIGNRP[ ]	/* AlignRelativePt */
SRP0[ ]	/* SetRefPoint0 */
MIRP[11101]	/* MoveIndirectRelPt */
ALIGNRP[ ]	/* AlignRelativePt */
SRP0[ ]	/* SetRefPoint0 */
MIRP[11101]	/* MoveIndirectRelPt */
ALIGNRP[ ]	/* AlignRelativePt */
SRP0[ ]	/* SetRefPoint0 */
MIRP[11101]	/* MoveIndirectRelPt */
ALIGNRP[ ]	/* AlignRelativePt */
SRP0[ ]	/* SetRefPoint0 */
MIRP[11101]	/* MoveIndirectRelPt */
ALIGNRP[ ]	/* AlignRelativePt */
SVTCA[0]	/* SetFreedomAndProjectionVectorToAxis */
IUP[1]	/* InterpolateUntPts */
IUP[0]	/* InterpolateUntPts */
SVTCA[1]	/* SetFreedomAndProjectionVectorToAxis */
MD[0]	/* MeasureDistance */
ROUND[00]	/* Round */
PUSHW[ ]	/* 2 values pushed */
19 52
MD[0]	/* MeasureDistance */
ROUND[00]	/* Round */
SUB[ ]	/* Subtract */
PUSHB[ ]	/* 1 value pushed */
64
GT[ ]	/* GreaterThan */
IF[ ]	/* If */
SHPIX[ ]	/* ShiftZoneByPixel */
SRP1[ ]	/* SetRefPoint1 */
SHZ[1]	/* ShiftZoneByLastPoint */
PUSHW[ ]	/* 2 values pushed */
52 -64
SHPIX[ ]	/* ShiftZoneByPixel */
EIF[ ]	/* EndIf */";
};
width = 1278;
}
);
note = H;
unicode = 72;
},
{
glyphname = I;
lastChange = "2025-02-10 17:36:15 +0000";
layers = (
{
background = {
shapes = (
{
closed = 1;
nodes = (
(432,84,qs),
(361,84,l),
(361,1086,l),
(432,1086,ls),
(488,1086,o),
(488,1129,qs),
(488,1171,o),
(432,1171,qs),
(206,1171,ls),
(150,1171,o),
(150,1129,qs),
(150,1086,o),
(206,1086,qs),
(277,1086,l),
(277,84,l),
(206,84,ls),
(150,84,o),
(150,41,qs),
(150,-1,o),
(206,-1,qs),
(432,-1,ls),
(488,-1,o),
(488,41,qs),
(488,84,o)
);
}
);
};
layerId = m01;
shapes = (
{
closed = 1;
nodes = (
(432,-1,ls),
(469,-1,o),
(488,13,o),
(488,41,cs),
(488,70,o),
(469,84,o),
(432,84,cs),
(361,84,l),
(361,1086,l),
(432,1086,ls),
(469,1086,o),
(488,1100,o),
(488,1129,cs),
(488,1157,o),
(469,1171,o),
(432,1171,cs),
(206,1171,ls),
(169,1171,o),
(150,1157,o),
(150,1129,cs),
(150,1100,o),
(169,1086,o),
(206,1086,cs),
(277,1086,l),
(277,84,l),
(206,84,ls),
(169,84,o),
(150,70,o),
(150,41,cs),
(150,13,o),
(169,-1,o),
(206,-1,cs)
);
}
);
userData = {
assembly = "NPUSHB[ ]	/* 42 values pushed */
1 24 24 64 25 0 17 0 17 20 12 5 17 8 21 20 6 9 8 22 21 8 3 7 8 2 20 19 10 3 9 8 14 15 14 3 3 2 1 1 5 70
SROUND[ ]	/* SuperRound */
MDAP[1]	/* MoveDirectAbsPt */
SHZ[1]	/* ShiftZoneByLastPoint */
RTG[ ]	/* RoundToGrid */
SVTCA[0]	/* SetFreedomAndProjectionVectorToAxis */
MIAP[1]	/* MoveIndirectAbsPt */
ALIGNRP[ ]	/* AlignRelativePt */
MIAP[1]	/* MoveIndirectAbsPt */
ALIGNRP[ ]	/* AlignRelativePt */
SRP0[ ]	/* SetRefPoint0 */
MIRP[11101]	/* MoveIndirectRelPt */
SLOOP[ ]	/* SetLoopVariable */
ALIGNRP[ ]	/* AlignRelativePt */
SRP0[ ]	/* SetRefPoint0 */
MIRP[11101]	/* MoveIndirectRelPt */
SLOOP[ ]	/* SetLoopVariable */
ALIGNRP[ ]	/* AlignRelativePt */
SVTCA[1]	/* SetFreedomAndProjectionVectorToAxis */
MDAP[1]	/* MoveDirectAbsPt */
ALIGNRP[ ]	/* AlignRelativePt */
MIRP[11101]	/* MoveIndirectRelPt */
ALIGNRP[ ]	/* AlignRelativePt */
SRP0[ ]	/* SetRefPoint0 */
MIRP[11101]	/* MoveIndirectRelPt */
ALIGNRP[ ]	/* AlignRelativePt */
SRP0[ ]	/* SetRefPoint0 */
MIRP[11101]	/* MoveIndirectRelPt */
ALIGNRP[ ]	/* AlignRelativePt */
SVTCA[0]	/* SetFreedomAndProjectionVectorToAxis */
IUP[1]	/* InterpolateUntPts */
IUP[0]	/* InterpolateUntPts */
SVTCA[1]	/* SetFreedomAndProjectionVectorToAxis */
MD[0]	/* MeasureDistance */
ROUND[00]	/* Round */
PUSHW[ ]	/* 2 values pushed */
5 24
MD[0]	/* MeasureDistance */
ROUND[00]	/* Round */
SUB[ ]	/* Subtract */
PUSHB[ ]	/* 1 value pushed */
64
GT[ ]	/* GreaterThan */
IF[ ]	/* If */
SHPIX[ ]	/* ShiftZoneByPixel */
SRP1[ ]	/* SetRefPoint1 */
SHZ[1]	/* ShiftZoneByLastPoint */
PUSHW[ ]	/* 2 values pushed */
24 -64
SHPIX[ ]	/* ShiftZoneByPixel */
EIF[ ]	/* EndIf */";
};
width = 638;
}
);
note = I;
unicode = 73;
},
{
glyphname = J;
lastChange = "2025-02-10 17:36:15 +0000";
layers = (
{
background = {
shapes = (
{
closed = 1;
nodes = (
(1082,1165,qs),
(468,1165,ls),
(411,1165,o),
(411,1123,qs),
(411,1081,o),
(468,1081,qs),
(797,1081,l),
(797,339,ls),
(797,216,o),
(619,46,o),
(496,46,qs),
(353,46,o),
(298,116,qs),
(253,174,o),
(235,338,qs),
(229,394,o),
(192,394,qs),
(147,394,o),
(150,338,qs),
(159,147,o),
(223,65,qs),
(302,-38,o),
(496,-38,qs),
(653,-38,o),
(882,183,o),
(882,339,qs),
(882,1081,l),
(1082,1081,ls),
(1138,1081,o),
(1138,1123,qs),
(1138,1165,o)
);
}
);
};
layerId = m01;
shapes = (
{
closed = 1;
nodes = (
(705,-38,o),
(882,131,o),
(882,339,cs),
(882,1081,l),
(1082,1081,ls),
(1119,1081,o),
(1138,1095,o),
(1138,1123,cs),
(1138,1151,o),
(1119,1165,o),
(1082,1165,cs),
(468,1165,ls),
(430,1165,o),
(411,1151,o),
(411,1123,cs),
(411,1095,o),
(430,1081,o),
(468,1081,cs),
(797,1081,l),
(797,339,ls),
(797,175,o),
(660,46,o),
(496,46,cs),
(401,46,o),
(335,69,o),
(298,116,cs),
(268,155,o),
(247,229,o),
(235,338,cs),
(231,375,o),
(217,394,o),
(192,394,cs),
(162,394,o),
(148,375,o),
(150,338,cs),
(156,211,o),
(180,120,o),
(223,65,cs),
(276,-4,o),
(367,-38,o),
(496,-38,cs)
);
}
);
userData = {
assembly = "NPUSHB[ ]	/* 35 values pushed */
1 31 31 64 32 0 26 11 0 23 22 6 4 3 13 7 7 24 23 3 3 2 8 28 19 8 7 29 28 3 7 1 1 11 70
SROUND[ ]	/* SuperRound */
MDAP[1]	/* MoveDirectAbsPt */
SHZ[1]	/* ShiftZoneByLastPoint */
RTG[ ]	/* RoundToGrid */
SVTCA[0]	/* SetFreedomAndProjectionVectorToAxis */
MIAP[1]	/* MoveIndirectAbsPt */
MIAP[1]	/* MoveIndirectAbsPt */
ALIGNRP[ ]	/* AlignRelativePt */
SRP0[ ]	/* SetRefPoint0 */
MIRP[11101]	/* MoveIndirectRelPt */
SRP0[ ]	/* SetRefPoint0 */
MIRP[11101]	/* MoveIndirectRelPt */
SLOOP[ ]	/* SetLoopVariable */
ALIGNRP[ ]	/* AlignRelativePt */
SRP0[ ]	/* SetRefPoint0 */
MIRP[11101]	/* MoveIndirectRelPt */
SVTCA[1]	/* SetFreedomAndProjectionVectorToAxis */
MDAP[1]	/* MoveDirectAbsPt */
ALIGNRP[ ]	/* AlignRelativePt */
MIRP[11101]	/* MoveIndirectRelPt */
ALIGNRP[ ]	/* AlignRelativePt */
MDAP[0]	/* MoveDirectAbsPt */
MDAP[0]	/* MoveDirectAbsPt */
MDAP[0]	/* MoveDirectAbsPt */
SVTCA[0]	/* SetFreedomAndProjectionVectorToAxis */
IUP[1]	/* InterpolateUntPts */
IUP[0]	/* InterpolateUntPts */
SVTCA[1]	/* SetFreedomAndProjectionVectorToAxis */
MD[0]	/* MeasureDistance */
ROUND[00]	/* Round */
PUSHW[ ]	/* 2 values pushed */
11 31
MD[0]	/* MeasureDistance */
ROUND[00]	/* Round */
SUB[ ]	/* Subtract */
PUSHB[ ]	/* 1 value pushed */
64
GT[ ]	/* GreaterThan */
IF[ ]	/* If */
SHPIX[ ]	/* ShiftZoneByPixel */
SRP1[ ]	/* SetRefPoint1 */
SHZ[1]	/* ShiftZoneByLastPoint */
PUSHW[ ]	/* 2 values pushed */
31 -64
SHPIX[ ]	/* ShiftZoneByPixel */
EIF[ ]	/* EndIf */";
};
width = 1278;
}
);
note = J;
unicode = 74;
},
{
glyphname = K;
lastChange = "2025-02-10 17:36:15 +0000";
layers = (
{
background = {
shapes = (
{
closed = 1;
nodes = (
(1114,84,qs),
(1043,84,l),
(581,673,l),
(1043,1086,l),
(1114,1086,ls),
(1170,1086,o),
(1170,1129,qs),
(1170,1171,o),
(1114,1171,qs),
(851,1171,ls),
(795,1171,o),
(795,1129,qs),
(795,1086,o),
(851,1086,qs),
(922,1086,l),
(342,569,l),
(342,1086,l),
(413,1086,ls),
(469,1086,o),
(469,1129,qs),
(469,1171,o),
(413,1171,qs),
(187,1171,ls),
(131,1171,o),
(131,1129,qs),
(131,1086,o),
(187,1086,qs),
(258,1086,l),
(258,84,l),
(187,84,ls),
(131,84,o),
(131,41,qs),
(131,-1,o),
(187,-1,qs),
(413,-1,ls),
(469,-1,o),
(469,41,qs),
(469,84,o),
(413,84,qs),
(342,84,l),
(342,458,l),
(511,610,l),
(919,85,l),
(848,85,ls),
(792,85,o),
(792,42,qs),
(792,0,o),
(848,0,qs),
(1114,-1,ls),
(1170,-1,o),
(1170,41,qs),
(1170,84,o)
);
}
);
};
layerId = m01;
shapes = (
{
closed = 1;
nodes = (
(413,-1,ls),
(450,-1,o),
(469,13,o),
(469,41,cs),
(469,70,o),
(450,84,o),
(413,84,cs),
(342,84,l),
(342,458,l),
(511,610,l),
(919,85,l),
(848,85,ls),
(811,85,o),
(792,71,o),
(792,42,cs),
(792,14,o),
(811,0,o),
(848,0,cs),
(1114,-1,ls),
(1151,-1,o),
(1170,13,o),
(1170,41,cs),
(1170,70,o),
(1151,84,o),
(1114,84,cs),
(1043,84,l),
(581,673,l),
(1043,1086,l),
(1114,1086,ls),
(1151,1086,o),
(1170,1100,o),
(1170,1129,cs),
(1170,1157,o),
(1151,1171,o),
(1114,1171,cs),
(851,1171,ls),
(814,1171,o),
(795,1157,o),
(795,1129,cs),
(795,1100,o),
(814,1086,o),
(851,1086,cs),
(922,1086,l),
(342,569,l),
(342,1086,l),
(413,1086,ls),
(450,1086,o),
(469,1100,o),
(469,1129,cs),
(469,1157,o),
(450,1171,o),
(413,1171,cs),
(187,1171,ls),
(150,1171,o),
(131,1157,o),
(131,1129,cs),
(131,1100,o),
(150,1086,o),
(187,1086,cs),
(258,1086,l),
(258,84,l),
(187,84,ls),
(150,84,o),
(131,70,o),
(131,41,cs),
(131,13,o),
(150,-1,o),
(187,-1,cs)
);
}
);
userData = {
assembly = "NPUSHB[ ]	/* 95 values pushed */
1 52 52 64 53 0 35 9 48 36 8 48 48 49 9 8 9 47 10 9 10 11 36 35 35 36 48 47 48 49 9 9 9 10 8 8 9 31 14 17 10 26 19 17 22 5 5 0 39 5 44 0 35 34 11 3 10 6 23 22 50 49 22 21 12 11 8 7 7 8 2 47 46 37 36 34 33 24 7 23 8 28 42 41 29 3 28 3 17 16 2 1 1 19 70
SROUND[ ]	/* SuperRound */
MDAP[1]	/* MoveDirectAbsPt */
SHZ[1]	/* ShiftZoneByLastPoint */
RTG[ ]	/* RoundToGrid */
SVTCA[0]	/* SetFreedomAndProjectionVectorToAxis */
MIAP[1]	/* MoveIndirectAbsPt */
ALIGNRP[ ]	/* AlignRelativePt */
ALIGNRP[ ]	/* AlignRelativePt */
MIAP[1]	/* MoveIndirectAbsPt */
SLOOP[ ]	/* SetLoopVariable */
ALIGNRP[ ]	/* AlignRelativePt */
SRP0[ ]	/* SetRefPoint0 */
MIRP[11101]	/* MoveIndirectRelPt */
SLOOP[ ]	/* SetLoopVariable */
ALIGNRP[ ]	/* AlignRelativePt */
SRP0[ ]	/* SetRefPoint0 */
MIRP[11101]	/* MoveIndirectRelPt */
SLOOP[ ]	/* SetLoopVariable */
ALIGNRP[ ]	/* AlignRelativePt */
SVTCA[1]	/* SetFreedomAndProjectionVectorToAxis */
MDAP[1]	/* MoveDirectAbsPt */
ALIGNRP[ ]	/* AlignRelativePt */
MIRP[11101]	/* MoveIndirectRelPt */
SLOOP[ ]	/* SetLoopVariable */
ALIGNRP[ ]	/* AlignRelativePt */
MDAP[1]	/* MoveDirectAbsPt */
ALIGNRP[ ]	/* AlignRelativePt */
MIRP[11101]	/* MoveIndirectRelPt */
SRP0[ ]	/* SetRefPoint0 */
MIRP[11101]	/* MoveIndirectRelPt */
SRP0[ ]	/* SetRefPoint0 */
MIRP[11101]	/* MoveIndirectRelPt */
ALIGNRP[ ]	/* AlignRelativePt */
SRP0[ ]	/* SetRefPoint0 */
MIRP[11101]	/* MoveIndirectRelPt */
ALIGNRP[ ]	/* AlignRelativePt */
SDPVTL[1]	/* SetDualPVectorToLine */
MDAP[0]	/* MoveDirectAbsPt */
SFVTL[0]	/* SetFVectorToLine */
MDRP[00100]	/* MoveDirectRelPt */
SFVTPV[ ]	/* SetFVectorToPVector */
MIRP[11100]	/* MoveIndirectRelPt */
SFVTL[0]	/* SetFVectorToLine */
MDRP[00100]	/* MoveDirectRelPt */
SDPVTL[1]	/* SetDualPVectorToLine */
MDAP[0]	/* MoveDirectAbsPt */
SFVTPV[ ]	/* SetFVectorToPVector */
MDRP[00100]	/* MoveDirectRelPt */
SFVTL[0]	/* SetFVectorToLine */
MIRP[11100]	/* MoveIndirectRelPt */
SFVTPV[ ]	/* SetFVectorToPVector */
MDRP[00100]	/* MoveDirectRelPt */
SFVTL[0]	/* SetFVectorToLine */
MDRP[00100]	/* MoveDirectRelPt */
SFVTL[0]	/* SetFVectorToLine */
MDRP[00100]	/* MoveDirectRelPt */
SVTCA[1]	/* SetFreedomAndProjectionVectorToAxis */
MDAP[0]	/* MoveDirectAbsPt */
MDAP[0]	/* MoveDirectAbsPt */
MDAP[0]	/* MoveDirectAbsPt */
SVTCA[0]	/* SetFreedomAndProjectionVectorToAxis */
MDAP[0]	/* MoveDirectAbsPt */
MDAP[0]	/* MoveDirectAbsPt */
IUP[1]	/* InterpolateUntPts */
IUP[0]	/* InterpolateUntPts */
SVTCA[1]	/* SetFreedomAndProjectionVectorToAxis */
MD[0]	/* MeasureDistance */
ROUND[00]	/* Round */
PUSHW[ ]	/* 2 values pushed */
19 52
MD[0]	/* MeasureDistance */
ROUND[00]	/* Round */
SUB[ ]	/* Subtract */
PUSHB[ ]	/* 1 value pushed */
64
GT[ ]	/* GreaterThan */
IF[ ]	/* If */
SHPIX[ ]	/* ShiftZoneByPixel */
SRP1[ ]	/* SetRefPoint1 */
SHZ[1]	/* ShiftZoneByLastPoint */
PUSHW[ ]	/* 2 values pushed */
52 -64
SHPIX[ ]	/* ShiftZoneByPixel */
EIF[ ]	/* EndIf */";
};
width = 1320;
}
);
note = K;
unicode = 75;
},
{
glyphname = L;
lastChange = "2025-02-10 17:36:15 +0000";
layers = (
{
background = {
shapes = (
{
closed = 1;
nodes = (
(1005,211,o),
(963,211,qs),
(919,211,o),
(920,155,qs),
(921,84,l),
(362,84,l),
(362,1086,l),
(433,1086,ls),
(489,1086,o),
(489,1129,qs),
(489,1171,o),
(433,1171,qs),
(207,1171,ls),
(151,1171,o),
(151,1129,qs),
(151,1086,o),
(207,1086,qs),
(278,1086,l),
(277,84,l),
(206,84,ls),
(150,84,o),
(150,41,qs),
(150,-1,o),
(206,-1,qs),
(1005,0,l),
(1005,155,ls)
);
}
);
};
layerId = m01;
shapes = (
{
closed = 1;
nodes = (
(1005,0,l),
(1005,155,ls),
(1005,192,o),
(991,211,o),
(963,211,cs),
(934,211,o),
(919,192,o),
(920,155,cs),
(921,84,l),
(362,84,l),
(362,1086,l),
(433,1086,ls),
(470,1086,o),
(489,1100,o),
(489,1129,cs),
(489,1157,o),
(470,1171,o),
(433,1171,cs),
(207,1171,ls),
(170,1171,o),
(151,1157,o),
(151,1129,cs),
(151,1100,o),
(170,1086,o),
(207,1086,cs),
(278,1086,l),
(277,84,l),
(206,84,ls),
(169,84,o),
(150,70,o),
(150,41,cs),
(150,13,o),
(169,-1,o),
(206,-1,cs)
);
}
);
userData = {
assembly = "NPUSHB[ ]	/* 48 values pushed */
1 26 26 64 27 0 15 17 18 3 10 17 6 19 18 6 7 6 21 20 6 25 0 23 7 0 20 19 6 3 5 8 0 18 17 8 3 7 8 12 13 12 3 1 1 1 3 70
SROUND[ ]	/* SuperRound */
MDAP[1]	/* MoveDirectAbsPt */
SHZ[1]	/* ShiftZoneByLastPoint */
RTG[ ]	/* RoundToGrid */
SVTCA[0]	/* SetFreedomAndProjectionVectorToAxis */
MIAP[1]	/* MoveIndirectAbsPt */
MIAP[1]	/* MoveIndirectAbsPt */
ALIGNRP[ ]	/* AlignRelativePt */
SRP0[ ]	/* SetRefPoint0 */
MIRP[11101]	/* MoveIndirectRelPt */
SLOOP[ ]	/* SetLoopVariable */
ALIGNRP[ ]	/* AlignRelativePt */
MDAP[1]	/* MoveDirectAbsPt */
MIRP[11101]	/* MoveIndirectRelPt */
SLOOP[ ]	/* SetLoopVariable */
ALIGNRP[ ]	/* AlignRelativePt */
SRP0[ ]	/* SetRefPoint0 */
MIRP[11101]	/* MoveIndirectRelPt */
SVTCA[1]	/* SetFreedomAndProjectionVectorToAxis */
MDAP[1]	/* MoveDirectAbsPt */
ALIGNRP[ ]	/* AlignRelativePt */
MIRP[11101]	/* MoveIndirectRelPt */
ALIGNRP[ ]	/* AlignRelativePt */
MDAP[1]	/* MoveDirectAbsPt */
ALIGNRP[ ]	/* AlignRelativePt */
MIRP[11101]	/* MoveIndirectRelPt */
ALIGNRP[ ]	/* AlignRelativePt */
SRP0[ ]	/* SetRefPoint0 */
MIRP[11101]	/* MoveIndirectRelPt */
ALIGNRP[ ]	/* AlignRelativePt */
SRP0[ ]	/* SetRefPoint0 */
MIRP[11101]	/* MoveIndirectRelPt */
SVTCA[0]	/* SetFreedomAndProjectionVectorToAxis */
IUP[1]	/* InterpolateUntPts */
IUP[0]	/* InterpolateUntPts */
SVTCA[1]	/* SetFreedomAndProjectionVectorToAxis */
MD[0]	/* MeasureDistance */
ROUND[00]	/* Round */
PUSHW[ ]	/* 2 values pushed */
3 26
MD[0]	/* MeasureDistance */
ROUND[00]	/* Round */
SUB[ ]	/* Subtract */
PUSHB[ ]	/* 1 value pushed */
64
GT[ ]	/* GreaterThan */
IF[ ]	/* If */
SHPIX[ ]	/* ShiftZoneByPixel */
SRP1[ ]	/* SetRefPoint1 */
SHZ[1]	/* ShiftZoneByLastPoint */
PUSHW[ ]	/* 2 values pushed */
26 -64
SHPIX[ ]	/* ShiftZoneByPixel */
EIF[ ]	/* EndIf */";
};
width = 1155;
}
);
note = L;
unicode = 76;
},
{
glyphname = M;
lastChange = "2025-02-10 17:36:15 +0000";
layers = (
{
background = {
shapes = (
{
closed = 1;
nodes = (
(1286,84,qs),
(1215,84,l),
(1215,1086,l),
(1286,1086,ls),
(1342,1086,o),
(1342,1129,qs),
(1342,1147,o),
(1329,1159,q),
(1303,1169,o),
(1286,1171,q),
(1061,1170,l),
(748,446,l),
(430,1170,l),
(206,1171,l),
(163,1159,o),
(163,1159,q),
(150,1147,o),
(150,1129,qs),
(150,1086,o),
(206,1086,qs),
(277,1086,l),
(277,84,l),
(206,84,ls),
(150,84,o),
(150,41,qs),
(150,-1,o),
(206,-1,qs),
(432,-1,ls),
(488,-1,o),
(488,41,qs),
(488,84,o),
(432,84,qs),
(361,84,l),
(361,1086,l),
(377,1086,l),
(700,351,l),
(796,351,l),
(1113,1086,l),
(1131,1086,l),
(1131,84,l),
(1060,84,ls),
(1004,84,o),
(1004,41,qs),
(1004,-1,o),
(1060,-1,qs),
(1286,-1,ls),
(1342,-1,o),
(1342,41,qs),
(1342,84,o)
);
}
);
};
layerId = m01;
shapes = (
{
closed = 1;
nodes = (
(432,-1,ls),
(469,-1,o),
(488,13,o),
(488,41,cs),
(488,70,o),
(469,84,o),
(432,84,cs),
(361,84,l),
(361,1086,l),
(377,1086,l),
(700,351,l),
(796,351,l),
(1113,1086,l),
(1131,1086,l),
(1131,84,l),
(1060,84,ls),
(1023,84,o),
(1004,70,o),
(1004,41,cs),
(1004,13,o),
(1023,-1,o),
(1060,-1,cs),
(1286,-1,ls),
(1323,-1,o),
(1342,13,o),
(1342,41,cs),
(1342,70,o),
(1323,84,o),
(1286,84,cs),
(1215,84,l),
(1215,1086,l),
(1286,1086,ls),
(1323,1086,o),
(1342,1100,o),
(1342,1129,cs),
(1342,1141,o),
(1338,1151,o),
(1329,1159,c),
(1312,1166,o),
(1297,1170,o),
(1286,1171,c),
(1061,1170,l),
(748,446,l),
(430,1170,l),
(206,1171,l),
(163,1159,l),
(154,1151,o),
(150,1141,o),
(150,1129,cs),
(150,1100,o),
(169,1086,o),
(206,1086,cs),
(277,1086,l),
(277,84,l),
(206,84,ls),
(169,84,o),
(150,70,o),
(150,41,cs),
(150,13,o),
(169,-1,o),
(206,-1,cs)
);
}
);
userData = {
assembly = "NPUSHB[ ]	/* 90 values pushed */
1 49 49 64 50 0 36 12 11 36 35 36 37 9 37 38 11 10 10 11 35 34 35 36 9 36 37 13 12 12 13 18 17 14 30 23 17 26 42 0 17 45 5 17 8 9 8 6 46 45 15 14 6 27 26 47 46 26 25 16 15 8 7 7 8 2 45 44 28 27 14 13 10 7 9 8 37 35 38 34 3 21 20 3 3 2 1 1 23 70
SROUND[ ]	/* SuperRound */
MDAP[1]	/* MoveDirectAbsPt */
SHZ[1]	/* ShiftZoneByLastPoint */
RTG[ ]	/* RoundToGrid */
SVTCA[0]	/* SetFreedomAndProjectionVectorToAxis */
MIAP[1]	/* MoveIndirectAbsPt */
SLOOP[ ]	/* SetLoopVariable */
ALIGNRP[ ]	/* AlignRelativePt */
MIAP[1]	/* MoveIndirectAbsPt */
ALIGNRP[ ]	/* AlignRelativePt */
MDAP[1]	/* MoveDirectAbsPt */
ALIGNRP[ ]	/* AlignRelativePt */
MIRP[11101]	/* MoveIndirectRelPt */
SLOOP[ ]	/* SetLoopVariable */
ALIGNRP[ ]	/* AlignRelativePt */
SRP0[ ]	/* SetRefPoint0 */
MIRP[11101]	/* MoveIndirectRelPt */
SLOOP[ ]	/* SetLoopVariable */
ALIGNRP[ ]	/* AlignRelativePt */
SVTCA[1]	/* SetFreedomAndProjectionVectorToAxis */
MDAP[1]	/* MoveDirectAbsPt */
ALIGNRP[ ]	/* AlignRelativePt */
MIRP[11101]	/* MoveIndirectRelPt */
ALIGNRP[ ]	/* AlignRelativePt */
MDAP[1]	/* MoveDirectAbsPt */
ALIGNRP[ ]	/* AlignRelativePt */
MIRP[11101]	/* MoveIndirectRelPt */
ALIGNRP[ ]	/* AlignRelativePt */
SRP0[ ]	/* SetRefPoint0 */
MIRP[11101]	/* MoveIndirectRelPt */
SRP0[ ]	/* SetRefPoint0 */
MIRP[11101]	/* MoveIndirectRelPt */
ALIGNRP[ ]	/* AlignRelativePt */
SRP0[ ]	/* SetRefPoint0 */
MIRP[11101]	/* MoveIndirectRelPt */
ALIGNRP[ ]	/* AlignRelativePt */
SRP0[ ]	/* SetRefPoint0 */
MIRP[11101]	/* MoveIndirectRelPt */
SDPVTL[1]	/* SetDualPVectorToLine */
MDAP[0]	/* MoveDirectAbsPt */
SFVTPV[ ]	/* SetFVectorToPVector */
MDRP[00100]	/* MoveDirectRelPt */
SFVTL[0]	/* SetFVectorToLine */
MIRP[11100]	/* MoveIndirectRelPt */
SFVTL[0]	/* SetFVectorToLine */
MDRP[00100]	/* MoveDirectRelPt */
SDPVTL[1]	/* SetDualPVectorToLine */
MDAP[0]	/* MoveDirectAbsPt */
SFVTPV[ ]	/* SetFVectorToPVector */
MDRP[00100]	/* MoveDirectRelPt */
SFVTL[0]	/* SetFVectorToLine */
MIRP[11100]	/* MoveIndirectRelPt */
SFVTL[0]	/* SetFVectorToLine */
MDRP[00100]	/* MoveDirectRelPt */
SVTCA[1]	/* SetFreedomAndProjectionVectorToAxis */
SVTCA[0]	/* SetFreedomAndProjectionVectorToAxis */
MDAP[0]	/* MoveDirectAbsPt */
MDAP[0]	/* MoveDirectAbsPt */
MDAP[0]	/* MoveDirectAbsPt */
IUP[1]	/* InterpolateUntPts */
IUP[0]	/* InterpolateUntPts */
SVTCA[1]	/* SetFreedomAndProjectionVectorToAxis */
MD[0]	/* MeasureDistance */
ROUND[00]	/* Round */
PUSHW[ ]	/* 2 values pushed */
23 49
MD[0]	/* MeasureDistance */
ROUND[00]	/* Round */
SUB[ ]	/* Subtract */
PUSHB[ ]	/* 1 value pushed */
64
GT[ ]	/* GreaterThan */
IF[ ]	/* If */
SHPIX[ ]	/* ShiftZoneByPixel */
SRP1[ ]	/* SetRefPoint1 */
SHZ[1]	/* ShiftZoneByLastPoint */
PUSHW[ ]	/* 2 values pushed */
49 -64
SHPIX[ ]	/* ShiftZoneByPixel */
EIF[ ]	/* EndIf */";
};
width = 1491;
}
);
note = M;
unicode = 77;
},
{
glyphname = N;
lastChange = "2025-02-10 17:36:15 +0000";
layers = (
{
background = {
shapes = (
{
closed = 1;
nodes = (
(1159,1171,qs),
(933,1171,ls),
(877,1171,o),
(877,1129,qs),
(877,1086,o),
(933,1086,qs),
(1004,1086,l),
(1004,121,l),
(384,1170,l),
(206,1171,ls),
(150,1171,o),
(150,1129,qs),
(150,1086,o),
(206,1086,qs),
(277,1086,l),
(277,84,l),
(206,84,ls),
(150,84,o),
(150,41,qs),
(150,-1,o),
(206,-1,qs),
(432,-1,ls),
(488,-1,o),
(488,41,qs),
(488,84,o),
(432,84,qs),
(361,84,l),
(361,1047,l),
(980,0,l),
(1088,0,l),
(1088,1086,l),
(1159,1086,ls),
(1215,1086,o),
(1215,1129,qs),
(1215,1171,o)
);
}
);
};
layerId = m01;
shapes = (
{
closed = 1;
nodes = (
(432,-1,ls),
(469,-1,o),
(488,13,o),
(488,41,cs),
(488,70,o),
(469,84,o),
(432,84,cs),
(361,84,l),
(361,1047,l),
(980,0,l),
(1088,0,l),
(1088,1086,l),
(1159,1086,ls),
(1196,1086,o),
(1215,1100,o),
(1215,1129,cs),
(1215,1157,o),
(1196,1171,o),
(1159,1171,cs),
(933,1171,ls),
(896,1171,o),
(877,1157,o),
(877,1129,cs),
(877,1100,o),
(896,1086,o),
(933,1086,cs),
(1004,1086,l),
(1004,121,l),
(384,1170,l),
(206,1171,ls),
(169,1171,o),
(150,1157,o),
(150,1129,cs),
(150,1100,o),
(169,1086,o),
(206,1086,cs),
(277,1086,l),
(277,84,l),
(206,84,ls),
(169,84,o),
(150,70,o),
(150,41,cs),
(150,13,o),
(169,-1,o),
(206,-1,cs)
);
}
);
userData = {
assembly = "NPUSHB[ ]	/* 73 values pushed */
1 35 35 64 36 0 26 6 25 24 25 26 9 26 27 6 6 7 5 5 6 0 17 3 30 17 26 10 17 6 22 15 17 18 7 6 6 19 18 27 26 6 4 3 28 27 20 19 3 5 2 8 24 18 17 8 3 7 8 12 33 32 24 3 13 12 5 3 4 1 1 15 70
SROUND[ ]	/* SuperRound */
MDAP[1]	/* MoveDirectAbsPt */
SHZ[1]	/* ShiftZoneByLastPoint */
RTG[ ]	/* RoundToGrid */
SVTCA[0]	/* SetFreedomAndProjectionVectorToAxis */
MIAP[1]	/* MoveIndirectAbsPt */
SLOOP[ ]	/* SetLoopVariable */
ALIGNRP[ ]	/* AlignRelativePt */
MIAP[1]	/* MoveIndirectAbsPt */
ALIGNRP[ ]	/* AlignRelativePt */
ALIGNRP[ ]	/* AlignRelativePt */
SRP0[ ]	/* SetRefPoint0 */
MIRP[11101]	/* MoveIndirectRelPt */
SLOOP[ ]	/* SetLoopVariable */
ALIGNRP[ ]	/* AlignRelativePt */
SRP0[ ]	/* SetRefPoint0 */
MIRP[11101]	/* MoveIndirectRelPt */
SLOOP[ ]	/* SetLoopVariable */
ALIGNRP[ ]	/* AlignRelativePt */
SVTCA[1]	/* SetFreedomAndProjectionVectorToAxis */
MDAP[1]	/* MoveDirectAbsPt */
ALIGNRP[ ]	/* AlignRelativePt */
MIRP[11101]	/* MoveIndirectRelPt */
ALIGNRP[ ]	/* AlignRelativePt */
MDAP[1]	/* MoveDirectAbsPt */
ALIGNRP[ ]	/* AlignRelativePt */
MIRP[11101]	/* MoveIndirectRelPt */
ALIGNRP[ ]	/* AlignRelativePt */
SRP0[ ]	/* SetRefPoint0 */
MIRP[11101]	/* MoveIndirectRelPt */
ALIGNRP[ ]	/* AlignRelativePt */
SRP0[ ]	/* SetRefPoint0 */
MIRP[11101]	/* MoveIndirectRelPt */
SRP0[ ]	/* SetRefPoint0 */
MIRP[11101]	/* MoveIndirectRelPt */
SRP0[ ]	/* SetRefPoint0 */
MIRP[11101]	/* MoveIndirectRelPt */
SDPVTL[1]	/* SetDualPVectorToLine */
MDAP[0]	/* MoveDirectAbsPt */
SFVTL[0]	/* SetFVectorToLine */
MDRP[00100]	/* MoveDirectRelPt */
SFVTL[0]	/* SetFVectorToLine */
MIRP[11100]	/* MoveIndirectRelPt */
SFVTL[0]	/* SetFVectorToLine */
MDRP[00100]	/* MoveDirectRelPt */
SVTCA[1]	/* SetFreedomAndProjectionVectorToAxis */
SVTCA[0]	/* SetFreedomAndProjectionVectorToAxis */
MDAP[0]	/* MoveDirectAbsPt */
MDAP[0]	/* MoveDirectAbsPt */
IUP[1]	/* InterpolateUntPts */
IUP[0]	/* InterpolateUntPts */
SVTCA[1]	/* SetFreedomAndProjectionVectorToAxis */
MD[0]	/* MeasureDistance */
ROUND[00]	/* Round */
PUSHW[ ]	/* 2 values pushed */
15 35
MD[0]	/* MeasureDistance */
ROUND[00]	/* Round */
SUB[ ]	/* Subtract */
PUSHB[ ]	/* 1 value pushed */
64
GT[ ]	/* GreaterThan */
IF[ ]	/* If */
SHPIX[ ]	/* ShiftZoneByPixel */
SRP1[ ]	/* SetRefPoint1 */
SHZ[1]	/* ShiftZoneByLastPoint */
PUSHW[ ]	/* 2 values pushed */
35 -64
SHPIX[ ]	/* ShiftZoneByPixel */
EIF[ ]	/* EndIf */";
};
width = 1364;
}
);
note = N;
unicode = 78;
},
{
glyphname = O;
lastChange = "2025-02-10 17:36:15 +0000";
layers = (
{
background = {
shapes = (
{
closed = 1;
nodes = (
(1040,1002,qs),
(894,1199,o),
(662,1199,qs),
(430,1199,o),
(283,1002,qs),
(150,823,o),
(150,584,qs),
(150,345,o),
(283,166,qs),
(430,-31,o),
(662,-31,qs),
(894,-31,o),
(1041,166,qs),
(1174,344,o),
(1174,584,qs),
(1174,823,o)
);
},
{
closed = 1;
nodes = (
(979,226,qs),
(856,53,o),
(662,53,qs),
(468,53,o),
(345,227,qs),
(234,383,o),
(234,584,qs),
(234,786,o),
(345,941,qs),
(468,1115,o),
(662,1115,qs),
(856,1115,o),
(979,942,qs),
(1089,786,o),
(1089,584,qs),
(1089,381,o)
);
}
);
};
layerId = m01;
shapes = (
{
closed = 1;
nodes = (
(817,-31,o),
(943,35,o),
(1041,166,cs),
(1130,285,o),
(1174,424,o),
(1174,584,cs),
(1174,743,o),
(1129,883,o),
(1040,1002,cs),
(943,1133,o),
(817,1199,o),
(662,1199,cs),
(507,1199,o),
(381,1133,o),
(283,1002,cs),
(194,883,o),
(150,743,o),
(150,584,cs),
(150,425,o),
(194,285,o),
(283,166,cs),
(381,35,o),
(507,-31,o),
(662,-31,cs)
);
},
{
closed = 1;
nodes = (
(533,53,o),
(427,111,o),
(345,227,cs),
(271,331,o),
(234,450,o),
(234,584,cs),
(234,719,o),
(271,838,o),
(345,941,cs),
(427,1057,o),
(533,1115,o),
(662,1115,cs),
(791,1115,o),
(897,1057,o),
(979,942,cs),
(1052,838,o),
(1089,719,o),
(1089,584,cs),
(1089,449,o),
(1052,329,o),
(979,226,cs),
(897,111,o),
(791,53,o),
(662,53,cs)
);
}
);
userData = {
assembly = "NPUSHB[ ]	/* 25 values pushed */
1 32 32 64 33 0 24 6 8 16 6 0 28 8 4 20 8 12 12 3 4 1 1 8 70
SROUND[ ]	/* SuperRound */
MDAP[1]	/* MoveDirectAbsPt */
SHZ[1]	/* ShiftZoneByLastPoint */
RTG[ ]	/* RoundToGrid */
SVTCA[0]	/* SetFreedomAndProjectionVectorToAxis */
MIAP[1]	/* MoveIndirectAbsPt */
MIAP[1]	/* MoveIndirectAbsPt */
SRP0[ ]	/* SetRefPoint0 */
MIRP[11101]	/* MoveIndirectRelPt */
SRP0[ ]	/* SetRefPoint0 */
MIRP[11101]	/* MoveIndirectRelPt */
SVTCA[1]	/* SetFreedomAndProjectionVectorToAxis */
MDAP[1]	/* MoveDirectAbsPt */
MIRP[11101]	/* MoveIndirectRelPt */
MDAP[1]	/* MoveDirectAbsPt */
MIRP[11101]	/* MoveIndirectRelPt */
SVTCA[0]	/* SetFreedomAndProjectionVectorToAxis */
IUP[1]	/* InterpolateUntPts */
IUP[0]	/* InterpolateUntPts */
SVTCA[1]	/* SetFreedomAndProjectionVectorToAxis */
MD[0]	/* MeasureDistance */
ROUND[00]	/* Round */
PUSHW[ ]	/* 2 values pushed */
8 32
MD[0]	/* MeasureDistance */
ROUND[00]	/* Round */
SUB[ ]	/* Subtract */
PUSHB[ ]	/* 1 value pushed */
64
GT[ ]	/* GreaterThan */
IF[ ]	/* If */
SHPIX[ ]	/* ShiftZoneByPixel */
SRP1[ ]	/* SetRefPoint1 */
SHZ[1]	/* ShiftZoneByLastPoint */
PUSHW[ ]	/* 2 values pushed */
32 -64
SHPIX[ ]	/* ShiftZoneByPixel */
EIF[ ]	/* EndIf */";
};
width = 1324;
}
);
note = O;
unicode = 79;
},
{
glyphname = P;
lastChange = "2025-02-10 17:36:15 +0000";
layers = (
{
background = {
shapes = (
{
closed = 1;
nodes = (
(922,1078,qs),
(808,1169,o),
(652,1169,qs),
(206,1170,ls),
(150,1170,o),
(150,1128,qs),
(150,1085,o),
(206,1085,qs),
(277,1085,l),
(277,83,l),
(206,83,ls),
(150,83,o),
(150,40,qs),
(150,-2,o),
(206,-2,qs),
(432,-2,ls),
(488,-2,o),
(488,40,qs),
(488,83,o),
(432,83,qs),
(361,83,l),
(361,479,l),
(381,479,o),
(496,475,qs),
(582,472,o),
(637,476,qs),
(713,480,o),
(768,498,qs),
(890,538,o),
(963,618,qs),
(1044,707,o),
(1044,828,qs),
(1044,981,o)
);
},
{
closed = 1;
nodes = (
(850,632,qs),
(752,563,o),
(629,563,qs),
(361,563,l),
(361,1085,l),
(660,1085,ls),
(776,1085,o),
(864,1016,qs),
(960,941,o),
(960,828,qs),
(960,710,o)
);
}
);
};
layerId = m01;
shapes = (
{
closed = 1;
nodes = (
(432,-2,ls),
(469,-2,o),
(488,12,o),
(488,40,cs),
(488,69,o),
(469,83,o),
(432,83,cs),
(361,83,l),
(361,479,l),
(496,475,ls),
(553,473,o),
(600,473,o),
(637,476,cs),
(688,479,o),
(731,486,o),
(768,498,cs),
(849,525,o),
(914,565,o),
(963,618,cs),
(1017,677,o),
(1044,747,o),
(1044,828,cs),
(1044,930,o),
(1003,1013,o),
(922,1078,cs),
(846,1139,o),
(756,1169,o),
(652,1169,cs),
(206,1170,ls),
(169,1170,o),
(150,1156,o),
(150,1128,cs),
(150,1099,o),
(169,1085,o),
(206,1085,cs),
(277,1085,l),
(277,83,l),
(206,83,ls),
(169,83,o),
(150,69,o),
(150,40,cs),
(150,12,o),
(169,-2,o),
(206,-2,cs)
);
},
{
closed = 1;
nodes = (
(361,1085,l),
(660,1085,ls),
(737,1085,o),
(805,1062,o),
(864,1016,cs),
(928,966,o),
(960,903,o),
(960,828,cs),
(960,749,o),
(923,684,o),
(850,632,cs),
(785,586,o),
(711,563,o),
(629,563,cs),
(361,563,l)
);
}
);
userData = {
assembly = "NPUSHB[ ]	/* 52 values pushed */
1 44 44 64 45 0 10 8 14 17 10 26 19 17 22 39 38 11 3 10 6 23 22 33 6 0 40 39 7 16 22 21 12 3 11 8 16 38 37 24 3 23 8 29 28 3 17 16 1 1 19 70
SROUND[ ]	/* SuperRound */
MDAP[1]	/* MoveDirectAbsPt */
SHZ[1]	/* ShiftZoneByLastPoint */
RTG[ ]	/* RoundToGrid */
SVTCA[0]	/* SetFreedomAndProjectionVectorToAxis */
MIAP[1]	/* MoveIndirectAbsPt */
ALIGNRP[ ]	/* AlignRelativePt */
MIAP[1]	/* MoveIndirectAbsPt */
MDAP[1]	/* MoveDirectAbsPt */
MIRP[11101]	/* MoveIndirectRelPt */
SLOOP[ ]	/* SetLoopVariable */
ALIGNRP[ ]	/* AlignRelativePt */
SRP0[ ]	/* SetRefPoint0 */
MIRP[11101]	/* MoveIndirectRelPt */
SLOOP[ ]	/* SetLoopVariable */
ALIGNRP[ ]	/* AlignRelativePt */
SRP0[ ]	/* SetRefPoint0 */
MIRP[11101]	/* MoveIndirectRelPt */
ALIGNRP[ ]	/* AlignRelativePt */
SVTCA[1]	/* SetFreedomAndProjectionVectorToAxis */
MDAP[1]	/* MoveDirectAbsPt */
MIRP[11101]	/* MoveIndirectRelPt */
MDAP[1]	/* MoveDirectAbsPt */
ALIGNRP[ ]	/* AlignRelativePt */
MIRP[11101]	/* MoveIndirectRelPt */
SLOOP[ ]	/* SetLoopVariable */
ALIGNRP[ ]	/* AlignRelativePt */
SRP0[ ]	/* SetRefPoint0 */
MIRP[11101]	/* MoveIndirectRelPt */
ALIGNRP[ ]	/* AlignRelativePt */
SRP0[ ]	/* SetRefPoint0 */
MIRP[11101]	/* MoveIndirectRelPt */
SVTCA[0]	/* SetFreedomAndProjectionVectorToAxis */
MDAP[0]	/* MoveDirectAbsPt */
MDAP[0]	/* MoveDirectAbsPt */
IUP[1]	/* InterpolateUntPts */
IUP[0]	/* InterpolateUntPts */
SVTCA[1]	/* SetFreedomAndProjectionVectorToAxis */
MD[0]	/* MeasureDistance */
ROUND[00]	/* Round */
PUSHW[ ]	/* 2 values pushed */
19 44
MD[0]	/* MeasureDistance */
ROUND[00]	/* Round */
SUB[ ]	/* Subtract */
PUSHB[ ]	/* 1 value pushed */
64
GT[ ]	/* GreaterThan */
IF[ ]	/* If */
SHPIX[ ]	/* ShiftZoneByPixel */
SRP1[ ]	/* SetRefPoint1 */
SHZ[1]	/* ShiftZoneByLastPoint */
PUSHW[ ]	/* 2 values pushed */
44 -64
SHPIX[ ]	/* ShiftZoneByPixel */
EIF[ ]	/* EndIf */";
};
width = 1192;
}
);
note = P;
unicode = 80;
},
{
glyphname = Q;
lastChange = "2025-02-10 17:36:15 +0000";
layers = (
{
background = {
shapes = (
{
closed = 1;
nodes = (
(1040,999,qs),
(894,1196,o),
(662,1196,qs),
(430,1196,o),
(284,999,qs),
(150,820,o),
(150,581,qs),
(150,375,o),
(253,208,qs),
(366,25,o),
(556,-22,q),
(497,-63,o),
(438,-103,qs),
(346,-170,o),
(346,-193,qs),
(346,-237,o),
(387,-237,qs),
(396,-237,o),
(416,-232,qs),
(599,-186,o),
(699,-186,qs),
(747,-186,o),
(915,-240,o),
(958,-240,qs),
(1006,-240,o),
(1084,-209,qs),
(1173,-172,o),
(1173,-133,qs),
(1173,-91,o),
(1132,-91,qs),
(1126,-91,o),
(1008,-156,o),
(963,-156,qs),
(934,-156,o),
(757,-101,o),
(697,-101,qs),
(643,-101,o),
(560,-118,q),
(672,-34,l),
(899,-31,o),
(1043,167,qs),
(1174,346,o),
(1174,581,qs),
(1174,820,o)
);
},
{
closed = 1;
nodes = (
(979,223,qs),
(856,50,o),
(662,50,qs),
(468,50,o),
(345,224,qs),
(234,380,o),
(234,581,qs),
(234,783,o),
(345,938,qs),
(468,1112,o),
(662,1112,qs),
(856,1112,o),
(979,939,qs),
(1089,783,o),
(1089,581,qs),
(1089,378,o)
);
}
);
};
layerId = m01;
shapes = (
{
closed = 1;
nodes = (
(990,-240,o),
(1032,-230,o),
(1084,-209,cs),
(1143,-184,o),
(1173,-159,o),
(1173,-133,cs),
(1173,-105,o),
(1159,-91,o),
(1132,-91,cs),
(1128,-91,o),
(1106,-102,o),
(1067,-123,cs),
(1028,-145,o),
(993,-156,o),
(963,-156,cs),
(944,-156,o),
(905,-147,o),
(846,-128,cs),
(787,-110,o),
(737,-101,o),
(697,-101,cs),
(661,-101,o),
(615,-107,o),
(560,-118,c),
(672,-34,l),
(823,-32,o),
(947,35,o),
(1043,167,cs),
(1130,286,o),
(1174,424,o),
(1174,581,cs),
(1174,740,o),
(1129,880,o),
(1040,999,cs),
(943,1130,o),
(817,1196,o),
(662,1196,cs),
(507,1196,o),
(381,1130,o),
(284,999,cs),
(195,880,o),
(150,740,o),
(150,581,cs),
(150,444,o),
(184,319,o),
(253,208,cs),
(328,86,o),
(429,9,o),
(556,-22,c),
(438,-103,ls),
(377,-148,o),
(346,-178,o),
(346,-193,cs),
(346,-222,o),
(360,-237,o),
(387,-237,cs),
(393,-237,o),
(403,-235,o),
(416,-232,cs),
(538,-201,o),
(632,-186,o),
(699,-186,cs),
(731,-186,o),
(775,-195,o),
(831,-213,cs),
(887,-231,o),
(929,-240,o),
(958,-240,cs)
);
},
{
closed = 1;
nodes = (
(533,50,o),
(427,108,o),
(345,224,cs),
(271,328,o),
(234,447,o),
(234,581,cs),
(234,716,o),
(271,835,o),
(345,938,cs),
(427,1054,o),
(533,1112,o),
(662,1112,cs),
(791,1112,o),
(897,1054,o),
(979,939,cs),
(1052,835,o),
(1089,716,o),
(1089,581,cs),
(1089,446,o),
(1052,326,o),
(979,223,cs),
(897,108,o),
(791,50,o),
(662,50,cs)
);
}
);
userData = {
assembly = "NPUSHB[ ]	/* 37 values pushed */
1 60 60 64 61 0 26 13 5 32 28 5 52 6 36 44 6 15 0 56 7 22 10 8 19 7 8 22 48 8 40 19 40 3 1 36 70
SROUND[ ]	/* SuperRound */
MDAP[1]	/* MoveDirectAbsPt */
SHZ[1]	/* ShiftZoneByLastPoint */
RTG[ ]	/* RoundToGrid */
SVTCA[0]	/* SetFreedomAndProjectionVectorToAxis */
MIAP[1]	/* MoveIndirectAbsPt */
MDAP[1]	/* MoveDirectAbsPt */
SRP0[ ]	/* SetRefPoint0 */
MIRP[11101]	/* MoveIndirectRelPt */
MDAP[1]	/* MoveDirectAbsPt */
MIRP[11101]	/* MoveIndirectRelPt */
SRP0[ ]	/* SetRefPoint0 */
MIRP[11101]	/* MoveIndirectRelPt */
SRP0[ ]	/* SetRefPoint0 */
MIRP[11101]	/* MoveIndirectRelPt */
SVTCA[1]	/* SetFreedomAndProjectionVectorToAxis */
MDAP[1]	/* MoveDirectAbsPt */
ALIGNRP[ ]	/* AlignRelativePt */
MIRP[11101]	/* MoveIndirectRelPt */
MDAP[1]	/* MoveDirectAbsPt */
MIRP[11101]	/* MoveIndirectRelPt */
MDAP[0]	/* MoveDirectAbsPt */
MDAP[0]	/* MoveDirectAbsPt */
MDAP[0]	/* MoveDirectAbsPt */
SVTCA[0]	/* SetFreedomAndProjectionVectorToAxis */
MDAP[0]	/* MoveDirectAbsPt */
MDAP[0]	/* MoveDirectAbsPt */
MDAP[0]	/* MoveDirectAbsPt */
IUP[1]	/* InterpolateUntPts */
IUP[0]	/* InterpolateUntPts */
SVTCA[1]	/* SetFreedomAndProjectionVectorToAxis */
MD[0]	/* MeasureDistance */
ROUND[00]	/* Round */
PUSHW[ ]	/* 2 values pushed */
36 60
MD[0]	/* MeasureDistance */
ROUND[00]	/* Round */
SUB[ ]	/* Subtract */
PUSHB[ ]	/* 1 value pushed */
64
GT[ ]	/* GreaterThan */
IF[ ]	/* If */
SHPIX[ ]	/* ShiftZoneByPixel */
SRP1[ ]	/* SetRefPoint1 */
SHZ[1]	/* ShiftZoneByLastPoint */
PUSHW[ ]	/* 2 values pushed */
60 -64
SHPIX[ ]	/* ShiftZoneByPixel */
EIF[ ]	/* EndIf */";
};
width = 1324;
}
);
note = Q;
unicode = 81;
},
{
glyphname = R;
lastChange = "2025-02-10 17:36:15 +0000";
layers = (
{
background = {
shapes = (
{
closed = 1;
nodes = (
(1125,83,qs),
(1054,83,l),
(755,543,l),
(1044,641,o),
(1044,845,qs),
(1044,984,o),
(925,1080,qs),
(814,1169,o),
(672,1169,qs),
(206,1170,ls),
(150,1170,o),
(150,1128,qs),
(150,1085,o),
(206,1085,qs),
(277,1085,l),
(277,83,l),
(206,83,ls),
(150,83,o),
(150,40,qs),
(150,-2,o),
(206,-2,qs),
(432,-2,ls),
(488,-2,o),
(488,40,qs),
(488,83,o),
(432,83,qs),
(361,83,l),
(361,521,l),
(648,521,l),
(986,-1,l),
(1125,-2,ls),
(1181,-2,o),
(1181,40,qs),
(1181,83,o)
);
},
{
closed = 1;
nodes = (
(827,663,qs),
(716,605,o),
(590,605,qs),
(361,605,l),
(361,1085,l),
(670,1085,ls),
(774,1085,o),
(863,1020,qs),
(960,949,o),
(960,849,qs),
(960,734,o)
);
}
);
};
layerId = m01;
shapes = (
{
closed = 1;
nodes = (
(432,-2,ls),
(469,-2,o),
(488,12,o),
(488,40,cs),
(488,69,o),
(469,83,o),
(432,83,cs),
(361,83,l),
(361,521,l),
(648,521,l),
(986,-1,l),
(1125,-2,ls),
(1162,-2,o),
(1181,12,o),
(1181,40,cs),
(1181,69,o),
(1162,83,o),
(1125,83,cs),
(1054,83,l),
(755,543,l),
(948,608,o),
(1044,709,o),
(1044,845,cs),
(1044,938,o),
(1004,1016,o),
(925,1080,cs),
(851,1139,o),
(767,1169,o),
(672,1169,cs),
(206,1170,ls),
(169,1170,o),
(150,1156,o),
(150,1128,cs),
(150,1099,o),
(169,1085,o),
(206,1085,cs),
(277,1085,l),
(277,83,l),
(206,83,ls),
(169,83,o),
(150,69,o),
(150,40,cs),
(150,12,o),
(169,-2,o),
(206,-2,cs)
);
},
{
closed = 1;
nodes = (
(361,1085,l),
(670,1085,ls),
(739,1085,o),
(804,1063,o),
(863,1020,cs),
(928,973,o),
(960,916,o),
(960,849,cs),
(960,772,o),
(916,710,o),
(827,663,cs),
(753,624,o),
(674,605,o),
(590,605,cs),
(361,605,l)
);
}
);
userData = {
assembly = "NPUSHB[ ]	/* 67 values pushed */
1 45 45 64 46 0 30 0 3 2 3 4 10 4 5 31 30 30 31 9 17 5 21 14 17 17 40 39 6 3 5 6 18 17 34 6 28 32 31 17 16 7 5 6 8 2 41 40 8 5 4 39 38 19 3 18 8 24 23 3 12 11 2 1 1 14 70
SROUND[ ]	/* SuperRound */
MDAP[1]	/* MoveDirectAbsPt */
SHZ[1]	/* ShiftZoneByLastPoint */
RTG[ ]	/* RoundToGrid */
SVTCA[0]	/* SetFreedomAndProjectionVectorToAxis */
MIAP[1]	/* MoveIndirectAbsPt */
ALIGNRP[ ]	/* AlignRelativePt */
ALIGNRP[ ]	/* AlignRelativePt */
MIAP[1]	/* MoveIndirectAbsPt */
MDAP[1]	/* MoveDirectAbsPt */
MIRP[11101]	/* MoveIndirectRelPt */
SLOOP[ ]	/* SetLoopVariable */
ALIGNRP[ ]	/* AlignRelativePt */
MDAP[1]	/* MoveDirectAbsPt */
ALIGNRP[ ]	/* AlignRelativePt */
MIRP[11101]	/* MoveIndirectRelPt */
ALIGNRP[ ]	/* AlignRelativePt */
SRP0[ ]	/* SetRefPoint0 */
MIRP[11101]	/* MoveIndirectRelPt */
SLOOP[ ]	/* SetLoopVariable */
ALIGNRP[ ]	/* AlignRelativePt */
SVTCA[1]	/* SetFreedomAndProjectionVectorToAxis */
MDAP[1]	/* MoveDirectAbsPt */
MIRP[11101]	/* MoveIndirectRelPt */
MDAP[1]	/* MoveDirectAbsPt */
ALIGNRP[ ]	/* AlignRelativePt */
MIRP[11101]	/* MoveIndirectRelPt */
SLOOP[ ]	/* SetLoopVariable */
ALIGNRP[ ]	/* AlignRelativePt */
SRP0[ ]	/* SetRefPoint0 */
MIRP[11101]	/* MoveIndirectRelPt */
ALIGNRP[ ]	/* AlignRelativePt */
SRP0[ ]	/* SetRefPoint0 */
MIRP[11101]	/* MoveIndirectRelPt */
SDPVTL[1]	/* SetDualPVectorToLine */
MDAP[0]	/* MoveDirectAbsPt */
SFVTPV[ ]	/* SetFVectorToPVector */
MDRP[00100]	/* MoveDirectRelPt */
SFVTL[0]	/* SetFVectorToLine */
MIRP[11100]	/* MoveIndirectRelPt */
SFVTL[0]	/* SetFVectorToLine */
MDRP[00100]	/* MoveDirectRelPt */
SVTCA[1]	/* SetFreedomAndProjectionVectorToAxis */
MDAP[0]	/* MoveDirectAbsPt */
MDAP[0]	/* MoveDirectAbsPt */
SVTCA[0]	/* SetFreedomAndProjectionVectorToAxis */
IUP[1]	/* InterpolateUntPts */
IUP[0]	/* InterpolateUntPts */
SVTCA[1]	/* SetFreedomAndProjectionVectorToAxis */
MD[0]	/* MeasureDistance */
ROUND[00]	/* Round */
PUSHW[ ]	/* 2 values pushed */
14 45
MD[0]	/* MeasureDistance */
ROUND[00]	/* Round */
SUB[ ]	/* Subtract */
PUSHB[ ]	/* 1 value pushed */
64
GT[ ]	/* GreaterThan */
IF[ ]	/* If */
SHPIX[ ]	/* ShiftZoneByPixel */
SRP1[ ]	/* SetRefPoint1 */
SHZ[1]	/* ShiftZoneByLastPoint */
PUSHW[ ]	/* 2 values pushed */
45 -64
SHPIX[ ]	/* ShiftZoneByPixel */
EIF[ ]	/* EndIf */";
};
width = 1332;
}
);
note = R;
unicode = 82;
},
{
glyphname = S;
lastChange = "2025-02-10 17:36:15 +0000";
layers = (
{
background = {
shapes = (
{
closed = 1;
nodes = (
(854,588,q),
(678,629,o),
(502,670,q),
(312,723,o),
(312,873,qs),
(312,987,o),
(410,1054,qs),
(496,1113,o),
(615,1113,qs),
(747,1113,o),
(829,1046,qs),
(893,993,o),
(909,927,qs),
(927,857,o),
(928,856,qs),
(939,844,o),
(957,844,qs),
(999,844,o),
(999,900,qs),
(999,1114,ls),
(999,1170,o),
(957,1170,qs),
(915,1170,o),
(915,1086,q),
(788,1197,o),
(612,1197,qs),
(458,1197,o),
(349,1115,qs),
(228,1024,o),
(228,875,qs),
(228,686,o),
(418,616,q),
(594,573,o),
(770,531,q),
(960,474,o),
(960,317,qs),
(960,189,o),
(849,115,qs),
(753,51,o),
(619,51,qs),
(461,51,o),
(368,127,qs),
(295,185,o),
(276,257,qs),
(266,295,o),
(257,333,q),
(245,345,o),
(227,345,qs),
(185,345,o),
(185,288,qs),
(185,56,ls),
(185,0,o),
(227,0,qs),
(261,0,o),
(268,39,qs),
(269,46,o),
(269,104,q),
(400,-33,o),
(619,-33,qs),
(790,-33,o),
(910,53,qs),
(1044,149,o),
(1044,314,qs),
(1044,515,o)
);
}
);
};
layerId = m01;
shapes = (
{
closed = 1;
nodes = (
(733,-33,o),
(830,-4,o),
(910,53,cs),
(999,117,o),
(1044,204,o),
(1044,314,cs),
(1044,448,o),
(981,539,o),
(854,588,c),
(502,670,l),
(375,705,o),
(312,773,o),
(312,873,cs),
(312,949,o),
(345,1009,o),
(410,1054,cs),
(467,1093,o),
(536,1113,o),
(615,1113,cs),
(703,1113,o),
(774,1091,o),
(829,1046,cs),
(872,1011,o),
(898,971,o),
(909,927,cs),
(928,856,l),
(935,848,o),
(945,844,o),
(957,844,cs),
(985,844,o),
(999,863,o),
(999,900,cs),
(999,1114,ls),
(999,1151,o),
(985,1170,o),
(957,1170,cs),
(929,1170,o),
(915,1142,o),
(915,1086,c),
(830,1160,o),
(729,1197,o),
(612,1197,cs),
(509,1197,o),
(422,1170,o),
(349,1115,cs),
(268,1054,o),
(228,974,o),
(228,875,cs),
(228,749,o),
(291,663,o),
(418,616,c),
(770,531,l),
(897,493,o),
(960,422,o),
(960,317,cs),
(960,232,o),
(923,164,o),
(849,115,cs),
(785,72,o),
(708,51,o),
(619,51,cs),
(514,51,o),
(430,76,o),
(368,127,cs),
(319,166,o),
(289,209,o),
(276,257,cs),
(257,333,l),
(249,341,o),
(239,345,o),
(227,345,cs),
(199,345,o),
(185,326,o),
(185,288,cs),
(185,56,ls),
(185,19,o),
(199,0,o),
(227,0,cs),
(250,0,o),
(263,13,o),
(268,39,c),
(269,104,l),
(356,13,o),
(473,-33,o),
(619,-33,cs)
);
}
);
userData = {
assembly = "NPUSHB[ ]	/* 41 values pushed */
1 64 64 64 65 0 39 6 44 43 13 12 27 6 0 58 6 33 15 7 10 46 7 41 23 8 4 54 8 37 41 3 37 3 10 1 4 1 1 12 70
SROUND[ ]	/* SuperRound */
MDAP[1]	/* MoveDirectAbsPt */
SHZ[1]	/* ShiftZoneByLastPoint */
RTG[ ]	/* RoundToGrid */
SVTCA[0]	/* SetFreedomAndProjectionVectorToAxis */
MIAP[1]	/* MoveIndirectAbsPt */
MIAP[1]	/* MoveIndirectAbsPt */
MIAP[1]	/* MoveIndirectAbsPt */
MIAP[1]	/* MoveIndirectAbsPt */
SRP0[ ]	/* SetRefPoint0 */
MIRP[11101]	/* MoveIndirectRelPt */
SRP0[ ]	/* SetRefPoint0 */
MIRP[11101]	/* MoveIndirectRelPt */
SRP0[ ]	/* SetRefPoint0 */
MIRP[11101]	/* MoveIndirectRelPt */
SRP0[ ]	/* SetRefPoint0 */
MIRP[11101]	/* MoveIndirectRelPt */
SVTCA[1]	/* SetFreedomAndProjectionVectorToAxis */
MDAP[1]	/* MoveDirectAbsPt */
MIRP[11101]	/* MoveIndirectRelPt */
MDAP[1]	/* MoveDirectAbsPt */
MIRP[11101]	/* MoveIndirectRelPt */
MDAP[0]	/* MoveDirectAbsPt */
MDAP[0]	/* MoveDirectAbsPt */
MDAP[0]	/* MoveDirectAbsPt */
MDAP[0]	/* MoveDirectAbsPt */
SVTCA[0]	/* SetFreedomAndProjectionVectorToAxis */
MDAP[0]	/* MoveDirectAbsPt */
MDAP[0]	/* MoveDirectAbsPt */
IUP[1]	/* InterpolateUntPts */
IUP[0]	/* InterpolateUntPts */
SVTCA[1]	/* SetFreedomAndProjectionVectorToAxis */
MD[0]	/* MeasureDistance */
ROUND[00]	/* Round */
PUSHW[ ]	/* 2 values pushed */
12 64
MD[0]	/* MeasureDistance */
ROUND[00]	/* Round */
SUB[ ]	/* Subtract */
PUSHB[ ]	/* 1 value pushed */
64
GT[ ]	/* GreaterThan */
IF[ ]	/* If */
SHPIX[ ]	/* ShiftZoneByPixel */
SRP1[ ]	/* SetRefPoint1 */
SHZ[1]	/* ShiftZoneByLastPoint */
PUSHW[ ]	/* 2 values pushed */
64 -64
SHPIX[ ]	/* ShiftZoneByPixel */
EIF[ ]	/* EndIf */";
};
width = 1229;
}
);
note = S;
unicode = 83;
},
{
glyphname = T;
lastChange = "2025-02-10 17:36:15 +0000";
layers = (
{
background = {
shapes = (
{
closed = 1;
nodes = (
(150,1169,l),
(150,1014,ls),
(150,958,o),
(192,958,qs),
(236,958,o),
(235,1014,qs),
(234,1085,l),
(578,1085,l),
(579,83,l),
(508,83,ls),
(452,83,o),
(452,40,qs),
(452,-2,o),
(508,-2,qs),
(734,-2,ls),
(790,-2,o),
(790,40,qs),
(790,83,o),
(734,83,qs),
(663,83,l),
(663,1085,l),
(1007,1085,l),
(1006,1014,ls),
(1005,958,o),
(1049,958,qs),
(1091,958,o),
(1091,1014,qs),
(1091,1169,l)
);
}
);
};
layerId = m01;
shapes = (
{
closed = 1;
nodes = (
(734,-2,ls),
(771,-2,o),
(790,12,o),
(790,40,cs),
(790,69,o),
(771,83,o),
(734,83,cs),
(663,83,l),
(663,1085,l),
(1007,1085,l),
(1006,1014,ls),
(1005,977,o),
(1020,958,o),
(1049,958,cs),
(1077,958,o),
(1091,977,o),
(1091,1014,cs),
(1091,1169,l),
(150,1169,l),
(150,1014,ls),
(150,977,o),
(164,958,o),
(192,958,cs),
(221,958,o),
(236,977,o),
(235,1014,cs),
(234,1085,l),
(578,1085,l),
(579,83,l),
(508,83,ls),
(471,83,o),
(452,69,o),
(452,40,cs),
(452,12,o),
(471,-2,o),
(508,-2,cs)
);
}
);
userData = {
assembly = "NPUSHB[ ]	/* 54 values pushed */
1 28 28 64 29 0 10 17 6 15 17 18 5 4 6 27 0 19 18 6 7 6 20 21 6 26 25 23 2 7 26 20 19 6 3 5 8 26 18 17 8 3 7 8 12 27 26 3 13 12 1 1 25 70
SROUND[ ]	/* SuperRound */
MDAP[1]	/* MoveDirectAbsPt */
SHZ[1]	/* ShiftZoneByLastPoint */
RTG[ ]	/* RoundToGrid */
SVTCA[0]	/* SetFreedomAndProjectionVectorToAxis */
MIAP[1]	/* MoveIndirectAbsPt */
ALIGNRP[ ]	/* AlignRelativePt */
MIAP[1]	/* MoveIndirectAbsPt */
ALIGNRP[ ]	/* AlignRelativePt */
SRP0[ ]	/* SetRefPoint0 */
MIRP[11101]	/* MoveIndirectRelPt */
SLOOP[ ]	/* SetLoopVariable */
ALIGNRP[ ]	/* AlignRelativePt */
SRP0[ ]	/* SetRefPoint0 */
MIRP[11101]	/* MoveIndirectRelPt */
SLOOP[ ]	/* SetLoopVariable */
ALIGNRP[ ]	/* AlignRelativePt */
SRP0[ ]	/* SetRefPoint0 */
MIRP[11101]	/* MoveIndirectRelPt */
ALIGNRP[ ]	/* AlignRelativePt */
SVTCA[1]	/* SetFreedomAndProjectionVectorToAxis */
MDAP[1]	/* MoveDirectAbsPt */
ALIGNRP[ ]	/* AlignRelativePt */
MIRP[11101]	/* MoveIndirectRelPt */
ALIGNRP[ ]	/* AlignRelativePt */
MDAP[1]	/* MoveDirectAbsPt */
ALIGNRP[ ]	/* AlignRelativePt */
MIRP[11101]	/* MoveIndirectRelPt */
ALIGNRP[ ]	/* AlignRelativePt */
MDAP[1]	/* MoveDirectAbsPt */
ALIGNRP[ ]	/* AlignRelativePt */
MIRP[11101]	/* MoveIndirectRelPt */
ALIGNRP[ ]	/* AlignRelativePt */
SRP0[ ]	/* SetRefPoint0 */
MIRP[11101]	/* MoveIndirectRelPt */
SRP0[ ]	/* SetRefPoint0 */
MIRP[11101]	/* MoveIndirectRelPt */
SVTCA[0]	/* SetFreedomAndProjectionVectorToAxis */
IUP[1]	/* InterpolateUntPts */
IUP[0]	/* InterpolateUntPts */
SVTCA[1]	/* SetFreedomAndProjectionVectorToAxis */
MD[0]	/* MeasureDistance */
ROUND[00]	/* Round */
PUSHW[ ]	/* 2 values pushed */
25 28
MD[0]	/* MeasureDistance */
ROUND[00]	/* Round */
SUB[ ]	/* Subtract */
PUSHB[ ]	/* 1 value pushed */
64
GT[ ]	/* GreaterThan */
IF[ ]	/* If */
SHPIX[ ]	/* ShiftZoneByPixel */
SRP1[ ]	/* SetRefPoint1 */
SHZ[1]	/* ShiftZoneByLastPoint */
PUSHW[ ]	/* 2 values pushed */
28 -64
SHPIX[ ]	/* ShiftZoneByPixel */
EIF[ ]	/* EndIf */";
};
width = 1241;
}
);
note = T;
unicode = 84;
},
{
glyphname = U;
lastChange = "2025-02-10 17:36:15 +0000";
layers = (
{
background = {
shapes = (
{
closed = 1;
nodes = (
(1159,1172,qs),
(933,1172,ls),
(877,1172,o),
(877,1130,qs),
(877,1087,o),
(933,1087,qs),
(1004,1087,l),
(1004,385,ls),
(1004,250,o),
(816,52,o),
(681,52,qs),
(546,52,o),
(453,152,qs),
(361,249,o),
(361,385,qs),
(361,1087,l),
(432,1087,ls),
(488,1087,o),
(488,1130,qs),
(488,1172,o),
(432,1172,qs),
(206,1172,ls),
(150,1172,o),
(150,1130,qs),
(150,1087,o),
(206,1087,qs),
(277,1087,l),
(277,385,ls),
(277,211,o),
(512,-32,o),
(685,-32,qs),
(857,-32,o),
(974,91,qs),
(1088,211,o),
(1088,385,qs),
(1088,1087,l),
(1159,1087,ls),
(1215,1087,o),
(1215,1130,qs),
(1215,1172,o)
);
}
);
};
layerId = m01;
shapes = (
{
closed = 1;
nodes = (
(800,-32,o),
(896,9,o),
(974,91,cs),
(1050,171,o),
(1088,269,o),
(1088,385,cs),
(1088,1087,l),
(1159,1087,ls),
(1196,1087,o),
(1215,1101,o),
(1215,1130,cs),
(1215,1158,o),
(1196,1172,o),
(1159,1172,cs),
(933,1172,ls),
(896,1172,o),
(877,1158,o),
(877,1130,cs),
(877,1101,o),
(896,1087,o),
(933,1087,cs),
(1004,1087,l),
(1004,385,ls),
(1004,205,o),
(861,52,o),
(681,52,cs),
(591,52,o),
(515,85,o),
(453,152,cs),
(392,217,o),
(361,294,o),
(361,385,cs),
(361,1087,l),
(432,1087,ls),
(469,1087,o),
(488,1101,o),
(488,1130,cs),
(488,1158,o),
(469,1172,o),
(432,1172,cs),
(206,1172,ls),
(169,1172,o),
(150,1158,o),
(150,1130,cs),
(150,1101,o),
(169,1087,o),
(206,1087,cs),
(277,1087,l),
(277,385,ls),
(277,153,o),
(454,-32,o),
(685,-32,cs)
);
}
);
userData = {
assembly = "NPUSHB[ ]	/* 53 values pushed */
1 40 40 64 41 0 0 17 3 35 17 31 20 17 23 15 17 11 24 23 6 12 11 32 31 6 4 3 33 32 23 22 13 12 3 7 2 8 17 28 8 8 38 37 18 3 17 3 8 1 1 15 70
SROUND[ ]	/* SuperRound */
MDAP[1]	/* MoveDirectAbsPt */
SHZ[1]	/* ShiftZoneByLastPoint */
RTG[ ]	/* RoundToGrid */
SVTCA[0]	/* SetFreedomAndProjectionVectorToAxis */
MIAP[1]	/* MoveIndirectAbsPt */
MIAP[1]	/* MoveIndirectAbsPt */
SLOOP[ ]	/* SetLoopVariable */
ALIGNRP[ ]	/* AlignRelativePt */
SRP0[ ]	/* SetRefPoint0 */
MIRP[11101]	/* MoveIndirectRelPt */
SRP0[ ]	/* SetRefPoint0 */
MIRP[11101]	/* MoveIndirectRelPt */
SLOOP[ ]	/* SetLoopVariable */
ALIGNRP[ ]	/* AlignRelativePt */
SVTCA[1]	/* SetFreedomAndProjectionVectorToAxis */
MDAP[1]	/* MoveDirectAbsPt */
ALIGNRP[ ]	/* AlignRelativePt */
MIRP[11101]	/* MoveIndirectRelPt */
ALIGNRP[ ]	/* AlignRelativePt */
MDAP[1]	/* MoveDirectAbsPt */
ALIGNRP[ ]	/* AlignRelativePt */
MIRP[11101]	/* MoveIndirectRelPt */
ALIGNRP[ ]	/* AlignRelativePt */
SRP0[ ]	/* SetRefPoint0 */
MIRP[11101]	/* MoveIndirectRelPt */
SRP0[ ]	/* SetRefPoint0 */
MIRP[11101]	/* MoveIndirectRelPt */
SRP0[ ]	/* SetRefPoint0 */
MIRP[11101]	/* MoveIndirectRelPt */
SRP0[ ]	/* SetRefPoint0 */
MIRP[11101]	/* MoveIndirectRelPt */
SVTCA[0]	/* SetFreedomAndProjectionVectorToAxis */
IUP[1]	/* InterpolateUntPts */
IUP[0]	/* InterpolateUntPts */
SVTCA[1]	/* SetFreedomAndProjectionVectorToAxis */
MD[0]	/* MeasureDistance */
ROUND[00]	/* Round */
PUSHW[ ]	/* 2 values pushed */
15 40
MD[0]	/* MeasureDistance */
ROUND[00]	/* Round */
SUB[ ]	/* Subtract */
PUSHB[ ]	/* 1 value pushed */
64
GT[ ]	/* GreaterThan */
IF[ ]	/* If */
SHPIX[ ]	/* ShiftZoneByPixel */
SRP1[ ]	/* SetRefPoint1 */
SHZ[1]	/* ShiftZoneByLastPoint */
PUSHW[ ]	/* 2 values pushed */
40 -64
SHPIX[ ]	/* ShiftZoneByPixel */
EIF[ ]	/* EndIf */";
};
width = 1360;
}
);
note = U;
unicode = 85;
},
{
glyphname = V;
lastChange = "2025-02-10 17:36:15 +0000";
layers = (
{
background = {
shapes = (
{
closed = 1;
nodes = (
(1302,1171,qs),
(1076,1171,ls),
(1020,1171,o),
(1020,1129,qs),
(1020,1086,o),
(1076,1086,qs),
(1147,1086,l),
(758,84,l),
(752,84,l),
(362,1086,l),
(433,1086,ls),
(489,1086,o),
(489,1129,qs),
(489,1171,o),
(433,1171,qs),
(207,1171,ls),
(151,1171,o),
(151,1129,qs),
(151,1086,o),
(207,1086,qs),
(275,1086,l),
(698,0,l),
(815,0,l),
(1231,1086,l),
(1302,1086,ls),
(1358,1086,o),
(1358,1129,qs),
(1358,1171,o)
);
}
);
};
layerId = m01;
shapes = (
{
closed = 1;
nodes = (
(815,0,l),
(1231,1086,l),
(1302,1086,ls),
(1339,1086,o),
(1358,1100,o),
(1358,1129,cs),
(1358,1157,o),
(1339,1171,o),
(1302,1171,cs),
(1076,1171,ls),
(1039,1171,o),
(1020,1157,o),
(1020,1129,cs),
(1020,1100,o),
(1039,1086,o),
(1076,1086,cs),
(1147,1086,l),
(758,84,l),
(752,84,l),
(362,1086,l),
(433,1086,ls),
(470,1086,o),
(489,1100,o),
(489,1129,cs),
(489,1157,o),
(470,1171,o),
(433,1171,cs),
(207,1171,ls),
(170,1171,o),
(151,1157,o),
(151,1129,cs),
(151,1100,o),
(170,1086,o),
(207,1086,cs),
(275,1086,l),
(698,0,l)
);
}
);
userData = {
assembly = "NPUSHB[ ]	/* 55 values pushed */
1 28 28 64 29 0 19 18 20 17 19 20 9 4 4 5 3 3 4 17 18 9 6 5 5 6 14 5 9 23 5 0 21 20 17 16 7 6 3 7 2 8 11 26 25 12 3 11 3 5 4 1 1 9 70
SROUND[ ]	/* SuperRound */
MDAP[1]	/* MoveDirectAbsPt */
SHZ[1]	/* ShiftZoneByLastPoint */
RTG[ ]	/* RoundToGrid */
SVTCA[0]	/* SetFreedomAndProjectionVectorToAxis */
MIAP[1]	/* MoveIndirectAbsPt */
ALIGNRP[ ]	/* AlignRelativePt */
MIAP[1]	/* MoveIndirectAbsPt */
SLOOP[ ]	/* SetLoopVariable */
ALIGNRP[ ]	/* AlignRelativePt */
SRP0[ ]	/* SetRefPoint0 */
MIRP[11101]	/* MoveIndirectRelPt */
SLOOP[ ]	/* SetLoopVariable */
ALIGNRP[ ]	/* AlignRelativePt */
SVTCA[1]	/* SetFreedomAndProjectionVectorToAxis */
MDAP[1]	/* MoveDirectAbsPt */
MIRP[11101]	/* MoveIndirectRelPt */
MDAP[1]	/* MoveDirectAbsPt */
MIRP[11101]	/* MoveIndirectRelPt */
SDPVTL[1]	/* SetDualPVectorToLine */
MDAP[0]	/* MoveDirectAbsPt */
SFVTPV[ ]	/* SetFVectorToPVector */
MDRP[00100]	/* MoveDirectRelPt */
SFVTPV[ ]	/* SetFVectorToPVector */
MIRP[11100]	/* MoveIndirectRelPt */
SFVTPV[ ]	/* SetFVectorToPVector */
MDRP[00100]	/* MoveDirectRelPt */
SDPVTL[1]	/* SetDualPVectorToLine */
MDAP[0]	/* MoveDirectAbsPt */
SFVTL[0]	/* SetFVectorToLine */
MDRP[00100]	/* MoveDirectRelPt */
SFVTPV[ ]	/* SetFVectorToPVector */
MIRP[11100]	/* MoveIndirectRelPt */
SFVTPV[ ]	/* SetFVectorToPVector */
MDRP[00100]	/* MoveDirectRelPt */
SVTCA[1]	/* SetFreedomAndProjectionVectorToAxis */
MDAP[0]	/* MoveDirectAbsPt */
MDAP[0]	/* MoveDirectAbsPt */
SVTCA[0]	/* SetFreedomAndProjectionVectorToAxis */
MDAP[0]	/* MoveDirectAbsPt */
MDAP[0]	/* MoveDirectAbsPt */
IUP[1]	/* InterpolateUntPts */
IUP[0]	/* InterpolateUntPts */
SVTCA[1]	/* SetFreedomAndProjectionVectorToAxis */
MD[0]	/* MeasureDistance */
ROUND[00]	/* Round */
PUSHW[ ]	/* 2 values pushed */
9 28
MD[0]	/* MeasureDistance */
ROUND[00]	/* Round */
SUB[ ]	/* Subtract */
PUSHB[ ]	/* 1 value pushed */
64
GT[ ]	/* GreaterThan */
IF[ ]	/* If */
SHPIX[ ]	/* ShiftZoneByPixel */
SRP1[ ]	/* SetRefPoint1 */
SHZ[1]	/* ShiftZoneByLastPoint */
PUSHW[ ]	/* 2 values pushed */
28 -64
SHPIX[ ]	/* ShiftZoneByPixel */
EIF[ ]	/* EndIf */";
};
width = 1506;
}
);
note = V;
unicode = 86;
},
{
glyphname = W;
lastChange = "2025-02-10 17:36:15 +0000";
layers = (
{
background = {
shapes = (
{
closed = 1;
nodes = (
(1762,1171,qs),
(1536,1171,ls),
(1480,1171,o),
(1480,1129,qs),
(1480,1086,o),
(1536,1086,qs),
(1607,1086,l),
(1258,84,l),
(1242,84,l),
(1028,762,l),
(941,762,l),
(718,84,l),
(712,84,l),
(362,1086,l),
(433,1086,ls),
(489,1086,o),
(489,1129,qs),
(489,1171,o),
(433,1171,qs),
(207,1171,ls),
(151,1171,o),
(151,1129,qs),
(151,1086,o),
(207,1086,qs),
(275,1086,l),
(658,0,l),
(775,0,l),
(984,651,l),
(1198,0,l),
(1315,0,l),
(1691,1086,l),
(1762,1086,ls),
(1818,1086,o),
(1818,1129,qs),
(1818,1171,o)
);
}
);
};
layerId = m01;
shapes = (
{
closed = 1;
nodes = (
(775,0,l),
(984,651,l),
(1198,0,l),
(1315,0,l),
(1691,1086,l),
(1762,1086,ls),
(1799,1086,o),
(1818,1100,o),
(1818,1129,cs),
(1818,1157,o),
(1799,1171,o),
(1762,1171,cs),
(1536,1171,ls),
(1499,1171,o),
(1480,1157,o),
(1480,1129,cs),
(1480,1100,o),
(1499,1086,o),
(1536,1086,cs),
(1607,1086,l),
(1258,84,l),
(1242,84,l),
(1028,762,l),
(941,762,l),
(718,84,l),
(712,84,l),
(362,1086,l),
(433,1086,ls),
(470,1086,o),
(489,1100,o),
(489,1129,cs),
(489,1157,o),
(470,1171,o),
(433,1171,cs),
(207,1171,ls),
(170,1171,o),
(151,1157,o),
(151,1129,cs),
(151,1100,o),
(170,1086,o),
(207,1086,cs),
(275,1086,l),
(658,0,l)
);
}
);
userData = {
assembly = "NPUSHB[ ]	/* 86 values pushed */
1 35 35 64 36 0 26 25 22 21 6 27 20 6 5 6 7 9 7 8 23 22 22 23 26 27 9 4 4 5 3 3 4 20 21 9 9 8 8 9 5 4 5 6 9 6 7 25 24 24 25 17 5 12 30 5 0 28 27 20 19 10 9 3 7 2 8 14 24 23 2 33 32 15 3 14 3 8 7 5 3 4 1 1 12 70
SROUND[ ]	/* SuperRound */
MDAP[1]	/* MoveDirectAbsPt */
SHZ[1]	/* ShiftZoneByLastPoint */
RTG[ ]	/* RoundToGrid */
SVTCA[0]	/* SetFreedomAndProjectionVectorToAxis */
MIAP[1]	/* MoveIndirectAbsPt */
SLOOP[ ]	/* SetLoopVariable */
ALIGNRP[ ]	/* AlignRelativePt */
MIAP[1]	/* MoveIndirectAbsPt */
SLOOP[ ]	/* SetLoopVariable */
ALIGNRP[ ]	/* AlignRelativePt */
MIAP[1]	/* MoveIndirectAbsPt */
ALIGNRP[ ]	/* AlignRelativePt */
SRP0[ ]	/* SetRefPoint0 */
MIRP[11101]	/* MoveIndirectRelPt */
SLOOP[ ]	/* SetLoopVariable */
ALIGNRP[ ]	/* AlignRelativePt */
SVTCA[1]	/* SetFreedomAndProjectionVectorToAxis */
MDAP[1]	/* MoveDirectAbsPt */
MIRP[11101]	/* MoveIndirectRelPt */
MDAP[1]	/* MoveDirectAbsPt */
MIRP[11101]	/* MoveIndirectRelPt */
SDPVTL[1]	/* SetDualPVectorToLine */
MDAP[0]	/* MoveDirectAbsPt */
SFVTPV[ ]	/* SetFVectorToPVector */
MDRP[00100]	/* MoveDirectRelPt */
SFVTL[0]	/* SetFVectorToLine */
MIRP[11100]	/* MoveIndirectRelPt */
SFVTL[0]	/* SetFVectorToLine */
MDRP[00100]	/* MoveDirectRelPt */
SDPVTL[1]	/* SetDualPVectorToLine */
MDAP[0]	/* MoveDirectAbsPt */
SFVTPV[ ]	/* SetFVectorToPVector */
MDRP[00100]	/* MoveDirectRelPt */
SFVTPV[ ]	/* SetFVectorToPVector */
MIRP[11100]	/* MoveIndirectRelPt */
SFVTPV[ ]	/* SetFVectorToPVector */
MDRP[00100]	/* MoveDirectRelPt */
SDPVTL[1]	/* SetDualPVectorToLine */
MDAP[0]	/* MoveDirectAbsPt */
SFVTL[0]	/* SetFVectorToLine */
MDRP[00100]	/* MoveDirectRelPt */
SFVTPV[ ]	/* SetFVectorToPVector */
MIRP[11100]	/* MoveIndirectRelPt */
SFVTPV[ ]	/* SetFVectorToPVector */
MDRP[00100]	/* MoveDirectRelPt */
SDPVTL[1]	/* SetDualPVectorToLine */
MDAP[0]	/* MoveDirectAbsPt */
SFVTPV[ ]	/* SetFVectorToPVector */
MDRP[00100]	/* MoveDirectRelPt */
SFVTL[0]	/* SetFVectorToLine */
MIRP[11100]	/* MoveIndirectRelPt */
SFVTL[0]	/* SetFVectorToLine */
MDRP[00100]	/* MoveDirectRelPt */
SVTCA[1]	/* SetFreedomAndProjectionVectorToAxis */
MDAP[0]	/* MoveDirectAbsPt */
MDAP[0]	/* MoveDirectAbsPt */
SVTCA[0]	/* SetFreedomAndProjectionVectorToAxis */
MDAP[0]	/* MoveDirectAbsPt */
MDAP[0]	/* MoveDirectAbsPt */
MDAP[0]	/* MoveDirectAbsPt */
MDAP[0]	/* MoveDirectAbsPt */
MDAP[0]	/* MoveDirectAbsPt */
IUP[1]	/* InterpolateUntPts */
IUP[0]	/* InterpolateUntPts */
SVTCA[1]	/* SetFreedomAndProjectionVectorToAxis */
MD[0]	/* MeasureDistance */
ROUND[00]	/* Round */
PUSHW[ ]	/* 2 values pushed */
12 35
MD[0]	/* MeasureDistance */
ROUND[00]	/* Round */
SUB[ ]	/* Subtract */
PUSHB[ ]	/* 1 value pushed */
64
GT[ ]	/* GreaterThan */
IF[ ]	/* If */
SHPIX[ ]	/* ShiftZoneByPixel */
SRP1[ ]	/* SetRefPoint1 */
SHZ[1]	/* ShiftZoneByLastPoint */
PUSHW[ ]	/* 2 values pushed */
35 -64
SHPIX[ ]	/* ShiftZoneByPixel */
EIF[ ]	/* EndIf */";
};
width = 1963;
}
);
note = W;
unicode = 87;
},
{
glyphname = X;
lastChange = "2025-02-10 17:36:15 +0000";
layers = (
{
background = {
shapes = (
{
closed = 1;
nodes = (
(1245,83,qs),
(1174,83,l),
(775,598,l),
(1149,1085,l),
(1220,1085,ls),
(1276,1085,o),
(1276,1128,qs),
(1276,1170,o),
(1220,1170,qs),
(974,1170,ls),
(918,1170,o),
(918,1128,qs),
(918,1085,o),
(974,1085,qs),
(1045,1085,l),
(723,666,l),
(399,1085,l),
(470,1085,ls),
(526,1085,o),
(526,1128,qs),
(526,1170,o),
(470,1170,qs),
(224,1170,ls),
(168,1170,o),
(168,1128,qs),
(168,1085,o),
(224,1085,qs),
(295,1085,l),
(671,598,l),
(277,83,l),
(206,83,ls),
(150,83,o),
(150,40,qs),
(150,-2,o),
(206,-2,qs),
(452,-2,ls),
(508,-2,o),
(508,40,qs),
(508,83,o),
(452,83,qs),
(381,83,l),
(723,529,l),
(1070,83,l),
(999,83,ls),
(943,83,o),
(943,40,qs),
(943,-2,o),
(999,-2,qs),
(1245,-2,ls),
(1301,-2,o),
(1301,40,qs),
(1301,83,o)
);
}
);
};
layerId = m01;
shapes = (
{
closed = 1;
nodes = (
(452,-2,ls),
(489,-2,o),
(508,12,o),
(508,40,cs),
(508,69,o),
(489,83,o),
(452,83,cs),
(381,83,l),
(723,529,l),
(1070,83,l),
(999,83,ls),
(962,83,o),
(943,69,o),
(943,40,cs),
(943,12,o),
(962,-2,o),
(999,-2,cs),
(1245,-2,ls),
(1282,-2,o),
(1301,12,o),
(1301,40,cs),
(1301,69,o),
(1282,83,o),
(1245,83,cs),
(1174,83,l),
(775,598,l),
(1149,1085,l),
(1220,1085,ls),
(1257,1085,o),
(1276,1099,o),
(1276,1128,cs),
(1276,1156,o),
(1257,1170,o),
(1220,1170,cs),
(974,1170,ls),
(937,1170,o),
(918,1156,o),
(918,1128,cs),
(918,1099,o),
(937,1085,o),
(974,1085,cs),
(1045,1085,l),
(723,666,l),
(399,1085,l),
(470,1085,ls),
(507,1085,o),
(526,1099,o),
(526,1128,cs),
(526,1156,o),
(507,1170,o),
(470,1170,cs),
(224,1170,ls),
(187,1170,o),
(168,1156,o),
(168,1128,cs),
(168,1099,o),
(187,1085,o),
(224,1085,cs),
(295,1085,l),
(671,598,l),
(277,83,l),
(206,83,ls),
(169,83,o),
(150,69,o),
(150,40,cs),
(150,12,o),
(169,-2,o),
(206,-2,cs)
);
}
);
userData = {
assembly = "NPUSHB[ ]	/* 101 values pushed */
1 52 52 64 53 0 35 9 48 36 34 22 10 8 48 48 49 9 8 9 47 10 9 35 34 35 22 22 23 36 21 21 36 22 21 22 9 9 10 8 23 9 48 47 48 35 35 36 49 34 34 49 5 5 0 13 5 18 31 5 26 39 5 44 50 49 21 20 11 10 8 7 7 8 2 47 46 37 36 34 33 24 7 23 8 28 42 41 29 3 28 3 16 15 3 3 2 1 1 18 70
SROUND[ ]	/* SuperRound */
MDAP[1]	/* MoveDirectAbsPt */
SHZ[1]	/* ShiftZoneByLastPoint */
RTG[ ]	/* RoundToGrid */
SVTCA[0]	/* SetFreedomAndProjectionVectorToAxis */
MIAP[1]	/* MoveIndirectAbsPt */
SLOOP[ ]	/* SetLoopVariable */
ALIGNRP[ ]	/* AlignRelativePt */
MIAP[1]	/* MoveIndirectAbsPt */
SLOOP[ ]	/* SetLoopVariable */
ALIGNRP[ ]	/* AlignRelativePt */
SRP0[ ]	/* SetRefPoint0 */
MIRP[11101]	/* MoveIndirectRelPt */
SLOOP[ ]	/* SetLoopVariable */
ALIGNRP[ ]	/* AlignRelativePt */
SRP0[ ]	/* SetRefPoint0 */
MIRP[11101]	/* MoveIndirectRelPt */
SLOOP[ ]	/* SetLoopVariable */
ALIGNRP[ ]	/* AlignRelativePt */
SVTCA[1]	/* SetFreedomAndProjectionVectorToAxis */
MDAP[1]	/* MoveDirectAbsPt */
MIRP[11101]	/* MoveIndirectRelPt */
MDAP[1]	/* MoveDirectAbsPt */
MIRP[11101]	/* MoveIndirectRelPt */
MDAP[1]	/* MoveDirectAbsPt */
MIRP[11101]	/* MoveIndirectRelPt */
MDAP[1]	/* MoveDirectAbsPt */
MIRP[11101]	/* MoveIndirectRelPt */
SDPVTL[1]	/* SetDualPVectorToLine */
MDAP[0]	/* MoveDirectAbsPt */
SFVTPV[ ]	/* SetFVectorToPVector */
MDRP[00100]	/* MoveDirectRelPt */
SFVTL[0]	/* SetFVectorToLine */
MDRP[00100]	/* MoveDirectRelPt */
SFVTL[0]	/* SetFVectorToLine */
MDRP[00100]	/* MoveDirectRelPt */
SFVTPV[ ]	/* SetFVectorToPVector */
MIRP[11100]	/* MoveIndirectRelPt */
SFVTPV[ ]	/* SetFVectorToPVector */
MDRP[00100]	/* MoveDirectRelPt */
SFVTL[0]	/* SetFVectorToLine */
MDRP[00100]	/* MoveDirectRelPt */
SFVTL[0]	/* SetFVectorToLine */
MDRP[00100]	/* MoveDirectRelPt */
SDPVTL[1]	/* SetDualPVectorToLine */
MDAP[0]	/* MoveDirectAbsPt */
SFVTPV[ ]	/* SetFVectorToPVector */
MDRP[00100]	/* MoveDirectRelPt */
SFVTL[0]	/* SetFVectorToLine */
MDRP[00100]	/* MoveDirectRelPt */
SFVTL[0]	/* SetFVectorToLine */
MDRP[00100]	/* MoveDirectRelPt */
SFVTPV[ ]	/* SetFVectorToPVector */
MIRP[11100]	/* MoveIndirectRelPt */
SFVTPV[ ]	/* SetFVectorToPVector */
MDRP[00100]	/* MoveDirectRelPt */
SFVTL[0]	/* SetFVectorToLine */
MDRP[00100]	/* MoveDirectRelPt */
SFVTL[0]	/* SetFVectorToLine */
MDRP[00100]	/* MoveDirectRelPt */
SVTCA[1]	/* SetFreedomAndProjectionVectorToAxis */
MDAP[0]	/* MoveDirectAbsPt */
MDAP[0]	/* MoveDirectAbsPt */
MDAP[0]	/* MoveDirectAbsPt */
MDAP[0]	/* MoveDirectAbsPt */
MDAP[0]	/* MoveDirectAbsPt */
MDAP[0]	/* MoveDirectAbsPt */
SVTCA[0]	/* SetFreedomAndProjectionVectorToAxis */
MDAP[0]	/* MoveDirectAbsPt */
MDAP[0]	/* MoveDirectAbsPt */
IUP[1]	/* InterpolateUntPts */
IUP[0]	/* InterpolateUntPts */
SVTCA[1]	/* SetFreedomAndProjectionVectorToAxis */
MD[0]	/* MeasureDistance */
ROUND[00]	/* Round */
PUSHW[ ]	/* 2 values pushed */
18 52
MD[0]	/* MeasureDistance */
ROUND[00]	/* Round */
SUB[ ]	/* Subtract */
PUSHB[ ]	/* 1 value pushed */
64
GT[ ]	/* GreaterThan */
IF[ ]	/* If */
SHPIX[ ]	/* ShiftZoneByPixel */
SRP1[ ]	/* SetRefPoint1 */
SHZ[1]	/* ShiftZoneByLastPoint */
PUSHW[ ]	/* 2 values pushed */
52 -64
SHPIX[ ]	/* ShiftZoneByPixel */
EIF[ ]	/* EndIf */";
};
width = 1449;
}
);
note = X;
unicode = 88;
},
{
glyphname = Y;
lastChange = "2025-02-10 17:36:15 +0000";
layers = (
{
background = {
shapes = (
{
closed = 1;
nodes = (
(1165,1170,qs),
(919,1170,ls),
(863,1170,o),
(863,1128,qs),
(863,1085,o),
(919,1085,qs),
(990,1085,l),
(689,612,l),
(381,1085,l),
(452,1085,ls),
(508,1085,o),
(508,1128,qs),
(508,1170,o),
(452,1170,qs),
(206,1170,ls),
(150,1170,o),
(150,1128,qs),
(150,1085,o),
(206,1085,qs),
(277,1085,l),
(646,527,l),
(646,83,l),
(575,83,ls),
(519,83,o),
(519,40,qs),
(519,-2,o),
(575,-2,qs),
(802,-2,ls),
(858,-2,o),
(858,40,qs),
(858,83,o),
(802,83,qs),
(731,83,l),
(731,527,l),
(1094,1085,l),
(1165,1085,ls),
(1221,1085,o),
(1221,1128,qs),
(1221,1170,o)
);
}
);
};
layerId = m01;
shapes = (
{
closed = 1;
nodes = (
(802,-2,ls),
(839,-2,o),
(858,12,o),
(858,40,cs),
(858,69,o),
(839,83,o),
(802,83,cs),
(731,83,l),
(731,527,l),
(1094,1085,l),
(1165,1085,ls),
(1202,1085,o),
(1221,1099,o),
(1221,1128,cs),
(1221,1156,o),
(1202,1170,o),
(1165,1170,cs),
(919,1170,ls),
(882,1170,o),
(863,1156,o),
(863,1128,cs),
(863,1099,o),
(882,1085,o),
(919,1085,cs),
(990,1085,l),
(689,612,l),
(381,1085,l),
(452,1085,ls),
(489,1085,o),
(508,1099,o),
(508,1128,cs),
(508,1156,o),
(489,1170,o),
(452,1170,cs),
(206,1170,ls),
(169,1170,o),
(150,1156,o),
(150,1128,cs),
(150,1099,o),
(169,1085,o),
(206,1085,cs),
(277,1085,l),
(646,527,l),
(646,83,l),
(575,83,ls),
(538,83,o),
(519,69,o),
(519,40,cs),
(519,12,o),
(538,-2,o),
(575,-2,cs)
);
}
);
userData = {
assembly = "NPUSHB[ ]	/* 76 values pushed */
1 39 39 64 40 0 30 31 29 30 29 30 31 9 4 4 5 3 3 4 29 30 9 30 31 18 17 17 18 8 17 4 13 17 16 26 5 21 34 5 0 17 16 6 5 4 32 31 29 28 19 18 3 7 2 8 23 16 15 6 3 5 8 10 37 36 24 3 23 3 11 10 1 1 21 70
SROUND[ ]	/* SuperRound */
MDAP[1]	/* MoveDirectAbsPt */
SHZ[1]	/* ShiftZoneByLastPoint */
RTG[ ]	/* RoundToGrid */
SVTCA[0]	/* SetFreedomAndProjectionVectorToAxis */
MIAP[1]	/* MoveIndirectAbsPt */
ALIGNRP[ ]	/* AlignRelativePt */
MIAP[1]	/* MoveIndirectAbsPt */
SLOOP[ ]	/* SetLoopVariable */
ALIGNRP[ ]	/* AlignRelativePt */
SRP0[ ]	/* SetRefPoint0 */
MIRP[11101]	/* MoveIndirectRelPt */
SLOOP[ ]	/* SetLoopVariable */
ALIGNRP[ ]	/* AlignRelativePt */
SRP0[ ]	/* SetRefPoint0 */
MIRP[11101]	/* MoveIndirectRelPt */
SLOOP[ ]	/* SetLoopVariable */
ALIGNRP[ ]	/* AlignRelativePt */
SVTCA[1]	/* SetFreedomAndProjectionVectorToAxis */
MDAP[1]	/* MoveDirectAbsPt */
ALIGNRP[ ]	/* AlignRelativePt */
MIRP[11101]	/* MoveIndirectRelPt */
ALIGNRP[ ]	/* AlignRelativePt */
MDAP[1]	/* MoveDirectAbsPt */
MIRP[11101]	/* MoveIndirectRelPt */
MDAP[1]	/* MoveDirectAbsPt */
MIRP[11101]	/* MoveIndirectRelPt */
SRP0[ ]	/* SetRefPoint0 */
MIRP[11101]	/* MoveIndirectRelPt */
SRP0[ ]	/* SetRefPoint0 */
MIRP[11101]	/* MoveIndirectRelPt */
SDPVTL[1]	/* SetDualPVectorToLine */
MDAP[0]	/* MoveDirectAbsPt */
SFVTPV[ ]	/* SetFVectorToPVector */
MDRP[00100]	/* MoveDirectRelPt */
SFVTL[0]	/* SetFVectorToLine */
MIRP[11100]	/* MoveIndirectRelPt */
SFVTPV[ ]	/* SetFVectorToPVector */
MDRP[00100]	/* MoveDirectRelPt */
SDPVTL[1]	/* SetDualPVectorToLine */
MDAP[0]	/* MoveDirectAbsPt */
SFVTL[0]	/* SetFVectorToLine */
MDRP[00100]	/* MoveDirectRelPt */
SFVTPV[ ]	/* SetFVectorToPVector */
MIRP[11100]	/* MoveIndirectRelPt */
SFVTL[0]	/* SetFVectorToLine */
MDRP[00100]	/* MoveDirectRelPt */
SVTCA[1]	/* SetFreedomAndProjectionVectorToAxis */
MDAP[0]	/* MoveDirectAbsPt */
MDAP[0]	/* MoveDirectAbsPt */
SVTCA[0]	/* SetFreedomAndProjectionVectorToAxis */
MDAP[0]	/* MoveDirectAbsPt */
IUP[1]	/* InterpolateUntPts */
IUP[0]	/* InterpolateUntPts */
SVTCA[1]	/* SetFreedomAndProjectionVectorToAxis */
MD[0]	/* MeasureDistance */
ROUND[00]	/* Round */
PUSHW[ ]	/* 2 values pushed */
21 39
MD[0]	/* MeasureDistance */
ROUND[00]	/* Round */
SUB[ ]	/* Subtract */
PUSHB[ ]	/* 1 value pushed */
64
GT[ ]	/* GreaterThan */
IF[ ]	/* If */
SHPIX[ ]	/* ShiftZoneByPixel */
SRP1[ ]	/* SetRefPoint1 */
SHZ[1]	/* ShiftZoneByLastPoint */
PUSHW[ ]	/* 2 values pushed */
39 -64
SHPIX[ ]	/* ShiftZoneByPixel */
EIF[ ]	/* EndIf */";
};
width = 1371;
}
);
note = Y;
unicode = 89;
},
{
glyphname = Z;
lastChange = "2025-02-10 17:36:15 +0000";
layers = (
{
background = {
shapes = (
{
closed = 1;
nodes = (
(959,211,o),
(917,211,qs),
(873,211,o),
(874,155,qs),
(875,84,l),
(231,84,l),
(913,1051,l),
(913,1170,l),
(188,1170,l),
(188,1015,ls),
(188,959,o),
(230,959,qs),
(274,959,o),
(273,1015,qs),
(272,1086,l),
(832,1086,l),
(150,122,l),
(150,0,l),
(959,0,l),
(959,155,ls)
);
}
);
};
layerId = m01;
shapes = (
{
closed = 1;
nodes = (
(959,0,l),
(959,155,ls),
(959,192,o),
(945,211,o),
(917,211,cs),
(888,211,o),
(873,192,o),
(874,155,cs),
(875,84,l),
(231,84,l),
(913,1051,l),
(913,1170,l),
(188,1170,l),
(188,1015,ls),
(188,978,o),
(202,959,o),
(230,959,cs),
(259,959,o),
(274,978,o),
(273,1015,cs),
(272,1086,l),
(832,1086,l),
(150,122,l),
(150,0,l)
);
}
);
userData = {
assembly = "NPUSHB[ ]	/* 45 values pushed */
1 20 20 64 21 0 13 12 11 3 2 1 4 5 6 10 9 15 14 6 19 0 17 7 0 7 7 10 14 13 8 0 4 3 8 10 11 10 3 1 0 1 1 1 70
SROUND[ ]	/* SuperRound */
MDAP[1]	/* MoveDirectAbsPt */
SHZ[1]	/* ShiftZoneByLastPoint */
RTG[ ]	/* RoundToGrid */
SVTCA[0]	/* SetFreedomAndProjectionVectorToAxis */
MIAP[1]	/* MoveIndirectAbsPt */
ALIGNRP[ ]	/* AlignRelativePt */
MIAP[1]	/* MoveIndirectAbsPt */
ALIGNRP[ ]	/* AlignRelativePt */
SRP0[ ]	/* SetRefPoint0 */
MIRP[11101]	/* MoveIndirectRelPt */
ALIGNRP[ ]	/* AlignRelativePt */
SRP0[ ]	/* SetRefPoint0 */
MIRP[11101]	/* MoveIndirectRelPt */
ALIGNRP[ ]	/* AlignRelativePt */
SRP0[ ]	/* SetRefPoint0 */
MIRP[11101]	/* MoveIndirectRelPt */
SRP0[ ]	/* SetRefPoint0 */
MIRP[11101]	/* MoveIndirectRelPt */
SVTCA[1]	/* SetFreedomAndProjectionVectorToAxis */
MDAP[1]	/* MoveDirectAbsPt */
ALIGNRP[ ]	/* AlignRelativePt */
MIRP[11101]	/* MoveIndirectRelPt */
ALIGNRP[ ]	/* AlignRelativePt */
MDAP[1]	/* MoveDirectAbsPt */
ALIGNRP[ ]	/* AlignRelativePt */
MIRP[11101]	/* MoveIndirectRelPt */
ALIGNRP[ ]	/* AlignRelativePt */
MDAP[0]	/* MoveDirectAbsPt */
MDAP[0]	/* MoveDirectAbsPt */
MDAP[0]	/* MoveDirectAbsPt */
MDAP[0]	/* MoveDirectAbsPt */
MDAP[0]	/* MoveDirectAbsPt */
MDAP[0]	/* MoveDirectAbsPt */
SVTCA[0]	/* SetFreedomAndProjectionVectorToAxis */
IUP[1]	/* InterpolateUntPts */
IUP[0]	/* InterpolateUntPts */
SVTCA[1]	/* SetFreedomAndProjectionVectorToAxis */
MD[0]	/* MeasureDistance */
ROUND[00]	/* Round */
PUSHW[ ]	/* 2 values pushed */
1 20
MD[0]	/* MeasureDistance */
ROUND[00]	/* Round */
SUB[ ]	/* Subtract */
PUSHB[ ]	/* 1 value pushed */
64
GT[ ]	/* GreaterThan */
IF[ ]	/* If */
SHPIX[ ]	/* ShiftZoneByPixel */
SRP1[ ]	/* SetRefPoint1 */
SHZ[1]	/* ShiftZoneByLastPoint */
PUSHW[ ]	/* 2 values pushed */
20 -64
SHPIX[ ]	/* ShiftZoneByPixel */
EIF[ ]	/* EndIf */";
};
width = 1109;
}
);
note = Z;
unicode = 90;
},
{
glyphname = bracketleft;
lastChange = "2025-02-10 17:36:15 +0000";
layers = (
{
background = {
shapes = (
{
closed = 1;
nodes = (
(438,-174,qs),
(234,-174,l),
(234,1171,l),
(438,1171,ls),
(494,1171,o),
(494,1213,qs),
(494,1256,o),
(441,1256,qs),
(150,1256,l),
(150,-258,l),
(441,-258,ls),
(494,-258,o),
(494,-216,qs),
(494,-174,o)
);
}
);
};
layerId = m01;
shapes = (
{
closed = 1;
nodes = (
(441,-258,ls),
(476,-258,o),
(494,-244,o),
(494,-216,cs),
(494,-188,o),
(475,-174,o),
(438,-174,cs),
(234,-174,l),
(234,1171,l),
(438,1171,ls),
(475,1171,o),
(494,1185,o),
(494,1213,cs),
(494,1242,o),
(476,1256,o),
(441,1256,cs),
(150,1256,l),
(150,-258,l)
);
}
);
userData = {
assembly = "NPUSHB[ ]	/* 31 values pushed */
1 14 14 64 15 0 7 0 5 3 11 10 6 4 3 12 11 8 2 10 9 8 4 3 2 5 4 4 1 3 70
SROUND[ ]	/* SuperRound */
MDAP[1]	/* MoveDirectAbsPt */
SHZ[1]	/* ShiftZoneByLastPoint */
RTG[ ]	/* RoundToGrid */
SVTCA[0]	/* SetFreedomAndProjectionVectorToAxis */
MIAP[1]	/* MoveIndirectAbsPt */
ALIGNRP[ ]	/* AlignRelativePt */
MDAP[1]	/* MoveDirectAbsPt */
ALIGNRP[ ]	/* AlignRelativePt */
SRP0[ ]	/* SetRefPoint0 */
MIRP[11101]	/* MoveIndirectRelPt */
ALIGNRP[ ]	/* AlignRelativePt */
SRP0[ ]	/* SetRefPoint0 */
MIRP[11101]	/* MoveIndirectRelPt */
ALIGNRP[ ]	/* AlignRelativePt */
SVTCA[1]	/* SetFreedomAndProjectionVectorToAxis */
MDAP[1]	/* MoveDirectAbsPt */
ALIGNRP[ ]	/* AlignRelativePt */
MIRP[11101]	/* MoveIndirectRelPt */
ALIGNRP[ ]	/* AlignRelativePt */
SRP0[ ]	/* SetRefPoint0 */
MIRP[11101]	/* MoveIndirectRelPt */
ALIGNRP[ ]	/* AlignRelativePt */
SVTCA[0]	/* SetFreedomAndProjectionVectorToAxis */
IUP[1]	/* InterpolateUntPts */
IUP[0]	/* InterpolateUntPts */
SVTCA[1]	/* SetFreedomAndProjectionVectorToAxis */
MD[0]	/* MeasureDistance */
ROUND[00]	/* Round */
PUSHW[ ]	/* 2 values pushed */
3 14
MD[0]	/* MeasureDistance */
ROUND[00]	/* Round */
SUB[ ]	/* Subtract */
PUSHB[ ]	/* 1 value pushed */
64
GT[ ]	/* GreaterThan */
IF[ ]	/* If */
SHPIX[ ]	/* ShiftZoneByPixel */
SRP1[ ]	/* SetRefPoint1 */
SHZ[1]	/* ShiftZoneByLastPoint */
PUSHW[ ]	/* 2 values pushed */
14 -64
SHPIX[ ]	/* ShiftZoneByPixel */
EIF[ ]	/* EndIf */";
};
width = 644;
}
);
note = bracketleft;
unicode = 91;
},
{
glyphname = backslash;
lastChange = "2025-02-10 17:36:15 +0000";
layers = (
{
background = {
shapes = (
{
closed = 1;
nodes = (
(912,-89,qs),
(237,1359,ls),
(220,1396,o),
(192,1396,qs),
(150,1396,o),
(150,1356,qs),
(150,1344,o),
(160,1323,qs),
(836,-125,ls),
(853,-162,o),
(880,-162,qs),
(922,-162,o),
(922,-122,qs),
(922,-110,o)
);
}
);
};
layerId = m01;
shapes = (
{
closed = 1;
nodes = (
(908,-162,o),
(922,-149,o),
(922,-122,cs),
(922,-114,o),
(919,-103,o),
(912,-89,cs),
(237,1359,ls),
(226,1384,o),
(211,1396,o),
(192,1396,cs),
(164,1396,o),
(150,1383,o),
(150,1356,cs),
(150,1348,o),
(153,1337,o),
(160,1323,cs),
(836,-125,ls),
(847,-150,o),
(862,-162,o),
(880,-162,cs)
);
}
);
userData = {
assembly = "NPUSHB[ ]	/* 20 values pushed */
1 14 14 64 15 0 7 0 4 5 9 12 11 11 12 9 2 1 7 70
SROUND[ ]	/* SuperRound */
MDAP[1]	/* MoveDirectAbsPt */
SHZ[1]	/* ShiftZoneByLastPoint */
RTG[ ]	/* RoundToGrid */
SVTCA[0]	/* SetFreedomAndProjectionVectorToAxis */
MDAP[1]	/* MoveDirectAbsPt */
MDAP[1]	/* MoveDirectAbsPt */
SVTCA[1]	/* SetFreedomAndProjectionVectorToAxis */
SDPVTL[1]	/* SetDualPVectorToLine */
MDAP[0]	/* MoveDirectAbsPt */
SFVTPV[ ]	/* SetFVectorToPVector */
MDRP[00100]	/* MoveDirectRelPt */
SFVTPV[ ]	/* SetFVectorToPVector */
MIRP[11100]	/* MoveIndirectRelPt */
SFVTPV[ ]	/* SetFVectorToPVector */
MDRP[00100]	/* MoveDirectRelPt */
SVTCA[1]	/* SetFreedomAndProjectionVectorToAxis */
MDAP[0]	/* MoveDirectAbsPt */
MDAP[0]	/* MoveDirectAbsPt */
SVTCA[0]	/* SetFreedomAndProjectionVectorToAxis */
IUP[1]	/* InterpolateUntPts */
IUP[0]	/* InterpolateUntPts */
SVTCA[1]	/* SetFreedomAndProjectionVectorToAxis */
MD[0]	/* MeasureDistance */
ROUND[00]	/* Round */
PUSHW[ ]	/* 2 values pushed */
7 14
MD[0]	/* MeasureDistance */
ROUND[00]	/* Round */
SUB[ ]	/* Subtract */
PUSHB[ ]	/* 1 value pushed */
64
GT[ ]	/* GreaterThan */
IF[ ]	/* If */
SHPIX[ ]	/* ShiftZoneByPixel */
SRP1[ ]	/* SetRefPoint1 */
SHZ[1]	/* ShiftZoneByLastPoint */
PUSHW[ ]	/* 2 values pushed */
14 -64
SHPIX[ ]	/* ShiftZoneByPixel */
EIF[ ]	/* EndIf */";
};
width = 1073;
}
);
note = backslash;
unicode = 92;
},
{
glyphname = bracketright;
lastChange = "2025-02-10 17:36:15 +0000";
layers = (
{
background = {
shapes = (
{
closed = 1;
nodes = (
(203,1256,ls),
(150,1256,o),
(150,1213,qs),
(150,1171,o),
(206,1171,qs),
(410,1171,l),
(410,-174,l),
(206,-174,ls),
(150,-174,o),
(150,-216,qs),
(150,-258,o),
(203,-258,qs),
(494,-258,l),
(494,1256,l)
);
}
);
};
layerId = m01;
shapes = (
{
closed = 1;
nodes = (
(494,-258,l),
(494,1256,l),
(203,1256,ls),
(168,1256,o),
(150,1242,o),
(150,1213,cs),
(150,1185,o),
(169,1171,o),
(206,1171,cs),
(410,1171,l),
(410,-174,l),
(206,-174,ls),
(169,-174,o),
(150,-188,o),
(150,-216,cs),
(150,-244,o),
(168,-258,o),
(203,-258,cs)
);
}
);
userData = {
assembly = "NPUSHB[ ]	/* 31 values pushed */
1 14 14 64 15 0 10 3 5 0 7 6 6 13 0 6 5 8 0 8 7 8 12 1 0 13 12 4 1 3 70
SROUND[ ]	/* SuperRound */
MDAP[1]	/* MoveDirectAbsPt */
SHZ[1]	/* ShiftZoneByLastPoint */
RTG[ ]	/* RoundToGrid */
SVTCA[0]	/* SetFreedomAndProjectionVectorToAxis */
MIAP[1]	/* MoveIndirectAbsPt */
ALIGNRP[ ]	/* AlignRelativePt */
MDAP[1]	/* MoveDirectAbsPt */
ALIGNRP[ ]	/* AlignRelativePt */
SRP0[ ]	/* SetRefPoint0 */
MIRP[11101]	/* MoveIndirectRelPt */
ALIGNRP[ ]	/* AlignRelativePt */
SRP0[ ]	/* SetRefPoint0 */
MIRP[11101]	/* MoveIndirectRelPt */
ALIGNRP[ ]	/* AlignRelativePt */
SVTCA[1]	/* SetFreedomAndProjectionVectorToAxis */
MDAP[1]	/* MoveDirectAbsPt */
ALIGNRP[ ]	/* AlignRelativePt */
MIRP[11101]	/* MoveIndirectRelPt */
ALIGNRP[ ]	/* AlignRelativePt */
SRP0[ ]	/* SetRefPoint0 */
MIRP[11101]	/* MoveIndirectRelPt */
ALIGNRP[ ]	/* AlignRelativePt */
SVTCA[0]	/* SetFreedomAndProjectionVectorToAxis */
IUP[1]	/* InterpolateUntPts */
IUP[0]	/* InterpolateUntPts */
SVTCA[1]	/* SetFreedomAndProjectionVectorToAxis */
MD[0]	/* MeasureDistance */
ROUND[00]	/* Round */
PUSHW[ ]	/* 2 values pushed */
3 14
MD[0]	/* MeasureDistance */
ROUND[00]	/* Round */
SUB[ ]	/* Subtract */
PUSHB[ ]	/* 1 value pushed */
64
GT[ ]	/* GreaterThan */
IF[ ]	/* If */
SHPIX[ ]	/* ShiftZoneByPixel */
SRP1[ ]	/* SetRefPoint1 */
SHZ[1]	/* ShiftZoneByLastPoint */
PUSHW[ ]	/* 2 values pushed */
14 -64
SHPIX[ ]	/* ShiftZoneByPixel */
EIF[ ]	/* EndIf */";
};
width = 644;
}
);
note = bracketright;
unicode = 93;
},
{
glyphname = asciicircum;
lastChange = "2025-02-10 17:36:15 +0000";
layers = (
{
background = {
shapes = (
{
closed = 1;
nodes = (
(905,815,qs),
(536,1278,l),
(168,815,ls),
(150,792,o),
(150,778,qs),
(150,735,o),
(193,735,qs),
(213,735,o),
(234,762,qs),
(536,1146,l),
(838,762,ls),
(858,736,o),
(880,736,qs),
(923,736,o),
(923,778,qs),
(923,792,o)
);
}
);
};
layerId = m01;
shapes = (
{
closed = 1;
nodes = (
(206,735,o),
(220,744,o),
(234,762,cs),
(536,1146,l),
(838,762,ls),
(851,745,o),
(865,736,o),
(880,736,cs),
(909,736,o),
(923,750,o),
(923,778,cs),
(923,787,o),
(917,800,o),
(905,815,cs),
(536,1278,l),
(168,815,ls),
(156,800,o),
(150,787,o),
(150,778,cs),
(150,749,o),
(164,735,o),
(193,735,cs)
);
}
);
userData = {
assembly = "NPUSHB[ ]	/* 35 values pushed */
1 16 16 64 17 0 5 10 0 5 4 5 6 9 13 13 14 12 12 13 4 5 9 5 6 14 13 13 14 13 2 8 1 10 70
SROUND[ ]	/* SuperRound */
MDAP[1]	/* MoveDirectAbsPt */
SHZ[1]	/* ShiftZoneByLastPoint */
RTG[ ]	/* RoundToGrid */
SVTCA[0]	/* SetFreedomAndProjectionVectorToAxis */
MDAP[1]	/* MoveDirectAbsPt */
ALIGNRP[ ]	/* AlignRelativePt */
MDAP[1]	/* MoveDirectAbsPt */
SVTCA[1]	/* SetFreedomAndProjectionVectorToAxis */
SDPVTL[1]	/* SetDualPVectorToLine */
MDAP[0]	/* MoveDirectAbsPt */
SFVTPV[ ]	/* SetFVectorToPVector */
MDRP[00100]	/* MoveDirectRelPt */
SFVTL[0]	/* SetFVectorToLine */
MIRP[11100]	/* MoveIndirectRelPt */
SFVTPV[ ]	/* SetFVectorToPVector */
MDRP[00100]	/* MoveDirectRelPt */
SDPVTL[1]	/* SetDualPVectorToLine */
MDAP[0]	/* MoveDirectAbsPt */
SFVTL[0]	/* SetFVectorToLine */
MDRP[00100]	/* MoveDirectRelPt */
SFVTPV[ ]	/* SetFVectorToPVector */
MIRP[11100]	/* MoveIndirectRelPt */
SFVTL[0]	/* SetFVectorToLine */
MDRP[00100]	/* MoveDirectRelPt */
SVTCA[1]	/* SetFreedomAndProjectionVectorToAxis */
MDAP[0]	/* MoveDirectAbsPt */
MDAP[0]	/* MoveDirectAbsPt */
SVTCA[0]	/* SetFreedomAndProjectionVectorToAxis */
MDAP[0]	/* MoveDirectAbsPt */
IUP[1]	/* InterpolateUntPts */
IUP[0]	/* InterpolateUntPts */
SVTCA[1]	/* SetFreedomAndProjectionVectorToAxis */
MD[0]	/* MeasureDistance */
ROUND[00]	/* Round */
PUSHW[ ]	/* 2 values pushed */
10 16
MD[0]	/* MeasureDistance */
ROUND[00]	/* Round */
SUB[ ]	/* Subtract */
PUSHB[ ]	/* 1 value pushed */
64
GT[ ]	/* GreaterThan */
IF[ ]	/* If */
SHPIX[ ]	/* ShiftZoneByPixel */
SRP1[ ]	/* SetRefPoint1 */
SHZ[1]	/* ShiftZoneByLastPoint */
PUSHW[ ]	/* 2 values pushed */
16 -64
SHPIX[ ]	/* ShiftZoneByPixel */
EIF[ ]	/* EndIf */";
};
width = 1073;
}
);
note = asciicircum;
unicode = 94;
},
{
glyphname = underscore;
lastChange = "2025-02-10 17:36:15 +0000";
layers = (
{
background = {
shapes = (
{
closed = 1;
nodes = (
(1176,-477,qs),
(53,-477,ls),
(0,-477,o),
(0,-519,qs),
(0,-561,o),
(53,-561,qs),
(1176,-561,ls),
(1229,-561,o),
(1229,-519,qs),
(1229,-477,o)
);
}
);
};
layerId = m01;
shapes = (
{
closed = 1;
nodes = (
(1176,-561,ls),
(1211,-561,o),
(1229,-547,o),
(1229,-519,cs),
(1229,-491,o),
(1211,-477,o),
(1176,-477,cs),
(53,-477,ls),
(18,-477,o),
(0,-491,o),
(0,-519,cs),
(0,-547,o),
(18,-561,o),
(53,-561,cs)
);
}
);
userData = {
assembly = "NPUSHB[ ]	/* 15 values pushed */
1 10 10 64 11 0 5 0 8 7 3 2 1 5 70
SROUND[ ]	/* SuperRound */
MDAP[1]	/* MoveDirectAbsPt */
SHZ[1]	/* ShiftZoneByLastPoint */
RTG[ ]	/* RoundToGrid */
SVTCA[0]	/* SetFreedomAndProjectionVectorToAxis */
MDAP[1]	/* MoveDirectAbsPt */
ALIGNRP[ ]	/* AlignRelativePt */
MDAP[1]	/* MoveDirectAbsPt */
ALIGNRP[ ]	/* AlignRelativePt */
SVTCA[1]	/* SetFreedomAndProjectionVectorToAxis */
MDAP[0]	/* MoveDirectAbsPt */
MDAP[0]	/* MoveDirectAbsPt */
SVTCA[0]	/* SetFreedomAndProjectionVectorToAxis */
IUP[1]	/* InterpolateUntPts */
IUP[0]	/* InterpolateUntPts */
SVTCA[1]	/* SetFreedomAndProjectionVectorToAxis */
MD[0]	/* MeasureDistance */
ROUND[00]	/* Round */
PUSHW[ ]	/* 2 values pushed */
5 10
MD[0]	/* MeasureDistance */
ROUND[00]	/* Round */
SUB[ ]	/* Subtract */
PUSHB[ ]	/* 1 value pushed */
64
GT[ ]	/* GreaterThan */
IF[ ]	/* If */
SHPIX[ ]	/* ShiftZoneByPixel */
SRP1[ ]	/* SetRefPoint1 */
SHZ[1]	/* ShiftZoneByLastPoint */
PUSHW[ ]	/* 2 values pushed */
10 -64
SHPIX[ ]	/* ShiftZoneByPixel */
EIF[ ]	/* EndIf */";
};
width = 1229;
}
);
note = underscore;
unicode = 95;
},
{
glyphname = grave;
lastChange = "2025-02-10 17:36:15 +0000";
layers = (
{
background = {
shapes = (
{
closed = 1;
nodes = (
(489,1081,q),
(477,1100,o),
(352,1210,qs),
(218,1330,o),
(193,1330,qs),
(150,1330,o),
(150,1287,qs),
(150,1268,o),
(175,1246,qs),
(411,1042,ls),
(434,1022,o),
(449,1022,qs),
(492,1022,o),
(492,1065,qs),
(492,1072,o)
);
}
);
};
layerId = m01;
shapes = (
{
closed = 1;
nodes = (
(478,1022,o),
(492,1036,o),
(492,1065,cs),
(492,1070,o),
(491,1075,o),
(489,1081,c),
(481,1094,o),
(435,1137,o),
(352,1210,cs),
(263,1290,o),
(210,1330,o),
(193,1330,cs),
(164,1330,o),
(150,1316,o),
(150,1287,cs),
(150,1274,o),
(158,1261,o),
(175,1246,cs),
(411,1042,ls),
(426,1029,o),
(439,1022,o),
(449,1022,cs)
);
}
);
userData = {
assembly = "NPUSHB[ ]	/* 13 values pushed */
1 15 15 64 16 0 7 0 9 2 1 7 70
SROUND[ ]	/* SuperRound */
MDAP[1]	/* MoveDirectAbsPt */
SHZ[1]	/* ShiftZoneByLastPoint */
RTG[ ]	/* RoundToGrid */
SVTCA[0]	/* SetFreedomAndProjectionVectorToAxis */
MDAP[1]	/* MoveDirectAbsPt */
MDAP[1]	/* MoveDirectAbsPt */
SVTCA[1]	/* SetFreedomAndProjectionVectorToAxis */
MDAP[0]	/* MoveDirectAbsPt */
MDAP[0]	/* MoveDirectAbsPt */
SVTCA[0]	/* SetFreedomAndProjectionVectorToAxis */
IUP[1]	/* InterpolateUntPts */
IUP[0]	/* InterpolateUntPts */
SVTCA[1]	/* SetFreedomAndProjectionVectorToAxis */
MD[0]	/* MeasureDistance */
ROUND[00]	/* Round */
PUSHW[ ]	/* 2 values pushed */
7 15
MD[0]	/* MeasureDistance */
ROUND[00]	/* Round */
SUB[ ]	/* Subtract */
PUSHB[ ]	/* 1 value pushed */
64
GT[ ]	/* GreaterThan */
IF[ ]	/* If */
SHPIX[ ]	/* ShiftZoneByPixel */
SRP1[ ]	/* SetRefPoint1 */
SHZ[1]	/* ShiftZoneByLastPoint */
PUSHW[ ]	/* 2 values pushed */
15 -64
SHPIX[ ]	/* ShiftZoneByPixel */
EIF[ ]	/* EndIf */";
};
width = 642;
}
);
note = grave;
unicode = 96;
},
